<svg width="183" height="132" viewBox="0 0 183 132" fill="none" xmlns="http://www.w3.org/2000/svg">
<g clip-path="url(#clip0_3931_313)">
<path d="M162.679 46.3828H16.0908C13.7487 46.3828 11.8501 48.3272 11.8501 50.7256V126.68C11.8501 129.078 13.7487 131.022 16.0908 131.022H162.679C165.021 131.022 166.92 129.078 166.92 126.68V50.7256C166.92 48.3272 165.021 46.3828 162.679 46.3828Z" fill="black"/>
<path d="M163.081 46.4961H97.1121C94.9149 46.4961 93.1338 48.2771 93.1338 50.4742V127.208C93.1338 129.405 94.9149 131.187 97.1121 131.187H163.081C165.278 131.187 167.059 129.405 167.059 127.208V50.4742C167.059 48.2771 165.278 46.4961 163.081 46.4961Z" fill="#232323"/>
<path d="M104.05 51.6437H0.755859L52.4029 0L104.05 51.6437Z" fill="#177BF5"/>
<path d="M1.41804 51.4609H11.8508V57.8936H1.41804C0.636176 57.8936 0.000488281 57.2657 0.000488281 56.4936V52.8643C0.000488281 52.0921 0.636176 51.4643 1.41804 51.4643V51.4609Z" fill="#054EC4"/>
<path d="M180.531 51.4453H93.8244C92.8969 51.4453 92.145 52.1971 92.145 53.1246V56.2528C92.145 57.1803 92.8969 57.9321 93.8244 57.9321H180.531C181.459 57.9321 182.211 57.1803 182.211 56.2528V53.1246C182.211 52.1971 181.459 51.4453 180.531 51.4453Z" fill="#054EC4"/>
<path d="M52.4699 10.8931L11.8057 51.5547L52.4699 92.2163L93.134 51.5547L52.4699 10.8931Z" fill="black"/>
<path d="M126.466 0H52.4019L103.687 51.4474H181.228L132.398 2.46471C130.827 0.887023 128.691 0 126.463 0H126.466Z" fill="#549DFF"/>
<path d="M41.6696 69.5312H63.1356C65.4244 69.5312 67.2832 71.3899 67.2832 73.6786V131.193H37.5254V73.6786C37.5254 71.3899 39.3842 69.5312 41.673 69.5312H41.6696Z" fill="#177BF5"/>
<path d="M130.155 69.7852H122.983C122.159 69.7852 121.49 70.4536 121.49 71.2782V78.4489C121.49 79.2735 122.159 79.9419 122.983 79.9419H130.155C130.979 79.9419 131.648 79.2735 131.648 78.4489V71.2782C131.648 70.4536 130.979 69.7852 130.155 69.7852Z" fill="#177BF5"/>
<path d="M142.429 69.7852H135.258C134.434 69.7852 133.765 70.4536 133.765 71.2782V78.4489C133.765 79.2735 134.434 79.9419 135.258 79.9419H142.429C143.254 79.9419 143.923 79.2735 143.923 78.4489V71.2782C143.923 70.4536 143.254 69.7852 142.429 69.7852Z" fill="#177BF5"/>
<path d="M130.155 82.0586H122.983C122.159 82.0586 121.49 82.727 121.49 83.5516V90.7223C121.49 91.5469 122.159 92.2154 122.983 92.2154H130.155C130.979 92.2154 131.648 91.5469 131.648 90.7223V83.5516C131.648 82.727 130.979 82.0586 130.155 82.0586Z" fill="#177BF5"/>
<path d="M142.429 82.0586H135.258C134.434 82.0586 133.765 82.727 133.765 83.5516V90.7223C133.765 91.5469 134.434 92.2154 135.258 92.2154H142.429C143.254 92.2154 143.923 91.5469 143.923 90.7223V83.5516C143.923 82.727 143.254 82.0586 142.429 82.0586Z" fill="#177BF5"/>
<path d="M62.8612 98.8555H62.8578C61.6573 98.8555 60.6841 99.8286 60.6841 101.029V101.032C60.6841 102.233 61.6573 103.206 62.8578 103.206H62.8612C64.0616 103.206 65.0348 102.233 65.0348 101.032V101.029C65.0348 99.8286 64.0616 98.8555 62.8612 98.8555Z" fill="#FFEB6C"/>
</g>
<defs>
<clipPath id="clip0_3931_313">
<rect width="182.21" height="131.191" fill="white"/>
</clipPath>
</defs>
</svg>
