<svg width="152" height="167" viewBox="0 0 152 167" fill="none" xmlns="http://www.w3.org/2000/svg">
<g clip-path="url(#clip0_3931_365)">
<path d="M83.3521 69.457H67.8848V166.422H83.3521V69.457Z" fill="#232323"/>
<path d="M75.6166 138.913C113.98 138.913 145.08 107.816 145.08 69.4566C145.08 31.0968 113.98 0 75.6166 0C37.2531 0 6.15332 31.0968 6.15332 69.4566C6.15332 107.816 37.2531 138.913 75.6166 138.913Z" fill="black"/>
<path d="M75.6155 125.88C106.781 125.88 132.045 100.618 132.045 69.4557C132.045 38.2933 106.781 13.0312 75.6155 13.0312C44.4501 13.0312 19.1855 38.2933 19.1855 69.4557C19.1855 100.618 44.4501 125.88 75.6155 125.88Z" stroke="white" stroke-width="3.25549" stroke-miterlimit="10"/>
<path d="M147.899 2.16597L99.3743 18.913C98.407 19.2459 98.1652 20.502 98.9378 21.1709L111.732 32.2749L80.8826 67.8134C79.8148 69.0444 77.9493 69.1763 76.7182 68.1086L57.6957 51.6096C56.7818 50.8182 55.3999 50.9156 54.6085 51.8294L2.09802 112.324C1.31602 113.222 1.41337 114.585 2.31158 115.367L12.0913 123.855C12.9895 124.637 14.3526 124.539 15.1346 123.641L56.3578 76.1539C57.1398 75.2558 58.4997 75.1585 59.401 75.9404L67.6325 83.0845L78.612 92.6153C79.7488 93.6013 81.473 93.482 82.4592 92.3421L124.772 43.5956L137.708 54.8221C138.481 55.4909 139.69 55.0764 139.885 54.0715L149.642 3.67644C149.837 2.67155 148.87 1.8331 147.906 2.16911L147.899 2.16597Z" fill="#177BF5" stroke="#177BF5" stroke-width="4.06936" stroke-miterlimit="10"/>
</g>
<defs>
<clipPath id="clip0_3931_365">
<rect width="151.235" height="166.419" fill="white"/>
</clipPath>
</defs>
</svg>
