<svg width="165" height="169" viewBox="0 0 165 169" fill="none" xmlns="http://www.w3.org/2000/svg">
<g clip-path="url(#clip0_3931_341)">
<path d="M82.2028 150.287L164.402 72.9179L124.765 30.3047H82.2028H39.6411L0 72.9179L82.2028 150.287Z" fill="#549DFF"/>
<path d="M39.6411 30.3047H124.765L164.402 72.9179H0L39.6411 30.3047Z" fill="#177BF5"/>
<path d="M31.8623 72.918H69.2014L82.2022 150.287L31.8623 72.918Z" fill="#177BF5"/>
<path d="M125.498 72.918L82.2031 150.287L136.123 72.918H125.498Z" fill="#177BF5"/>
<path d="M69.2026 72.9179L109.165 30.3047H46.5138L45.0771 72.9179H69.2026Z" fill="#549DFF"/>
<path d="M107.271 126.894L82.2024 150.263L57.1338 126.894L41.3916 162.794C40.2187 165.471 42.1826 168.468 45.1066 168.468H116.171C118.967 168.468 120.924 165.71 119.998 163.074L107.268 126.891L107.271 126.894Z" fill="black"/>
<path d="M63.0162 7.85962C62.7762 7.73474 62.543 7.60649 62.3097 7.47149C60.6263 6.50623 59.2404 5.79747 57.993 5.35196C57.5468 4.10658 56.837 2.72281 55.8702 1.04204C55.735 0.809165 55.6065 0.572912 55.4814 0.33666C55.2448 -0.11222 54.7209 -0.11222 54.4842 0.33666C54.3592 0.576288 54.2307 0.809165 54.0955 1.04204C53.1287 2.72281 52.4189 4.10658 51.9727 5.35196C50.7253 5.79747 49.3394 6.50623 47.656 7.47149C47.4227 7.60649 47.1861 7.73474 46.9495 7.85962C46.4999 8.09587 46.4999 8.619 46.9495 8.85525C47.1895 8.98013 47.4227 9.10838 47.656 9.24338C49.3394 10.2086 50.7253 10.9174 51.9727 11.3629C52.4189 12.6083 53.1287 13.9921 54.0955 15.6728C54.2307 15.9057 54.3592 16.142 54.4842 16.3782C54.7209 16.8271 55.2448 16.8271 55.4814 16.3782C55.6065 16.1386 55.735 15.9057 55.8702 15.6728C56.837 13.9921 57.5468 12.6083 57.993 11.3629C59.2404 10.9174 60.6263 10.2086 62.3097 9.24338C62.543 9.10838 62.7796 8.98013 63.0162 8.85525C63.4658 8.619 63.4658 8.09587 63.0162 7.85962Z" fill="black"/>
<path d="M147.859 103.785C147.511 103.603 147.166 103.414 146.828 103.218C144.368 101.808 142.346 100.775 140.524 100.123C139.872 98.3043 138.837 96.2861 137.424 93.8291C137.228 93.4882 137.039 93.1473 136.856 92.7997C136.512 92.1449 135.744 92.1449 135.4 92.7997C135.217 93.1473 135.028 93.4916 134.832 93.8291C133.419 96.2861 132.384 98.3043 131.732 100.123C129.91 100.775 127.888 101.808 125.428 103.218C125.086 103.414 124.745 103.603 124.393 103.785C123.737 104.13 123.737 104.896 124.393 105.24C124.741 105.422 125.086 105.611 125.428 105.807C127.888 107.218 129.91 108.251 131.732 108.902C132.384 110.721 133.419 112.739 134.832 115.196C135.028 115.537 135.217 115.878 135.4 116.226C135.744 116.881 136.512 116.881 136.856 116.226C137.039 115.878 137.228 115.534 137.424 115.196C138.837 112.739 139.872 110.721 140.524 108.902C142.346 108.251 144.368 107.218 146.828 105.807C147.17 105.611 147.511 105.422 147.859 105.24C148.515 104.896 148.515 104.13 147.859 103.785Z" fill="black"/>
<path d="M55.4638 25.9526C54.9297 25.6725 54.4024 25.3822 53.8818 25.0852C50.1094 22.9218 47.0096 21.3389 44.2175 20.3399C43.2169 17.5521 41.6315 14.4572 39.4647 10.6907C39.1639 10.1709 38.8765 9.64442 38.596 9.11116C38.0686 8.10878 36.8923 8.10878 36.365 9.11116C36.0844 9.64442 35.7937 10.1709 35.4962 10.6907C33.3294 14.4572 31.744 17.5521 30.7435 20.3399C27.9513 21.3389 24.8516 22.9218 21.0791 25.0852C20.5585 25.3856 20.0312 25.6725 19.4971 25.9526C18.4932 26.4791 18.4932 27.6536 19.4971 28.1801C20.0312 28.4602 20.5585 28.7505 21.0791 29.0475C24.8516 31.2109 27.9513 32.7938 30.7435 33.7928C31.744 36.5806 33.3294 39.6755 35.4962 43.442C35.7971 43.9618 36.0844 44.4883 36.365 45.0216C36.8923 46.0239 38.0686 46.0239 38.596 45.0216C38.8765 44.4883 39.1672 43.9618 39.4647 43.442C41.6315 39.6755 43.2169 36.5806 44.2175 33.7928C47.0096 32.7938 50.1094 31.2109 53.8818 29.0475C54.4024 28.7471 54.9297 28.4602 55.4638 28.1801C56.4678 27.6536 56.4678 26.4791 55.4638 25.9526Z" fill="black"/>
</g>
<defs>
<clipPath id="clip0_3931_341">
<rect width="164.402" height="168.472" fill="white"/>
</clipPath>
</defs>
</svg>
