<svg width="768" height="320" viewBox="0 0 768 320" fill="none" xmlns="http://www.w3.org/2000/svg">
<rect width="768" height="320" rx="16" fill="url(#paint0_linear_3931_295)"/>
<g clip-path="url(#clip0_3931_295)">
<rect x="104" width="560" height="320" rx="16" fill="url(#paint1_linear_3931_295)"/>
<g clip-path="url(#clip1_3931_295)">
<path d="M505.207 177.68H481.23V328.006H505.207V177.68Z" fill="#232323"/>
<path d="M493.216 285.358C552.685 285.358 600.895 237.148 600.895 177.679C600.895 118.209 552.685 70 493.216 70C433.747 70 385.537 118.209 385.537 177.679C385.537 237.148 433.747 285.358 493.216 285.358Z" fill="black"/>
<path d="M493.216 265.153C541.528 265.153 580.691 225.989 580.691 177.678C580.691 129.367 541.528 90.2031 493.216 90.2031C444.905 90.2031 405.741 129.367 405.741 177.678C405.741 225.989 444.905 265.153 493.216 265.153Z" stroke="white" stroke-width="3.89471" stroke-miterlimit="10"/>
<path d="M605.267 73.3581L530.045 99.3211C528.546 99.8372 528.171 101.785 529.369 102.822L549.203 120.036L501.38 175.132C499.725 177.04 496.833 177.244 494.925 175.589L465.437 150.011C464.02 148.784 461.878 148.935 460.652 150.352L379.252 244.136C378.04 245.528 378.191 247.641 379.583 248.854L394.743 262.013C396.136 263.225 398.249 263.074 399.461 261.682L463.363 188.062C464.575 186.67 466.683 186.519 468.081 187.731L480.841 198.807L497.861 213.582C499.623 215.111 502.296 214.926 503.824 213.159L569.416 137.587L589.469 154.991C590.667 156.028 592.541 155.385 592.843 153.828L607.969 75.6997C608.271 74.1419 606.771 72.842 605.277 73.3629L605.267 73.3581Z" fill="#177BF5" stroke="#177BF5" stroke-width="4.86838" stroke-miterlimit="10"/>
</g>
<g clip-path="url(#clip2_3931_295)">
<path d="M181.874 178.406L169.99 166.544L161.23 157.801C160.108 165.103 162.337 172.821 167.972 178.441C177.371 187.822 192.601 187.822 202 178.441L190.136 166.599C188.159 170.873 185.406 174.881 181.874 178.401V178.406Z" fill="black"/>
<path d="M181.874 178.406L169.99 166.544L161.23 157.801C160.108 165.103 162.337 172.821 167.972 178.441C177.371 187.822 192.601 187.822 202 178.441L190.136 166.599C188.159 170.873 185.406 174.881 181.874 178.401V178.406Z" fill="black"/>
<path d="M191.967 160.564L180.083 172.426L171.323 181.17C178.639 182.289 186.372 180.065 192.002 174.44C201.401 165.059 201.401 149.858 192.002 140.477L180.138 152.318C184.42 154.292 188.435 157.039 191.962 160.564H191.967Z" fill="black"/>
<path d="M174.126 150.594L186.01 162.456L194.77 171.2C195.892 163.898 193.663 156.179 188.028 150.559C178.629 141.178 163.399 141.178 154 150.559L165.864 162.401C167.842 158.127 170.594 154.12 174.126 150.599V150.594Z" fill="black"/>
<path d="M164.023 168.39L175.907 156.528L184.667 147.785C177.351 146.665 169.618 148.89 163.988 154.514C154.589 163.895 154.589 179.102 163.983 188.478L175.847 176.636C171.565 174.662 167.55 171.915 164.023 168.39Z" fill="black"/>
<path d="M171.222 181.256C170.046 180.447 169.03 179.636 167.984 178.599C162.298 172.962 160.127 165.166 161.222 157.811L170 166.589L178 174.478L171.222 181.256Z" fill="black"/>
</g>
<path d="M224.904 154.528C225.877 153.225 226.795 152.575 228.355 151.938C229.81 151.367 232.494 151.367 234.336 151.367V156.698H233.101C230.96 156.717 228.909 157.577 227.394 159.097C226.088 160.406 225.27 162.115 225.057 163.936C224.995 164.248 224.944 164.58 224.904 164.937V178.411H218V151.367H224.904V154.528Z" fill="black"/>
<path d="M258.463 170.473C256.974 172.104 254.83 173.127 252.447 173.127C248.931 173.127 245.937 170.901 244.794 167.782H265.883C266.062 166.863 266.152 165.897 266.152 164.889C266.152 162.21 265.537 159.846 264.307 157.797C263.109 155.748 261.457 154.172 259.353 153.07C257.248 151.935 254.901 151.367 252.309 151.367C249.718 151.367 247.37 151.935 245.266 153.07C243.161 154.172 241.493 155.748 240.263 157.797C239.065 159.846 238.465 162.21 238.465 164.889C238.465 167.568 239.048 169.933 240.214 171.981C241.412 174.03 243.046 175.621 245.119 176.758C247.192 177.86 249.522 178.413 252.114 178.413C254.705 178.413 257.1 177.862 259.206 176.758C261.343 175.623 263.028 174.032 264.258 171.981C264.557 171.496 264.818 170.994 265.048 170.473H258.463ZM252.447 156.821C255.932 156.821 258.907 159.01 260.071 162.088H244.822C245.986 159.01 248.961 156.821 252.447 156.821Z" fill="black"/>
<path d="M297.849 140.477H291.078V153.084C288.975 151.954 286.632 151.387 284.044 151.387C281.456 151.387 279.105 151.956 277 153.09C274.896 154.192 273.227 155.769 271.997 157.817C270.799 159.866 270.199 162.231 270.199 164.909C270.199 167.588 270.782 169.953 271.948 172.002C273.146 174.05 274.781 175.642 276.853 176.778C278.926 177.88 281.256 178.433 283.848 178.433C286.44 178.433 288.834 177.882 290.94 176.778C290.986 176.753 291.031 176.727 291.078 176.703V178.477H297.849V140.477ZM284.183 173.147C279.682 173.147 276.032 169.498 276.032 164.994C276.032 160.491 279.68 156.841 284.183 156.841C288.684 156.841 292.334 160.491 292.334 164.994C292.334 169.498 288.685 173.147 284.183 173.147Z" fill="black"/>
<path fill-rule="evenodd" clip-rule="evenodd" d="M315.919 151.367C318.501 151.367 320.843 151.935 322.941 153.07C325.039 154.172 326.685 155.748 327.879 157.797C329.106 159.845 329.719 162.21 329.719 164.888C329.719 167.567 329.089 169.932 327.831 171.98C326.604 174.028 324.924 175.62 322.795 176.756C320.696 177.858 318.34 178.411 315.724 178.411C313.108 178.411 310.817 177.86 308.751 176.756C306.685 175.622 305.055 174.028 303.861 171.98C302.698 169.932 302.117 167.567 302.117 164.888C302.117 162.21 302.713 159.845 303.908 157.797C305.134 155.748 306.797 154.172 308.895 153.07C310.993 151.935 313.333 151.367 315.917 151.367H315.919ZM316.056 156.822C311.569 156.822 307.93 160.472 307.93 164.975C307.93 169.476 311.567 173.127 316.056 173.127C320.545 173.127 324.182 169.478 324.182 164.975C324.182 160.472 320.545 156.822 316.056 156.822Z" fill="black"/>
<path d="M340.611 156.726V170.373C340.611 171.279 340.824 171.942 341.251 172.362C341.711 172.75 342.467 172.945 343.519 172.945H349.998V178.412H342.386C336.572 178.412 333.664 175.89 333.664 170.326V156.728H333.689V151.406H333.664V145.922H340.613V151.406H350V156.728H340.613L340.611 156.726Z" fill="black"/>
</g>
<defs>
<linearGradient id="paint0_linear_3931_295" x1="384" y1="0" x2="384" y2="320" gradientUnits="userSpaceOnUse">
<stop stop-color="#E4EFFF"/>
<stop offset="1" stop-color="#669CF9"/>
</linearGradient>
<linearGradient id="paint1_linear_3931_295" x1="384" y1="0" x2="384" y2="320" gradientUnits="userSpaceOnUse">
<stop stop-color="#E4EFFF"/>
<stop offset="1" stop-color="#669CF9"/>
</linearGradient>
<clipPath id="clip0_3931_295">
<rect x="104" width="560" height="320" rx="16" fill="white"/>
</clipPath>
<clipPath id="clip1_3931_295">
<rect width="234.437" height="258" fill="white" transform="translate(376 70)"/>
</clipPath>
<clipPath id="clip2_3931_295">
<rect width="48" height="48" fill="white" transform="translate(154 140.477)"/>
</clipPath>
</defs>
</svg>
