<svg width="591" height="154" viewBox="0 0 591 154" fill="none" xmlns="http://www.w3.org/2000/svg">
<rect x="588.982" y="128.852" width="24.5979" height="588.982" transform="rotate(90 588.982 128.852)" fill="#3A79EE" fill-opacity="0.12"/>
<rect x="244.794" y="0.46875" width="11.4539" height="152.838" fill="#3A79EE" fill-opacity="0.12"/>
<rect x="332.848" y="0.46875" width="11.4539" height="152.838" fill="#3A79EE" fill-opacity="0.12"/>
<rect x="588.982" y="0.359375" width="24.5979" height="588.982" transform="rotate(90 588.982 0.359375)" fill="#3A79EE" fill-opacity="0.12"/>
<rect x="199.329" y="153.379" width="47.8716" height="152.981" transform="rotate(180 199.329 153.379)" fill="#3A79EE" fill-opacity="0.12"/>
<rect x="24.4814" y="153.379" width="23.9358" height="152.981" transform="rotate(180 24.4814 153.379)" fill="#3A79EE" fill-opacity="0.12"/>
<rect x="420.896" y="0.46875" width="11.4539" height="152.838" fill="#3A79EE" fill-opacity="0.12"/>
<rect x="508.948" y="0.46875" width="11.4539" height="152.838" fill="#3A79EE" fill-opacity="0.12"/>
<rect x="565.132" y="0.394531" width="24.4562" height="152.981" fill="#3A79EE" fill-opacity="0.12"/>
<path d="M509.137 0.46875L509.137 153.306" stroke="#B0ADAC" stroke-width="0.715867"/>
<path d="M520.587 0.46875L520.587 153.306" stroke="#B0ADAC" stroke-width="0.715867"/>
<path d="M421.085 0.46875L421.085 153.306" stroke="#B0ADAC" stroke-width="0.715867"/>
<path d="M333.033 0.46875L333.033 153.306" stroke="#B0ADAC" stroke-width="0.715867"/>
<path d="M344.489 0.46875L344.489 153.306" stroke="#B0ADAC" stroke-width="0.715867"/>
<path d="M432.538 0.46875L432.538 153.306" stroke="#B0ADAC" stroke-width="0.715867"/>
<path d="M256.435 0.46875L256.435 153.306" stroke="#B0ADAC" stroke-width="0.715867"/>
<path d="M244.984 0.46875L244.984 153.306" stroke="#B0ADAC" stroke-width="0.715867"/>
<path d="M199.883 0.46875L199.883 153.306" stroke="#B0ADAC" stroke-width="0.715867"/>
<path d="M565.688 0.46875L565.688 153.306" stroke="#B0ADAC" stroke-width="0.715867"/>
<path d="M590.137 0.46875L590.137 153.306" stroke="#B0ADAC" stroke-width="0.715867"/>
<path d="M175.941 0.46875L175.941 153.306" stroke="#B0ADAC" stroke-width="0.715867"/>
<path d="M152 0.394531L152 153.232" stroke="#B0ADAC" stroke-width="0.715867"/>
<path d="M0.428711 0.394531L0.428718 153.232" stroke="#B0ADAC" stroke-width="0.715867"/>
<path d="M24.3242 0.394531L24.3242 153.232" stroke="#B0ADAC" stroke-width="0.715867"/>
<path d="M0 55.0234H590.349" stroke="#B0ADAC" stroke-width="0.715867"/>
<path d="M0 70.0547H590.349" stroke="#B0ADAC" stroke-width="0.715867"/>
<path d="M0 85.0859H590.349" stroke="#B0ADAC" stroke-width="0.715867"/>
<path d="M0 100.117H590.349" stroke="#B0ADAC" stroke-width="0.715867"/>
<path d="M0 113.781H590.349" stroke="#B0ADAC" stroke-width="0.715867"/>
<path d="M0 39.9883H590.349" stroke="#B0ADAC" stroke-width="0.715867"/>
<path d="M0 24.957H590.349" stroke="#B0ADAC" stroke-width="0.715867"/>
<path d="M0 128.816H590.349" stroke="#B0ADAC" stroke-width="0.715867"/>
<path d="M0 153.449L590.349 153.449" stroke="#B0ADAC" stroke-width="0.715867"/>
<path d="M0 0.359375H590.349" stroke="#B0ADAC" stroke-width="0.715867"/>
<path fill-rule="evenodd" clip-rule="evenodd" d="M470.778 54.8281C477.93 54.8281 484.417 56.4018 490.229 59.5438C496.041 62.5973 500.601 66.9639 503.909 72.6384C507.306 78.3128 509.005 84.8627 509.005 92.2828C509.005 99.7029 507.259 106.253 503.774 111.927C500.378 117.602 495.724 122.01 489.824 125.157C484.012 128.211 477.483 129.743 470.238 129.743C462.992 129.743 456.645 128.216 450.922 125.157C445.198 122.015 440.685 117.602 437.376 111.927C434.156 106.253 432.546 99.7029 432.546 92.2828C432.546 84.8627 434.198 78.3128 437.506 72.6384C440.903 66.9639 445.51 62.5973 451.322 59.5438C457.134 56.4018 463.615 54.8281 470.773 54.8281H470.778ZM471.157 69.9392C458.728 69.9392 448.647 80.048 448.647 92.5225C448.647 104.992 458.723 115.106 471.157 115.106C483.591 115.106 493.667 104.997 493.667 92.5225C493.667 80.048 483.591 69.9392 471.157 69.9392Z" fill="black"/>
<path d="M421.424 24.4023H402.674V59.3172C396.851 56.1862 390.361 54.6181 383.194 54.6181C376.027 54.6181 369.517 56.1914 363.688 59.3328C357.86 62.3857 353.24 66.7513 349.834 72.4246C346.516 78.0979 344.854 84.6464 344.854 92.0649C344.854 99.4834 346.469 106.032 349.698 111.705C353.016 117.378 357.542 121.786 363.282 124.932C369.022 127.985 375.475 129.517 382.652 129.517C389.83 129.517 396.46 127.99 402.294 124.932C402.419 124.865 402.544 124.792 402.674 124.724V129.637H421.424V24.4023ZM383.58 114.878C371.116 114.878 361.006 104.771 361.006 92.2993C361.006 79.8275 371.11 69.7208 383.58 69.7208C396.043 69.7208 406.153 79.8275 406.153 92.2993C406.153 104.771 396.049 114.878 383.58 114.878Z" fill="black"/>
<path d="M218.878 63.4156C221.556 59.8077 224.083 58.0063 228.379 56.2416C232.385 54.6602 239.774 54.6602 244.843 54.6602V69.4272H241.444C235.55 69.4795 229.905 71.8622 225.733 76.0723C222.137 79.7013 219.885 84.4351 219.299 89.4779C219.128 90.3419 218.987 91.2635 218.878 92.2532V129.579H199.872V54.6602H218.878V63.4156Z" fill="black"/>
<path d="M539.865 69.4318V107.32C539.865 109.834 540.456 111.676 541.643 112.841C542.92 113.919 545.018 114.46 547.938 114.46H565.925V129.639H544.793C528.652 129.639 520.579 122.635 520.579 107.19V69.437H520.647V54.6636H520.579V39.4375H539.87V54.6636H565.931V69.437H539.87L539.865 69.4318Z" fill="black"/>
<path d="M311.842 107.642C307.716 112.16 301.777 114.995 295.176 114.995C285.438 114.995 277.144 108.83 273.977 100.19H332.395C332.89 97.6421 333.14 94.9688 333.14 92.1757C333.14 84.7552 331.437 78.2049 328.029 72.5301C324.711 66.8553 320.136 62.4884 314.307 59.4347C308.477 56.2925 301.975 54.7188 294.795 54.7188C287.616 54.7188 281.114 56.2925 275.284 59.4347C269.454 62.4884 264.833 66.8553 261.426 72.5301C258.107 78.2049 256.445 84.7552 256.445 92.1757C256.445 99.5962 258.06 106.146 261.291 111.821C264.609 117.496 269.137 121.905 274.878 125.052C280.619 128.106 287.074 129.638 294.254 129.638C301.433 129.638 308.065 128.111 313.9 125.052C319.819 121.91 324.487 117.501 327.894 111.821C328.722 110.477 329.446 109.086 330.082 107.642H311.842ZM295.176 69.8255C304.83 69.8255 313.072 75.8912 316.297 84.4165H274.055C277.28 75.8912 285.522 69.8255 295.176 69.8255Z" fill="black"/>
<path d="M98.3722 126.501L66.5685 94.7573L43.1264 71.3594C40.1238 90.9002 46.0886 111.557 61.1691 126.595C86.3213 151.7 127.079 151.7 152.231 126.595L120.481 94.9052C115.19 106.342 107.824 117.067 98.3722 126.488V126.501Z" fill="url(#paint0_linear_4060_341)"/>
<path d="M98.3722 126.501L66.5685 94.7573L43.1264 71.3594C40.1238 90.9002 46.0886 111.557 61.1691 126.595C86.3213 151.7 127.079 151.7 152.231 126.595L120.481 94.9052C115.19 106.342 107.824 117.067 98.3722 126.488V126.501Z" fill="url(#paint1_linear_4060_341)"/>
<path d="M125.381 78.7497L93.5769 110.493L70.1348 133.891C89.7125 136.888 110.408 130.935 125.475 115.883C150.627 90.7779 150.627 50.0969 125.475 24.9922L93.725 56.6822C105.183 61.9639 115.928 69.3153 125.367 78.7497H125.381Z" fill="url(#paint2_linear_4060_341)"/>
<path d="M77.6343 52.075L109.438 83.8188L132.88 107.217C135.883 87.6759 129.918 67.0196 114.837 51.9809C89.6853 26.8762 48.9275 26.8762 23.7754 51.9809L55.5252 83.671C60.8169 72.2341 68.1821 61.5094 77.6343 52.0884V52.075Z" fill="url(#paint3_linear_4060_341)"/>
<path d="M50.6026 99.6906L82.4063 67.9468L105.848 44.5488C86.2707 41.5518 65.5754 47.5055 50.5084 62.5576C25.3562 87.6623 25.3562 128.357 50.4949 153.448L82.2447 121.758C70.7862 116.476 60.0414 109.125 50.6026 99.6906Z" fill="url(#paint4_linear_4060_341)"/>
<path d="M69.8669 134.12C66.719 131.955 64.0009 129.784 61.2021 127.009C45.9855 111.924 40.1741 91.0619 43.1057 71.3794L66.5961 94.8698L88.005 115.981L69.8669 134.12Z" fill="url(#paint5_linear_4060_341)"/>
<defs>
<linearGradient id="paint0_linear_4060_341" x1="97.3021" y1="71.3594" x2="97.3021" y2="145.424" gradientUnits="userSpaceOnUse">
<stop stop-color="#3A79EE"/>
<stop offset="1" stop-color="#669CF9"/>
</linearGradient>
<linearGradient id="paint1_linear_4060_341" x1="97.3021" y1="71.3594" x2="97.3021" y2="145.424" gradientUnits="userSpaceOnUse">
<stop stop-color="#669CF9"/>
<stop offset="1" stop-color="#3A79EE"/>
</linearGradient>
<linearGradient id="paint2_linear_4060_341" x1="107.237" y1="24.9922" x2="107.237" y2="134.643" gradientUnits="userSpaceOnUse">
<stop offset="0.384615" stop-color="#3A79EE"/>
<stop offset="1" stop-color="#669CF9"/>
</linearGradient>
<linearGradient id="paint3_linear_4060_341" x1="78.7044" y1="33.1523" x2="78.7044" y2="107.217" gradientUnits="userSpaceOnUse">
<stop offset="0.298077" stop-color="#3A79EE"/>
<stop offset="1" stop-color="#669CF9"/>
</linearGradient>
<linearGradient id="paint4_linear_4060_341" x1="92.4676" y1="33.6176" x2="46.9736" y2="141.554" gradientUnits="userSpaceOnUse">
<stop stop-color="#669CF9"/>
<stop offset="0.79807" stop-color="#3A79EE"/>
</linearGradient>
<linearGradient id="paint5_linear_4060_341" x1="65.0697" y1="71.2845" x2="93.0599" y2="148.392" gradientUnits="userSpaceOnUse">
<stop stop-color="#6298F8"/>
<stop offset="0.605769" stop-color="#4B87F3"/>
</linearGradient>
</defs>
</svg>
