<svg width="620" height="101" viewBox="0 0 620 101" fill="none" xmlns="http://www.w3.org/2000/svg">
<g clip-path="url(#clip0_4060_1494)">
<path d="M36.782 55.327L21.0997 39.6742L9.54042 28.1367C8.05983 37.7723 11.0011 47.9579 18.4373 55.3734C30.8397 67.7525 50.9373 67.7525 63.3398 55.3734L47.684 39.7471C45.0747 45.3866 41.4429 50.6749 36.782 55.3204V55.327Z" fill="url(#paint0_linear_4060_1494)"/>
<path d="M36.782 55.327L21.0997 39.6742L9.54042 28.1367C8.05983 37.7723 11.0011 47.9579 18.4373 55.3734C30.8397 67.7525 50.9373 67.7525 63.3398 55.3734L47.684 39.7471C45.0747 45.3866 41.4429 50.6749 36.782 55.3204V55.327Z" fill="url(#paint1_linear_4060_1494)"/>
<path d="M50.101 31.7812L34.4186 47.434L22.8594 58.9715C32.5131 60.4493 42.7179 57.5135 50.1475 50.0914C62.5499 37.7123 62.5499 17.6525 50.1475 5.27344L34.4917 20.8997C40.1418 23.5041 45.4401 27.1291 50.0943 31.7812H50.101Z" fill="url(#paint2_linear_4060_1494)"/>
<path d="M26.5577 18.6276L42.2401 34.2804L53.7993 45.8179C55.2799 36.1823 52.3387 25.9967 44.9025 18.5812C32.5 6.2021 12.4025 6.2021 0 18.5812L15.6558 34.2075C18.2651 28.568 21.8969 23.2797 26.5577 18.6342V18.6276Z" fill="url(#paint3_linear_4060_1494)"/>
<path d="M13.2251 42.104L28.9075 26.4512L40.4667 14.9137C30.813 13.4359 20.6082 16.3717 13.1787 23.7938C0.776191 36.1729 0.776191 56.2393 13.172 68.6118L28.8278 52.9855C23.1776 50.3811 17.8794 46.7562 13.2251 42.104Z" fill="url(#paint4_linear_4060_1494)"/>
<path d="M22.7258 59.0838C21.1736 58.0165 19.8333 56.946 18.4532 55.5778C10.9499 48.1391 8.08434 37.8522 9.52992 28.1468L21.113 39.7298L31.6697 50.1399L22.7258 59.0838Z" fill="url(#paint5_linear_4060_1494)"/>
</g>
<path d="M93.5646 23.8191C94.848 22.1004 96.0593 21.2424 98.1186 20.4017C100.039 19.6484 103.58 19.6484 106.01 19.6484V26.6826H104.381C101.556 26.7076 98.8499 27.8425 96.8502 29.848C95.1266 31.5766 94.0471 33.8315 93.7661 36.2336C93.684 36.6452 93.6169 37.0842 93.5646 37.5557V55.3356H84.4541V19.6484H93.5646V23.8191Z" fill="black"/>
<path d="M137.85 44.8596C135.885 47.0119 133.056 48.3623 129.911 48.3623C125.272 48.3623 121.321 45.4256 119.812 41.3098H147.641C147.877 40.0959 147.996 38.8224 147.996 37.4919C147.996 33.9569 147.185 30.8366 145.562 28.1333C143.981 25.4299 141.802 23.3497 139.024 21.895C136.247 20.3981 133.15 19.6484 129.73 19.6484C126.31 19.6484 123.213 20.3981 120.435 21.895C117.658 23.3497 115.457 25.4299 113.834 28.1333C112.253 30.8366 111.461 33.9569 111.461 37.4919C111.461 41.0268 112.23 44.1472 113.769 46.8505C115.35 49.5538 117.507 51.6539 120.242 53.1533C122.977 54.608 126.052 55.3378 129.472 55.3378C132.892 55.3378 136.051 54.6105 138.831 53.1533C141.65 51.6564 143.874 49.5563 145.497 46.8505C145.892 46.21 146.237 45.5472 146.539 44.8596H137.85ZM129.911 26.8449C134.51 26.8449 138.436 29.7344 139.972 33.7956H119.85C121.386 29.7344 125.312 26.8449 129.911 26.8449Z" fill="black"/>
<path d="M189.82 5.27344H180.885V21.9104C178.11 20.4185 175.018 19.6713 171.603 19.6713C168.188 19.6713 165.086 20.421 162.308 21.9179C159.531 23.3726 157.33 25.4528 155.707 28.1561C154.126 30.8595 153.334 33.9798 153.334 37.5148C153.334 41.0497 154.103 44.17 155.642 46.8734C157.223 49.5767 159.38 51.6768 162.115 53.1762C164.85 54.6308 167.925 55.3607 171.345 55.3607C174.765 55.3607 177.924 54.6333 180.704 53.1762C180.763 53.1439 180.823 53.1091 180.885 53.0769V55.4178H189.82V5.27344ZM171.787 48.3851C165.847 48.3851 161.03 43.5693 161.03 37.6265C161.03 31.6836 165.845 26.8678 171.787 26.8678C177.726 26.8678 182.543 31.6836 182.543 37.6265C182.543 43.5693 177.728 48.3851 171.787 48.3851Z" fill="black"/>
<path fill-rule="evenodd" clip-rule="evenodd" d="M213.67 19.6484C217.077 19.6484 220.167 20.3981 222.936 21.8949C225.704 23.3495 227.877 25.4296 229.453 28.1327C231.071 30.8359 231.88 33.9561 231.88 37.4908C231.88 41.0255 231.048 44.1457 229.388 46.8489C227.77 49.552 225.553 51.652 222.743 53.1513C219.974 54.6059 216.864 55.3356 213.412 55.3356C209.961 55.3356 206.937 54.6083 204.211 53.1513C201.484 51.6545 199.334 49.552 197.758 46.8489C196.224 44.1457 195.457 41.0255 195.457 37.4908C195.457 33.9561 196.244 30.8359 197.82 28.1327C199.438 25.4296 201.633 23.3495 204.401 21.8949C207.17 20.3981 210.258 19.6484 213.667 19.6484H213.67ZM213.85 26.8469C207.93 26.8469 203.127 31.6625 203.127 37.605C203.127 43.545 207.927 48.363 213.85 48.363C219.774 48.363 224.573 43.5475 224.573 37.605C224.573 31.6625 219.774 26.8469 213.85 26.8469Z" fill="black"/>
<path d="M246.25 26.7177V44.7267C246.25 45.9213 246.531 46.7969 247.095 47.351C247.702 47.863 248.699 48.1202 250.087 48.1202H258.637V55.3352H248.592C240.92 55.3352 237.083 52.0059 237.083 44.6648V26.7202H237.115V19.6982H237.083V12.4609H246.252V19.6982H258.639V26.7202H246.252L246.25 26.7177Z" fill="black"/>
<rect x="258.639" y="0.5" width="48" height="72.8906" fill="#F1F0F0" stroke="#CCCCCC"/>
<path d="M278.588 28.1367L281.947 33.6445H282.064L285.443 28.1367H287.924L283.51 35.207L287.963 42.2773H285.443L282.064 36.8281H281.947L278.549 42.2773H276.049L280.561 35.207L276.068 28.1367H278.588Z" fill="#CCCCCC"/>
<rect x="306.639" y="0.945312" width="4" height="72" fill="black"/>
<rect x="310.639" y="0.5" width="48" height="72.8906" fill="#F1F0F0" stroke="#CCCCCC"/>
<path d="M330.588 28.1367L333.947 33.6445H334.064L337.443 28.1367H339.924L335.51 35.207L339.963 42.2773H337.443L334.064 36.8281H333.947L330.549 42.2773H328.049L332.561 35.207L328.068 28.1367H330.588Z" fill="#CCCCCC"/>
<rect x="358.639" y="0.5" width="260" height="72.8906" fill="#E7EFFD" stroke="#CCCCCC"/>
<path d="M434.558 42.2773L430.632 28.1367H432.897L435.651 39.0742H435.769L438.64 28.1367H440.866L443.737 39.0742H443.854L446.608 28.1367H448.874L444.948 42.2773H442.78L439.812 31.7109H439.694L436.726 42.2773H434.558ZM462.194 35.207C462.194 39.7285 459.479 42.4727 455.827 42.4727C452.146 42.4727 449.44 39.7188 449.44 35.207C449.44 30.6855 452.146 27.9414 455.827 27.9414C459.479 27.9414 462.194 30.6855 462.194 35.207ZM451.569 35.207C451.579 38.6445 453.386 40.5098 455.827 40.5C458.249 40.5098 460.056 38.6445 460.065 35.207C460.056 31.7695 458.249 29.9043 455.827 29.9141C453.386 29.9043 451.579 31.7695 451.569 35.207ZM464.616 42.2773V28.1367H469.655C472.946 28.1367 474.558 29.9629 474.558 32.5703C474.558 34.4746 473.698 35.9102 471.979 36.5645L475.104 42.2773H472.663L469.792 36.9453H469.655H466.765V42.2773H464.616ZM466.765 35.0898H469.44C471.521 35.0801 472.39 34.1621 472.39 32.5703C472.39 30.9785 471.521 29.9824 469.44 29.9727H466.765V35.0898ZM481.53 42.2773H476.94V28.1367H481.667C485.837 28.1367 488.317 30.7832 488.327 35.1875C488.317 39.6016 485.837 42.2773 481.53 42.2773ZM479.089 40.4023H481.413C484.616 40.3926 486.198 38.5273 486.198 35.1875C486.198 31.8574 484.616 30.0117 481.53 30.0117H479.089V40.4023ZM490.749 28.1367H493.366L497.839 39.0938H498.015L502.487 28.1367H505.104V42.2773H503.054V32.0625H502.917L498.776 42.2578H497.077L492.917 32.043H492.8V42.2773H490.749V28.1367ZM509.206 42.2773H506.921L511.999 28.1367H514.479L519.577 42.2773H517.292L516.003 38.5469H510.495L509.206 42.2773ZM511.11 36.75H515.378L513.288 30.7148H513.19L511.11 36.75ZM521.374 42.2773V28.1367H526.413C529.704 28.1367 531.315 29.9629 531.315 32.5703C531.315 34.4746 530.456 35.9102 528.737 36.5645L531.862 42.2773H529.421L526.55 36.9453H526.413H523.522V42.2773H521.374ZM523.522 35.0898H526.198C528.278 35.0801 529.147 34.1621 529.147 32.5703C529.147 30.9785 528.278 29.9824 526.198 29.9727H523.522V35.0898ZM533.698 42.2773V28.1367H535.847V34.875H536.022L541.94 28.1367H544.636L538.933 34.5039L544.655 42.2773H542.058L537.507 35.9688L535.847 37.8828V42.2773H533.698Z" fill="#CCCCCC"/>
<path d="M275.116 90.1094C274.929 89.4062 274.39 88.9453 273.397 88.9375C272.351 88.9453 271.608 89.5078 271.601 90.2188C271.608 90.7812 272.062 91.1641 273.054 91.4062L274.319 91.7188C275.835 92.0781 276.577 92.8359 276.585 94.0156C276.577 95.4844 275.382 96.5703 273.257 96.5625C271.351 96.5703 270.218 95.7188 269.991 94.1719H271.397C271.554 95 272.155 95.3984 273.226 95.3906C274.437 95.3984 275.194 94.8906 275.194 94.0938C275.194 93.4922 274.765 93.1016 273.804 92.875L272.522 92.5781C271.046 92.2344 270.257 91.4297 270.257 90.2969C270.257 88.8438 271.53 87.7969 273.397 87.7969C275.155 87.7969 276.257 88.7344 276.429 90.1094H275.116ZM282.038 87.9062V89.0312H280.257V93.9531C280.249 95.0391 280.796 95.2188 281.366 95.2188C281.608 95.2188 281.968 95.1953 282.163 95.1875V96.4375C281.952 96.4688 281.624 96.5 281.226 96.5C280.093 96.5 278.905 95.7969 278.897 94.2969V89.0312H277.616V87.9062H278.897V85.875H280.257V87.9062H282.038ZM283.772 96.3906V87.9062H285.069V89.2031H285.163C285.468 88.3438 286.351 87.7734 287.351 87.7656C287.554 87.7734 287.897 87.7812 288.054 87.7969V89.1562C287.952 89.1328 287.593 89.0625 287.241 89.0625C286.022 89.0625 285.116 89.9062 285.116 91.0469V96.3906H283.772ZM292.554 96.5625C290.241 96.5703 288.679 94.8203 288.679 92.1875C288.679 89.5391 290.241 87.7969 292.554 87.7969C294.858 87.7969 296.405 89.5391 296.397 92.1875C296.405 94.8203 294.858 96.5703 292.554 96.5625ZM290.022 92.1875C290.03 93.8828 290.827 95.375 292.554 95.375C294.265 95.375 295.054 93.8828 295.054 92.1875C295.054 90.5 294.265 88.9844 292.554 88.9844C290.827 88.9844 290.03 90.5 290.022 92.1875ZM298.163 96.3906V85.0781H299.507V91.6562H299.663L303.335 87.9062H304.991L301.413 91.5391L305.257 96.3906H303.554L300.405 92.3906L299.507 93.2266V96.3906H298.163ZM309.632 96.5625C307.179 96.5703 305.663 94.8203 305.663 92.2188C305.663 89.6094 307.202 87.7969 309.507 87.7969C311.288 87.7969 313.171 88.8906 313.163 92.0312V92.5938H307.007C307.077 94.3906 308.124 95.375 309.632 95.375C310.647 95.375 311.288 94.9297 311.601 94.4062H313.038C312.64 95.6953 311.382 96.5703 309.632 96.5625ZM307.015 91.4531H311.804C311.796 90.0391 310.905 88.9844 309.507 88.9844C308.038 88.9844 307.108 90.1406 307.015 91.4531ZM315.866 96.4844C315.319 96.4766 314.851 96.0234 314.866 95.4688C314.851 94.9219 315.319 94.4688 315.866 94.4688C316.421 94.4688 316.874 94.9219 316.866 95.4688C316.874 96.0234 316.421 96.4766 315.866 96.4844ZM314.866 89.1875C314.851 88.6406 315.319 88.1875 315.866 88.1875C316.421 88.1875 316.874 88.6406 316.866 89.1875C316.874 89.7422 316.421 90.1953 315.866 90.2031C315.319 90.1953 314.851 89.7422 314.866 89.1875ZM322.694 94.0781V92.9219L327.788 85.0781H329.522V92.8438H331.101V94.0781H329.522V96.3906H328.179V94.0781H322.694ZM324.21 92.8438H328.179V86.8594H328.038L324.21 92.75V92.8438ZM332.976 99.5781V87.9062H334.272V89.25H334.429C334.718 88.7969 335.233 87.7969 336.882 87.7969C339.015 87.7969 340.491 89.4844 340.491 92.1719C340.491 94.8672 339.015 96.5703 336.897 96.5625C335.28 96.5703 334.718 95.5625 334.429 95.0938H334.319V99.5781H332.976ZM334.288 92.1406C334.296 94.0469 335.147 95.3594 336.71 95.3594C338.319 95.3594 339.147 93.9453 339.147 92.1406C339.147 90.3672 338.343 89 336.71 89C335.124 89 334.296 90.2578 334.288 92.1406ZM342.897 87.9062L344.897 91.3594L346.913 87.9062H348.46L345.726 92.1406L348.46 96.3906H346.929L344.897 93.1094L342.897 96.3906H341.351L344.022 92.1406L341.351 87.9062H342.897Z" fill="#CCCCCC"/>
<defs>
<linearGradient id="paint0_linear_4060_1494" x1="36.2544" y1="28.1367" x2="36.2544" y2="64.6577" gradientUnits="userSpaceOnUse">
<stop stop-color="#3A79EE"/>
<stop offset="1" stop-color="#669CF9"/>
</linearGradient>
<linearGradient id="paint1_linear_4060_1494" x1="36.2544" y1="28.1367" x2="36.2544" y2="64.6577" gradientUnits="userSpaceOnUse">
<stop stop-color="#669CF9"/>
<stop offset="1" stop-color="#3A79EE"/>
</linearGradient>
<linearGradient id="paint2_linear_4060_1494" x1="41.1543" y1="5.27344" x2="41.1543" y2="59.3422" gradientUnits="userSpaceOnUse">
<stop offset="0.384615" stop-color="#3A79EE"/>
<stop offset="1" stop-color="#669CF9"/>
</linearGradient>
<linearGradient id="paint3_linear_4060_1494" x1="27.0854" y1="9.29688" x2="27.0854" y2="45.8179" gradientUnits="userSpaceOnUse">
<stop offset="0.298077" stop-color="#3A79EE"/>
<stop offset="1" stop-color="#669CF9"/>
</linearGradient>
<linearGradient id="paint4_linear_4060_1494" x1="33.8687" y1="9.52357" x2="11.4357" y2="62.7469" gradientUnits="userSpaceOnUse">
<stop stop-color="#669CF9"/>
<stop offset="0.79807" stop-color="#3A79EE"/>
</linearGradient>
<linearGradient id="paint5_linear_4060_1494" x1="20.3603" y1="28.0999" x2="34.1622" y2="66.1216" gradientUnits="userSpaceOnUse">
<stop stop-color="#6298F8"/>
<stop offset="0.605769" stop-color="#4B87F3"/>
</linearGradient>
<clipPath id="clip0_4060_1494">
<rect width="63.3402" height="63.3402" fill="white" transform="translate(0 5.27344)"/>
</clipPath>
</defs>
</svg>
