<svg width="64" height="64" viewBox="0 0 64 64" fill="none" xmlns="http://www.w3.org/2000/svg">
<path d="M59.0976 44.3546C59.0976 48.6285 43.1275 52.5997 30.3058 52.5997C17.484 52.5997 20.6326 39.6552 20.6326 35.3813C20.6326 31.1074 23.8685 36.5421 36.6902 36.5421C49.5119 36.5421 59.0976 40.0807 59.0976 44.3546Z" fill="#D9EAFA"/>
<path d="M48.4164 43.1537L33.684 50.8758C30.9439 52.3121 27.6226 52.269 24.8175 50.7619L10.3558 42.9909C9.66594 42.6198 9.67522 40.1984 10.371 39.8881L29.085 33.8283C29.3262 33.7212 29.6054 33.7237 29.8517 33.8376L48.3262 40.0491C49.038 40.3764 49.0911 42.8003 48.4164 43.1537Z" fill="#054EC4"/>
<path d="M48.4164 41.5356L33.684 49.2577C30.9439 50.694 27.6226 50.651 24.8175 49.1439L10.3558 41.3729C9.66594 41.0018 9.67522 40.015 10.371 39.7055L29.085 32.2111C29.3262 32.104 29.6054 32.1065 29.8517 32.2204L48.3262 39.8666C49.038 40.1938 49.0911 41.1831 48.4164 41.5365V41.5356Z" fill="#177BF5"/>
<path d="M29.3682 45.7422C36.8213 45.7422 42.8633 43.3139 42.8633 40.3184C42.8633 37.3229 36.8213 34.8945 29.3682 34.8945C21.915 34.8945 15.873 37.3229 15.873 40.3184C15.873 43.3139 21.915 45.7422 29.3682 45.7422Z" fill="#054EC4"/>
<path d="M27.5904 12.9303C27.5904 12.9303 17.5448 37.7902 17.5313 37.8247C15.3418 43.2427 26.2494 44.1409 29.3531 44.1409C32.5884 44.1409 43.4976 43.6231 41.1716 37.7758C37.8781 29.4971 34.5855 21.2192 31.2921 12.9405C30.6275 11.2697 28.2643 11.263 27.5904 12.9303Z" fill="#177BF5"/>
<path d="M25.0015 19.2891L22.7227 24.9001C24.1353 25.348 26.2969 25.8717 28.9823 25.9122C32.0067 25.9578 34.59 25.3724 36.0794 24.9001C35.721 23.9648 34.2012 20.2244 33.8428 19.2891C33.1461 19.6104 31.0908 20.2193 29.0287 20.1544C27.3115 20.1004 25.6804 19.6028 25.0015 19.2891Z" fill="#549DFF"/>
<path d="M20.5576 30.3281L18.3926 35.7208C20.3872 36.6839 24.2634 38.2332 29.3676 38.2383C34.5022 38.2442 38.4012 36.6848 40.3984 35.7208C39.6266 33.8881 39.0709 32.2494 38.2342 30.3281C36.4994 31.104 33.27 32.2755 29.0851 32.2156C25.2342 32.16 22.2519 31.0863 20.5584 30.3281H20.5576Z" fill="#549DFF"/>
</svg>
