<svg width="64" height="64" viewBox="0 0 64 64" fill="none" xmlns="http://www.w3.org/2000/svg">
<g clip-path="url(#clip0_4438_856)">
<path d="M31.9429 52.7047L57.8192 28.3107L45.3413 14.875H31.9429H18.5444L6.06543 28.3107L31.9429 52.7047Z" fill="#549DFF"/>
<path d="M18.5444 14.875H45.3413L57.8192 28.3107H6.06543L18.5444 14.875Z" fill="#177BF5"/>
<path d="M16.0957 28.3125H27.8501L31.9427 52.7065L16.0957 28.3125Z" fill="#177BF5"/>
<path d="M45.5727 28.3125L31.9434 52.7065L48.9173 28.3125H45.5727Z" fill="#177BF5"/>
<path d="M27.8505 28.3107L40.4306 14.875H20.7081L20.2559 28.3107H27.8505Z" fill="#549DFF"/>
<path d="M39.8346 45.3292L31.943 52.6972L24.0515 45.3292L19.0958 56.6483C18.7266 57.4922 19.3448 58.4371 20.2653 58.4371H42.6365C43.5165 58.4371 44.1326 57.5677 43.8411 56.7366L39.8335 45.3281L39.8346 45.3292Z" fill="black"/>
<path d="M25.9022 7.79449C25.8267 7.75512 25.7532 7.71468 25.6798 7.67212C25.1499 7.36778 24.7136 7.14431 24.3209 7.00385C24.1805 6.61118 23.957 6.17489 23.6527 5.64496C23.6101 5.57153 23.5697 5.49704 23.5303 5.42255C23.4558 5.28102 23.2909 5.28102 23.2164 5.42255C23.177 5.49811 23.1366 5.57153 23.094 5.64496C22.7897 6.17489 22.5662 6.61118 22.4257 7.00385C22.0331 7.14431 21.5968 7.36778 21.0668 7.67212C20.9934 7.71468 20.9189 7.75512 20.8444 7.79449C20.7029 7.86898 20.7029 8.03392 20.8444 8.10841C20.92 8.14778 20.9934 8.18822 21.0668 8.23078C21.5968 8.53512 22.0331 8.75859 22.4257 8.89906C22.5662 9.29172 22.7897 9.72801 23.094 10.2579C23.1366 10.3314 23.177 10.4059 23.2164 10.4803C23.2909 10.6219 23.4558 10.6219 23.5303 10.4803C23.5697 10.4048 23.6101 10.3314 23.6527 10.2579C23.957 9.72801 24.1805 9.29172 24.3209 8.89906C24.7136 8.75859 25.1499 8.53512 25.6798 8.23078C25.7532 8.18822 25.8277 8.14778 25.9022 8.10841C26.0438 8.03392 26.0438 7.86898 25.9022 7.79449Z" fill="black"/>
<path d="M52.6113 38.0443C52.5017 37.9869 52.3932 37.9273 52.2868 37.8656C51.5121 37.4208 50.8757 37.0951 50.3022 36.8898C50.0968 36.3162 49.7712 35.6799 49.3264 34.9052C49.2647 34.7977 49.2051 34.6902 49.1476 34.5806C49.0391 34.3742 48.7975 34.3742 48.689 34.5806C48.6315 34.6902 48.5719 34.7988 48.5102 34.9052C48.0654 35.6799 47.7398 36.3162 47.5344 36.8898C46.9608 37.0951 46.3245 37.4208 45.5498 37.8656C45.4423 37.9273 45.3348 37.9869 45.2242 38.0443C45.0177 38.1529 45.0177 38.3944 45.2242 38.503C45.3338 38.5604 45.4423 38.62 45.5498 38.6818C46.3245 39.1266 46.9608 39.4522 47.5344 39.6576C47.7398 40.2311 48.0654 40.8675 48.5102 41.6422C48.5719 41.7496 48.6315 41.8571 48.689 41.9667C48.7975 42.1732 49.0391 42.1732 49.1476 41.9667C49.2051 41.8571 49.2647 41.7486 49.3264 41.6422C49.7712 40.8675 50.0968 40.2311 50.3022 39.6576C50.8757 39.4522 51.5121 39.1266 52.2868 38.6818C52.3943 38.62 52.5017 38.5604 52.6113 38.503C52.8178 38.3944 52.8178 38.1529 52.6113 38.0443Z" fill="black"/>
<path d="M23.5252 13.5002C23.357 13.4118 23.191 13.3203 23.0272 13.2267C21.8396 12.5446 20.8638 12.0455 19.9848 11.7305C19.6698 10.8515 19.1708 9.87574 18.4887 8.68817C18.3939 8.5243 18.3035 8.35829 18.2152 8.19016C18.0492 7.87411 17.6789 7.87411 17.5128 8.19016C17.4245 8.35829 17.333 8.5243 17.2394 8.68817C16.5573 9.87574 16.0582 10.8515 15.7432 11.7305C14.8642 12.0455 13.8884 12.5446 12.7009 13.2267C12.537 13.3214 12.371 13.4118 12.2029 13.5002C11.8868 13.6662 11.8868 14.0365 12.2029 14.2025C12.371 14.2908 12.537 14.3823 12.7009 14.476C13.8884 15.1581 14.8642 15.6571 15.7432 15.9721C16.0582 16.8511 16.5573 17.8269 17.2394 19.0145C17.3341 19.1783 17.4245 19.3443 17.5128 19.5125C17.6789 19.8285 18.0492 19.8285 18.2152 19.5125C18.3035 19.3443 18.395 19.1783 18.4887 19.0145C19.1708 17.8269 19.6698 16.8511 19.9848 15.9721C20.8638 15.6571 21.8396 15.1581 23.0272 14.476C23.191 14.3812 23.357 14.2908 23.5252 14.2025C23.8412 14.0365 23.8412 13.6662 23.5252 13.5002Z" fill="black"/>
</g>
<defs>
<clipPath id="clip0_4438_856">
<rect width="51.7538" height="53.118" fill="white" transform="translate(6.06543 5.31641)"/>
</clipPath>
</defs>
</svg>
