<svg width="64" height="64" viewBox="0 0 64 64" fill="none" xmlns="http://www.w3.org/2000/svg">
<g clip-path="url(#clip0_4438_808)">
<path d="M52.4187 17.6953H11.3668C10.6616 17.6953 10.0898 18.267 10.0898 18.9723V52.5976C10.0898 53.3029 10.6616 53.8746 11.3668 53.8746H52.4187C53.1239 53.8746 53.6956 53.3029 53.6956 52.5976V18.9723C53.6956 18.267 53.1239 17.6953 52.4187 17.6953Z" fill="#177BF5"/>
<path d="M33.985 32.9516V17.6952C33.985 17.46 33.7945 17.2695 33.5593 17.2695H33.5572H33.1337V17.2727L30.1179 17.2951C29.8828 17.2951 29.6923 17.4855 29.6923 17.7207V32.9505C29.6923 33.1857 29.5018 33.3762 29.2666 33.3762H9.57604C9.34087 33.3762 9.15039 33.5666 9.15039 33.8018V37.3219C9.15039 37.5571 9.34087 37.7476 9.57604 37.7476H29.2656C29.5008 37.7476 29.6912 37.9381 29.6912 38.1732V54.3001C29.6912 54.5353 29.8817 54.7257 30.1169 54.7257H33.5583C33.7934 54.7257 33.9839 54.5353 33.9839 54.3001V38.1732C33.9839 37.9381 34.1744 37.7476 34.4096 37.7476H54.2077C54.4428 37.7476 54.6333 37.5571 54.6333 37.3219V33.8018C54.6333 33.5666 54.4428 33.3762 54.2077 33.3762H34.4096C34.1744 33.3762 33.9839 33.1857 33.9839 32.9505L33.985 32.9516Z" fill="black"/>
<path d="M34.2271 17.6919H15.8252L20.6425 9.85569C21.1746 8.99055 22.4302 8.7756 23.2656 9.40769L34.2271 17.693" fill="black"/>
<path d="M31.913 17.6897L16.1522 19.5136C14.9062 19.6573 13.9091 18.5814 14.2655 17.4779L15.8628 12.5223C16.0139 12.052 16.4193 11.6806 16.9376 11.5593C17.4899 11.4294 18.1347 11.4848 18.6306 11.754L31.9141 17.6897H31.913Z" fill="black"/>
<path d="M29.5752 17.6919H47.9771L43.1598 9.85569C42.6278 8.99055 41.3721 8.7756 40.5368 9.40769L29.5752 17.693" fill="black"/>
<path d="M31.8907 17.6897L47.6515 19.5136C48.8976 19.6573 49.8947 18.5814 49.5382 17.4779L47.9409 12.5223C47.7898 12.052 47.3844 11.6806 46.8662 11.5593C46.3139 11.4294 45.669 11.4848 45.1731 11.754L31.8896 17.6897H31.8907Z" fill="black"/>
</g>
<defs>
<clipPath id="clip0_4438_808">
<rect width="45.484" height="45.6808" fill="white" transform="translate(9.15039 9.04297)"/>
</clipPath>
</defs>
</svg>
