<svg width="64" height="64" viewBox="0 0 64 64" fill="none" xmlns="http://www.w3.org/2000/svg">
<g clip-path="url(#clip0_4438_843)">
<path d="M47.2346 25.3971C47.8581 24.4767 47.6166 23.2242 46.6961 22.6006L46.0864 22.1877L47.0845 21.9951C48.1763 21.7844 48.8914 20.7288 48.6807 19.637C48.47 18.5452 47.4144 17.8301 46.3226 18.0408L45.4245 18.2143L45.7597 17.7195C46.3833 16.799 46.1417 15.5465 45.2212 14.9229C44.3008 14.2994 43.0483 14.5409 42.4247 15.4614L42.0863 15.9615L41.9118 15.0549C41.7011 13.9631 40.6455 13.248 39.5537 13.4587C38.4619 13.6694 37.7468 14.725 37.9575 15.8168L38.1501 16.8149L37.5404 16.4021C36.6199 15.7785 35.3674 16.02 34.7438 16.9405C34.1202 17.861 34.3618 19.1135 35.2823 19.737L38.1905 21.7057L38.1959 21.7089L39.2281 22.4069L40.4944 23.2646L41.5308 23.9669L44.4391 25.9356C45.3596 26.5592 46.612 26.3176 47.2356 25.3971H47.2346Z" fill="#177BF5"/>
<path d="M33.8018 11.8586L40.061 22.6957L52.3017 25.2996C53.9777 25.6561 54.6385 27.6928 53.4924 28.9655L45.1199 38.2671L46.4266 50.7142C46.6054 52.4178 44.873 53.6767 43.3077 52.9797L31.8736 47.891L20.4396 52.9797C18.8742 53.6767 17.1419 52.4178 17.3206 50.7142L18.6274 38.2671L10.2559 28.9655C9.10982 27.6928 9.77171 25.6561 11.4466 25.2996L23.6873 22.6957L29.9465 11.8586C30.8031 10.3752 32.9441 10.3752 33.8008 11.8586H33.8018Z" fill="black"/>
<path d="M37.8968 18.6203L15.9921 34.6756C15.518 35.023 15.4154 35.6889 15.7629 36.163L17.8055 38.9498C18.1529 39.4238 18.8188 39.5264 19.2928 39.1789L41.1976 23.1236C41.6716 22.7762 41.7742 22.1103 41.4268 21.6363L39.3842 18.8495C39.0367 18.3754 38.3708 18.2728 37.8968 18.6203Z" fill="#177BF5"/>
<path d="M19.2393 23.7821L29.4442 48.9924C29.5155 49.169 29.6762 49.2935 29.8646 49.3201L34.7723 49.9969C35.1756 50.0522 35.4895 49.6521 35.3395 49.2743L24.5971 22.1604C24.3779 21.6081 23.749 21.3421 23.1999 21.5698L19.5287 23.0915C19.2584 23.2032 19.1297 23.5118 19.2393 23.7832V23.7821Z" fill="#177BF5"/>
</g>
<defs>
<clipPath id="clip0_4438_843">
<rect width="44.3837" height="42.4289" fill="white" transform="translate(9.68262 10.7461)"/>
</clipPath>
</defs>
</svg>
