<svg width="64" height="64" viewBox="0 0 64 64" fill="none" xmlns="http://www.w3.org/2000/svg">
<g clip-path="url(#clip0_4438_876)">
<path d="M55.6603 12.0167L39.2185 17.6916C38.8908 17.8044 38.8088 18.2301 39.0706 18.4568L43.4058 22.2195L32.9529 34.2622C32.5911 34.6794 31.959 34.7241 31.5419 34.3623L25.0965 28.7713C24.7868 28.5032 24.3186 28.5362 24.0504 28.8458L6.25824 49.3452C5.99327 49.6495 6.02626 50.1113 6.3306 50.3763L9.64429 53.2526C9.94863 53.5176 10.4105 53.4846 10.6754 53.1803L24.6432 37.0886C24.9081 36.7842 25.3689 36.7512 25.6743 37.0162L28.4634 39.4371L32.1836 42.6667C32.5688 43.0008 33.153 42.9604 33.4871 42.5741L47.8241 26.0557L52.2072 29.8599C52.469 30.0866 52.8787 29.9461 52.9447 29.6056L56.2509 12.5285C56.3169 12.188 55.9891 11.9039 55.6625 12.0177L55.6603 12.0167Z" fill="#177BF5" stroke="#177BF5" stroke-width="1.06413" stroke-miterlimit="10"/>
</g>
<defs>
<clipPath id="clip0_4438_876">
<rect width="51.243" height="42.5044" fill="white" transform="translate(6.27832 10.6406)"/>
</clipPath>
</defs>
</svg>
