<svg width="64" height="64" viewBox="0 0 64 64" fill="none" xmlns="http://www.w3.org/2000/svg">
<g clip-path="url(#clip0_4438_885)">
<path d="M38.6297 14.464V25.7267C38.6297 26.3045 38.1615 26.7728 37.5836 26.7728H26.3209C25.7431 26.7728 25.2749 27.241 25.2749 27.8188V39.0815C25.2749 39.6593 24.8067 40.1276 24.2289 40.1276H12.964C12.3862 40.1276 11.918 40.5958 11.918 41.1736V52.4363C11.918 53.0141 12.3862 53.4824 12.964 53.4824H50.9384C51.5163 53.4824 51.9845 53.0141 51.9845 52.4363V14.464C51.9845 13.8862 51.5163 13.418 50.9384 13.418H39.6757C39.0979 13.418 38.6297 13.8862 38.6297 14.464Z" fill="black"/>
<path d="M25.8482 11.5795L28.8161 21.6047C28.9257 21.975 28.6533 22.3485 28.2659 22.3549C26.3441 22.3879 22.7931 22.7805 19.3517 25.1514C15.6337 27.7128 13.8928 31.3095 13.0755 34.0284C12.884 34.6647 11.9518 34.5445 11.9305 33.8805C11.8326 30.753 12.2689 26.3358 14.6387 21.7313C17.8087 15.5764 22.6952 12.467 25.0118 11.2294C25.3385 11.0549 25.7429 11.2241 25.8482 11.5795Z" fill="url(#paint0_linear_4438_885)"/>
<path d="M28.2328 22.4109C31.5715 22.4109 34.2781 19.7043 34.2781 16.3656C34.2781 13.0269 31.5715 10.3203 28.2328 10.3203C24.8941 10.3203 22.1875 13.0269 22.1875 16.3656C22.1875 19.7043 24.8941 22.4109 28.2328 22.4109Z" fill="#177BF5"/>
</g>
<defs>
<linearGradient id="paint0_linear_4438_885" x1="11.9188" y1="22.804" x2="28.8405" y2="22.804" gradientUnits="userSpaceOnUse">
<stop stop-color="#177BF5"/>
<stop offset="1" stop-color="white"/>
</linearGradient>
<clipPath id="clip0_4438_885">
<rect width="40.0665" height="43.1589" fill="white" transform="translate(11.918 10.3203)"/>
</clipPath>
</defs>
</svg>
