<svg width="64" height="64" viewBox="0 0 64 64" fill="none" xmlns="http://www.w3.org/2000/svg">
<g clip-path="url(#clip0_4438_800)">
<path d="M22.1255 10.4232C20.4646 11.3555 20.0619 13.5878 21.2731 15.0623C21.9852 15.9289 22.7669 16.816 23.6236 17.7096C25.988 20.1736 28.3696 22.1051 30.5262 23.6077C31.5382 24.3126 32.8746 24.3352 33.909 23.6648C36.1471 22.215 38.7396 20.1585 41.1683 17.2806C41.8419 16.4819 42.4448 15.6896 42.9834 14.919C43.9611 13.5177 43.613 11.5679 42.1995 10.6139C41.3193 10.02 40.1767 9.50806 38.7718 9.39165C36.9642 9.24182 35.1823 9.78615 33.7398 10.864C32.6626 11.6681 31.1891 11.6929 30.1086 10.892C29.2937 10.2874 28.2132 9.72579 26.8661 9.52207C25.2298 9.27524 23.57 9.61261 22.1244 10.4242L22.1255 10.4232Z" fill="#232323"/>
<path d="M32.0547 20.707C29.1944 22.077 25.4668 24.2565 21.8077 27.725C15.8196 33.3979 7.55585 44.8448 11.0468 50.7429C13.1425 54.2859 19.4026 54.2805 31.923 54.2697C44.3694 54.2589 50.5931 54.2535 52.7273 50.7429C56.3232 44.8276 48.4986 33.109 41.6634 26.9619C38.0396 23.7024 34.4501 21.7903 32.0557 20.707H32.0547Z" fill="#232323"/>
<path d="M34.5595 35.0515C34.3453 34.7928 34.0497 34.5966 33.6728 34.464C33.2959 34.3315 32.8515 34.2646 32.3407 34.2646C31.8299 34.2646 31.3898 34.3315 31.0235 34.464C30.6573 34.5966 30.3767 34.7809 30.184 35.0181C29.9902 35.2552 29.8938 35.5247 29.8938 35.8275C29.8799 36.2953 30.0876 36.6597 30.516 36.9216C30.9443 37.1835 31.5354 37.3937 32.2893 37.5511L33.6375 37.8442C35.0542 38.1407 36.1593 38.6117 36.9507 39.2562C37.742 39.9008 38.1382 40.7717 38.1382 41.8712C38.1382 42.7043 37.908 43.4308 37.4486 44.0495C36.9892 44.6682 36.3221 45.1436 35.4472 45.4755C34.5723 45.8075 33.5304 45.9724 32.3203 45.9724C31.1038 45.9789 30.0512 45.8097 29.1624 45.4658C28.2736 45.122 27.5829 44.6165 27.0882 43.9504C26.9661 43.7854 26.8579 43.6108 26.7637 43.4276C26.3032 42.5308 27.0218 41.5014 28.1066 41.5014H28.1869C28.7683 41.5014 29.293 41.814 29.5351 42.2969C29.5972 42.4198 29.6711 42.5351 29.7589 42.6429C30.0148 42.9555 30.3585 43.1894 30.7912 43.3435C31.2227 43.4987 31.7228 43.5753 32.2893 43.5753C32.8558 43.5753 33.3023 43.503 33.7103 43.3575C34.1183 43.212 34.4331 43.0105 34.6537 42.7518C34.8754 42.4931 34.9857 42.1924 34.9857 41.8518C34.9857 41.5489 34.8893 41.2902 34.6955 41.0746C34.5016 40.8601 34.22 40.6801 33.8506 40.5346C33.4811 40.3891 33.0057 40.25 32.4242 40.1175L30.7751 39.7575C29.4612 39.461 28.4524 39.0073 27.7467 38.3983C27.0411 37.7893 26.692 36.9949 26.6995 36.0162C26.6995 35.2013 26.9415 34.4781 27.4255 33.8464C27.9095 33.2148 28.582 32.7287 29.443 32.387C30.3039 32.0453 31.2805 31.875 32.3728 31.875C33.4651 31.875 34.431 32.0475 35.2716 32.3913C36.1111 32.7351 36.7633 33.2202 37.2259 33.8453C37.2387 33.8637 37.2516 33.8809 37.2644 33.8992C37.9059 34.7971 37.1927 35.9871 36.0201 35.9871C35.4675 35.9871 34.9685 35.7025 34.7072 35.2574C34.6644 35.1841 34.6152 35.1151 34.5605 35.0482L34.5595 35.0515Z" fill="#177BF5"/>
<path d="M32.3772 29.4414H31.9435C31.4278 29.4414 31.0098 29.8622 31.0098 30.3813V33.2236C31.0098 33.7427 31.4278 34.1635 31.9435 34.1635H32.3772C32.8929 34.1635 33.311 33.7427 33.311 33.2236V30.3813C33.311 29.8622 32.8929 29.4414 32.3772 29.4414Z" fill="#177BF5"/>
<path d="M32.3772 43.7734H31.9435C31.4278 43.7734 31.0098 44.1942 31.0098 44.7133V47.5072C31.0098 48.0263 31.4278 48.4471 31.9435 48.4471H32.3772C32.8929 48.4471 33.311 48.0263 33.311 47.5072V44.7133C33.311 44.1942 32.8929 43.7734 32.3772 43.7734Z" fill="#177BF5"/>
<path d="M36.5251 20.8594H27.5868C26.7606 20.8594 26.0908 21.5335 26.0908 22.3652C26.0908 23.1968 26.7606 23.8709 27.5868 23.8709H36.5251C37.3513 23.8709 38.0211 23.1968 38.0211 22.3652C38.0211 21.5335 37.3513 20.8594 36.5251 20.8594Z" fill="#177BF5"/>
</g>
<defs>
<clipPath id="clip0_4438_800">
<rect width="43.4164" height="44.9062" fill="white" transform="translate(10.2158 9.36719)"/>
</clipPath>
</defs>
</svg>
