<svg width="64" height="64" viewBox="0 0 64 64" fill="none" xmlns="http://www.w3.org/2000/svg">
<g clip-path="url(#clip0_4438_907)">
<path d="M53.6326 29.5141C53.5674 28.8546 53.3242 27.4017 52.1748 26.3088C51.5757 25.7392 50.7158 25.2542 48.6546 24.981C45.6251 24.5793 44.0469 25.1708 41.2042 25.3376C39.8326 25.4177 37.8056 25.421 35.2901 24.981C35.7156 24.5991 36.308 24.0383 36.9678 23.3163C38.7495 21.3652 40.3885 19.571 40.8505 17.0087C41.0052 16.1527 41.4683 13.5794 39.8801 12.0761C38.7804 11.0369 37.285 11.0665 36.9778 11.0665C33.9373 11.0797 32.2241 14.1259 32.1424 14.2763C31.1454 16.1143 30.8371 16.3393 28.9582 19.3351C26.9455 22.5437 25.9099 24.1645 24.4786 24.981C22.5047 26.1068 21.3796 25.5307 19.9704 26.7938C18.5944 28.0283 18.2385 29.8631 18.1445 31.17V46.3487C18.3247 46.7821 18.5778 47.3176 18.9326 47.9014C18.9326 47.9014 19.5648 48.9406 20.3318 49.7483C21.7896 51.2835 24.2278 51.853 24.8367 51.9957C27.7778 52.6826 35.0149 53.0546 44.5652 52.5378C47.315 52.5378 49.5443 50.5087 49.5443 48.0057C49.5443 47.7741 49.5255 47.5459 49.4879 47.3231C51.8399 46.961 53.6315 45.0999 53.6315 42.8558C53.6315 41.5258 53.0026 40.3297 52.0001 39.5012C53.0026 38.6716 53.6315 37.4754 53.6315 36.1466C53.6315 34.8177 53.0203 33.6577 52.0455 32.8303C53.0214 32.0029 53.6315 30.8233 53.6315 29.5141H53.6326Z" fill="#177BF5"/>
<path d="M16.5084 26.1367H12.9263C11.3118 26.1367 10.0029 27.4362 10.0029 29.0392V48.7137C10.0029 50.3167 11.3118 51.6162 12.9263 51.6162H16.5084C18.1229 51.6162 19.4317 50.3167 19.4317 48.7137V29.0392C19.4317 27.4362 18.1229 26.1367 16.5084 26.1367Z" fill="black"/>
</g>
<defs>
<clipPath id="clip0_4438_907">
<rect width="43.6292" height="41.7138" fill="white" transform="translate(10.0029 11.0664)"/>
</clipPath>
</defs>
</svg>
