<svg width="64" height="64" viewBox="0 0 64 64" fill="none" xmlns="http://www.w3.org/2000/svg">
<g style="mix-blend-mode:multiply">
<path d="M9.17059 47.4458L17.0708 16.2328C17.0983 16.1236 17.1967 16.0469 17.3099 16.0469H22.2257L14.2645 47.5019C14.1986 47.7627 13.9634 47.9457 13.6948 47.9457H9.56023C9.2985 47.9457 9.10663 47.6997 9.17059 47.4458Z" fill="#232323"/>
</g>
<path d="M9.02122 36.2764H44.3491C44.8244 36.2764 45.2347 35.9645 45.3311 35.5286L46.3869 30.7741C46.5168 30.1916 46.0405 29.6445 45.4049 29.6445H10.2285C9.7641 29.6445 9.3597 29.9427 9.25244 30.3658L8.04513 35.1212C7.89557 35.7106 8.37377 36.2764 9.02122 36.2764Z" fill="#232323"/>
<path d="M11.2611 26.6045H44.3151C44.7598 26.6045 45.1436 26.2926 45.2341 25.8567L46.222 21.1022C46.343 20.5197 45.8983 19.9727 45.303 19.9727H12.3907C11.9558 19.9727 11.5779 20.2708 11.4776 20.6939L10.348 25.4484C10.2083 26.0378 10.655 26.6035 11.2611 26.6035V26.6045Z" fill="#232323"/>
<path d="M29.7442 47.9457H26.4992C26.3043 47.9457 26.1341 47.8138 26.0869 47.6249L18.228 16.5772C18.1601 16.3086 18.3628 16.0469 18.6403 16.0469H21.8854C22.0802 16.0469 22.2504 16.1787 22.2977 16.3676L30.1555 47.4153C30.2234 47.684 30.0207 47.9457 29.7433 47.9457H29.7442Z" fill="black"/>
<g style="mix-blend-mode:multiply">
<path d="M32.8005 47.4458L40.6997 16.2328C40.7272 16.1236 40.8256 16.0469 40.9388 16.0469H45.8546L37.8934 47.5019C37.8275 47.7627 37.5923 47.9457 37.3237 47.9457H33.1891C32.9274 47.9457 32.7355 47.6997 32.7995 47.4458H32.8005Z" fill="#232323"/>
</g>
<path d="M37.8922 47.5098L45.8553 16.0469H41.7316L33.6582 47.9457H37.3323C37.597 47.9457 37.8272 47.7666 37.8922 47.5098Z" fill="black"/>
<path d="M53.3731 47.9457H50.1281C49.9332 47.9457 49.763 47.8138 49.7158 47.6249L41.8569 16.5772C41.789 16.3086 41.9917 16.0469 42.2692 16.0469H45.5143C45.7091 16.0469 45.8793 16.1787 45.9266 16.3676L53.7844 47.4153C53.8523 47.684 53.6496 47.9457 53.3722 47.9457H53.3731Z" fill="black"/>
<path d="M53.8663 47.9457H50.8761L42.8018 16.0469H46.5368C46.7651 16.0469 46.9649 16.2023 47.021 16.4237L54.7214 46.8476C54.8621 47.4045 54.441 47.9457 53.8663 47.9457Z" fill="#232323"/>
<path d="M14.2623 47.5098L22.2254 16.0469H18.1017L10.0283 47.9457H13.7024C13.9671 47.9457 14.1973 47.7666 14.2623 47.5098Z" fill="black"/>
<path d="M49.0336 27.5889H15.9796C15.5348 27.5889 15.1511 27.277 15.0606 26.8411L14.0727 22.0866C13.9517 21.5041 14.3964 20.957 14.9917 20.957H47.905C48.3399 20.957 48.7177 21.2552 48.8181 21.6783L49.9477 26.4327C50.0874 27.0221 49.6407 27.5879 49.0346 27.5879L49.0336 27.5889Z" fill="#054EC4"/>
<path d="M30.2374 47.9457H27.2472L19.1729 16.0469H22.9079C23.1362 16.0469 23.336 16.2023 23.392 16.4237L31.0925 46.8476C31.2332 47.4045 30.8121 47.9457 30.2374 47.9457Z" fill="#232323"/>
<path d="M51.0443 37.2608H17.9894C17.5446 37.2608 17.1609 36.9488 17.0703 36.513L16.0825 31.7585C15.9614 31.176 16.4062 30.6289 17.0015 30.6289H49.9147C50.3497 30.6289 50.7275 30.927 50.8279 31.3501L51.9574 36.1046C52.0972 36.694 51.6504 37.2598 51.0443 37.2598V37.2608Z" fill="#054EC4"/>
<path d="M38.2412 20.957L39.7732 27.5879H44.3467L42.8146 20.957H38.2412Z" fill="#054EC4"/>
<path d="M28.917 20.957L30.449 27.5879H35.0952L33.5632 20.957H28.917Z" fill="#054EC4"/>
<path d="M19.5918 20.957L21.1238 27.5879H25.77L24.238 20.957H19.5918Z" fill="#054EC4"/>
<path d="M47.4941 20.958L49.0262 27.5889H53.1224C53.3998 27.5889 53.6291 27.2612 53.5602 26.9631L52.2752 21.4008C52.2132 21.1322 52.0095 20.957 51.7596 20.957H47.4941V20.958Z" fill="#054EC4"/>
<path d="M15.0561 21.574L16.3372 27.1205C16.4022 27.4029 16.6176 27.5879 16.8804 27.5879H21.1232L19.5912 20.957H15.4871C15.2135 20.957 14.9872 21.2798 15.0551 21.574H15.0561Z" fill="#177BF5"/>
<path d="M24.2373 20.957L25.7693 27.5879H30.448L28.916 20.957H24.2373Z" fill="#177BF5"/>
<path d="M33.5625 20.957L35.0945 27.5879H39.7732L38.2412 20.957H33.5625Z" fill="#177BF5"/>
<path d="M42.8154 20.957L44.3474 27.5879H49.0261L47.4941 20.957H42.8154Z" fill="#177BF5"/>
<path d="M40.4922 30.5625L42.0399 37.1934H46.6586L45.1109 30.5625H40.4922Z" fill="#054EC4"/>
<path d="M31.0771 30.5625L32.6239 37.1934H37.3154L35.7686 30.5625H31.0771Z" fill="#054EC4"/>
<path d="M21.6602 30.5625L23.2069 37.1934H27.8984L26.3517 30.5625H21.6602Z" fill="#054EC4"/>
<path d="M49.8359 30.5635L51.3827 37.1944H55.5183C55.7987 37.1944 56.0299 36.8667 55.9611 36.5686L54.6632 31.0063C54.6003 30.7376 54.3946 30.5625 54.1427 30.5625H49.835L49.8359 30.5635Z" fill="#054EC4"/>
<path d="M17.0807 31.1794L18.3746 36.726C18.4406 37.0084 18.657 37.1934 18.9237 37.1934H23.2088L21.662 30.5625H17.5176C17.2411 30.5625 17.0129 30.8852 17.0817 31.1794H17.0807Z" fill="#177BF5"/>
<path d="M26.3516 30.5625L27.8983 37.1934H32.6233L31.0765 30.5625H26.3516Z" fill="#177BF5"/>
<path d="M35.7686 30.5625L37.3153 37.1934H42.0403L40.4925 30.5625H35.7686Z" fill="#177BF5"/>
<path d="M45.1113 30.5625L46.6591 37.1934H51.3831L49.8363 30.5625H45.1113Z" fill="#177BF5"/>
</svg>
