<svg width="240" height="142" viewBox="0 0 240 142" fill="none" xmlns="http://www.w3.org/2000/svg">
<g clip-path="url(#clip0_4061_11970)">
<rect width="240" height="142" rx="6.91892" fill="url(#paint0_linear_4061_11970)"/>
<g clip-path="url(#clip1_4061_11970)">
<path d="M57.9452 57.196C57.4757 55.3891 55.6283 54.3052 53.8214 54.7748L52.6248 55.086L53.4884 53.6137C54.4331 52.0032 53.8946 49.9311 52.2841 48.9864C50.6736 48.0418 48.6015 48.5803 47.6569 50.1908L46.8799 51.5157L46.6275 50.5444C46.158 48.7376 44.3106 47.6537 42.5038 48.1232C40.6969 48.5927 39.613 50.4401 40.0825 52.2469L40.3381 53.2282L39.0013 52.4431C37.3908 51.4985 35.3187 52.037 34.374 53.6475C33.4294 55.258 33.9679 57.3301 35.5784 58.2747L37.0507 59.1384L35.854 59.4496C34.0472 59.9192 32.9633 61.7665 33.4328 63.5734C33.9023 65.3802 35.7497 66.4641 37.5565 65.9946L43.2634 64.5093L43.2733 64.5062L45.298 63.9783L47.7835 63.3322L49.8183 62.8036L55.5251 61.3184C57.332 60.8489 58.4159 59.0015 57.9464 57.1946L57.9452 57.196Z" fill="#177BF5"/>
<path d="M25.9809 59.1282L46.5869 63.2487L63.441 50.6983C65.7486 48.9798 69.0498 50.4044 69.3843 53.2606L71.8329 74.1314L88.9791 86.2825C91.3259 87.9457 90.9929 91.5261 88.3785 92.7275L69.2851 101.506L63.0266 121.567C62.1703 124.314 58.6621 125.103 56.7117 122.989L42.4629 107.542L21.4516 107.788C18.5761 107.822 16.7412 104.73 18.1485 102.222L28.4348 83.8982L21.7068 63.9903C20.7857 61.2655 23.1593 58.5654 25.9797 59.1296L25.9809 59.1282Z" fill="black"/>
<path d="M39.0456 61.4601L35.0097 106.884C34.9224 107.867 35.6484 108.735 36.6314 108.822L42.4104 109.336C43.3933 109.423 44.261 108.697 44.3483 107.714L48.3843 62.2899C48.4716 61.3069 47.7455 60.4393 46.7626 60.3519L40.9836 59.8385C40.0006 59.7511 39.133 60.4772 39.0456 61.4601Z" fill="#177BF5"/>
<path d="M24.8707 90.7125L67.9777 105.791C68.2795 105.897 68.6147 105.832 68.857 105.624L75.1514 100.185C75.6683 99.7379 75.5117 98.8985 74.8689 98.6689L28.7653 82.1576C27.8258 81.8218 26.7931 82.32 26.4716 83.2649L24.3206 89.5818C24.1619 90.0466 24.4084 90.551 24.8721 90.7136L24.8707 90.7125Z" fill="#177BF5"/>
</g>
<g clip-path="url(#clip2_4061_11970)">
<path d="M196.791 59.019L200.827 63.6932L206.49 61.2334C208.333 60.433 210.456 61.4564 210.98 63.3955L212.587 69.3564L218.756 69.5973C220.764 69.6751 222.233 71.5185 221.863 73.4935L220.725 79.5622L226.179 82.4558C227.953 83.397 228.478 85.6952 227.287 87.3141L223.629 92.2875L227.287 97.261C228.478 98.8799 227.953 101.178 226.179 102.119L220.725 105.013L221.863 111.082C222.234 113.057 220.764 114.9 218.756 114.978L212.587 115.219L210.98 121.18C210.456 123.12 208.333 124.142 206.49 123.342L200.827 120.882L196.791 125.556C195.479 127.076 193.121 127.076 191.809 125.556L187.773 120.882L182.11 123.342C180.267 124.142 178.144 123.119 177.62 121.18L176.013 115.219L169.844 114.978C167.836 114.9 166.367 113.057 166.737 111.082L167.875 105.013L162.422 102.119C160.647 101.178 160.122 98.8799 161.313 97.261L164.971 92.2875L161.313 87.3141C160.122 85.6952 160.647 83.397 162.422 82.4558L167.875 79.5622L166.737 73.4935C166.366 71.5185 167.836 69.6751 169.844 69.5973L176.013 69.3564L177.62 63.3955C178.144 61.4549 180.267 60.433 182.11 61.2334L187.773 63.6932L191.809 59.019C193.121 57.4989 195.479 57.4989 196.791 59.019Z" fill="black"/>
<path d="M224.779 90.7891H163.821C163.408 90.7891 163.073 91.124 163.073 91.5372V93.0334C163.073 93.4466 163.408 93.7815 163.821 93.7815H224.779C225.192 93.7815 225.527 93.4466 225.527 93.0334V91.5372C225.527 91.124 225.192 90.7891 224.779 90.7891Z" fill="#177BF5"/>
<path d="M211.999 67.4271L174.252 115.291C173.996 115.616 174.052 116.086 174.376 116.342L175.551 117.269C175.876 117.525 176.346 117.469 176.602 117.144L214.349 69.2801C214.605 68.9556 214.549 68.4852 214.225 68.2294L213.05 67.3029C212.725 67.047 212.255 67.1026 211.999 67.4271Z" fill="#177BF5"/>
<path d="M174.25 69.2825L211.997 117.147C212.253 117.471 212.723 117.527 213.047 117.271L214.222 116.345C214.547 116.089 214.602 115.618 214.346 115.294L176.6 67.4295C176.344 67.1051 175.873 67.0495 175.549 67.3053L174.374 68.2318C174.05 68.4877 173.994 68.9581 174.25 69.2825Z" fill="#177BF5"/>
<path d="M194.3 100.906C199.058 100.906 202.915 97.0491 202.915 92.291C202.915 87.533 199.058 83.6758 194.3 83.6758C189.542 83.6758 185.685 87.533 185.685 92.291C185.685 97.0491 189.542 100.906 194.3 100.906Z" fill="#549DFF"/>
</g>
<g clip-path="url(#clip3_4061_11970)">
<path d="M124.871 87.9462L169.357 46.0085L147.905 22.9102H124.871H101.836L80.3828 46.0085L124.871 87.9462Z" fill="#549DFF"/>
<path d="M101.836 22.9102H147.905L169.357 46.0085H80.3828L101.836 22.9102Z" fill="#177BF5"/>
<path d="M97.627 46.0078H117.835L124.871 87.9455L97.627 46.0078Z" fill="#177BF5"/>
<path d="M148.302 46.0078L124.871 87.9455L154.052 46.0078H148.302Z" fill="#177BF5"/>
<path d="M117.835 46.0085L139.462 22.9102H105.556L104.778 46.0085H117.835Z" fill="#549DFF"/>
<path d="M138.438 75.2675L124.871 87.9344L111.304 75.2675L102.784 94.727C102.149 96.1778 103.212 97.8023 104.795 97.8023H143.255C144.768 97.8023 145.827 96.3077 145.326 94.8789L138.436 75.2656L138.438 75.2675Z" fill="black"/>
<path d="M114.487 10.7446C114.357 10.677 114.231 10.6074 114.105 10.5343C113.194 10.011 112.444 9.62687 111.769 9.38538C111.527 8.71033 111.143 7.96026 110.62 7.04921C110.547 6.92298 110.477 6.79492 110.409 6.66686C110.281 6.42355 109.998 6.42355 109.87 6.66686C109.802 6.79675 109.732 6.92298 109.659 7.04921C109.136 7.96026 108.752 8.71033 108.51 9.38538C107.835 9.62687 107.085 10.011 106.174 10.5343C106.048 10.6074 105.92 10.677 105.792 10.7446C105.549 10.8727 105.549 11.1563 105.792 11.2843C105.922 11.352 106.048 11.4215 106.174 11.4947C107.085 12.0179 107.835 12.4021 108.51 12.6436C108.752 13.3186 109.136 14.0687 109.659 14.9798C109.732 15.106 109.802 15.2341 109.87 15.3621C109.998 15.6054 110.281 15.6054 110.409 15.3621C110.477 15.2322 110.547 15.106 110.62 14.9798C111.143 14.0687 111.527 13.3186 111.769 12.6436C112.444 12.4021 113.194 12.0179 114.105 11.4947C114.231 11.4215 114.359 11.352 114.487 11.2843C114.73 11.1563 114.73 10.8727 114.487 10.7446Z" fill="black"/>
<path d="M160.404 62.7405C160.215 62.6417 160.029 62.5392 159.846 62.4331C158.514 61.6684 157.42 61.1086 156.434 60.7556C156.081 59.7695 155.521 58.6755 154.756 57.3437C154.65 57.1589 154.548 56.9741 154.449 56.7857C154.262 56.4308 153.847 56.4308 153.66 56.7857C153.561 56.9741 153.459 57.1607 153.353 57.3437C152.588 58.6755 152.028 59.7695 151.675 60.7556C150.689 61.1086 149.595 61.6684 148.263 62.4331C148.079 62.5392 147.894 62.6417 147.704 62.7405C147.349 62.9271 147.349 63.3424 147.704 63.529C147.892 63.6278 148.079 63.7302 148.263 63.8363C149.595 64.601 150.689 65.1608 151.675 65.5139C152.028 66.5 152.588 67.594 153.353 68.9258C153.459 69.1105 153.561 69.2953 153.66 69.4837C153.847 69.8387 154.262 69.8387 154.449 69.4837C154.548 69.2953 154.65 69.1087 154.756 68.9258C155.521 67.594 156.081 66.5 156.434 65.5139C157.42 65.1608 158.514 64.601 159.846 63.8363C160.03 63.7302 160.215 63.6278 160.404 63.529C160.758 63.3424 160.758 62.9271 160.404 62.7405Z" fill="black"/>
<path d="M110.4 20.552C110.111 20.4001 109.825 20.2428 109.544 20.0818C107.502 18.9091 105.825 18.0511 104.313 17.5096C103.772 15.9985 102.914 14.3209 101.741 12.2793C101.578 11.9976 101.423 11.7122 101.271 11.4231C100.986 10.8798 100.349 10.8798 100.064 11.4231C99.9118 11.7122 99.7545 11.9976 99.5935 12.2793C98.4209 14.3209 97.5629 15.9985 97.0213 17.5096C95.5102 18.0511 93.8327 18.9091 91.791 20.0818C91.5093 20.2446 91.2239 20.4001 90.9348 20.552C90.3915 20.8373 90.3915 21.474 90.9348 21.7594C91.2239 21.9112 91.5093 22.0685 91.791 22.2295C93.8327 23.4022 95.5102 24.2602 97.0213 24.8017C97.5629 26.3128 98.4209 27.9904 99.5935 30.032C99.7563 30.3138 99.9118 30.5992 100.064 30.8882C100.349 31.4315 100.986 31.4315 101.271 30.8882C101.423 30.5992 101.58 30.3138 101.741 30.032C102.914 27.9904 103.772 26.3128 104.313 24.8017C105.825 24.2602 107.502 23.4022 109.544 22.2295C109.825 22.0667 110.111 21.9112 110.4 21.7594C110.943 21.474 110.943 20.8373 110.4 20.552Z" fill="black"/>
</g>
</g>
<defs>
<linearGradient id="paint0_linear_4061_11970" x1="120" y1="0" x2="120" y2="142" gradientUnits="userSpaceOnUse">
<stop stop-color="white"/>
<stop offset="1" stop-color="#549DFF"/>
</linearGradient>
<clipPath id="clip0_4061_11970">
<rect width="240" height="142" rx="6.91892" fill="white"/>
</clipPath>
<clipPath id="clip1_4061_11970">
<rect width="74.5262" height="71.2439" fill="white" transform="translate(-2.16211 88.3125) rotate(-48.6826)"/>
</clipPath>
<clipPath id="clip2_4061_11970">
<rect width="67.2552" height="68.8142" fill="white" transform="translate(160.672 57.8789)"/>
</clipPath>
<clipPath id="clip3_4061_11970">
<rect width="88.974" height="91.3194" fill="white" transform="translate(80.3828 6.48438)"/>
</clipPath>
</defs>
</svg>
