<svg width="240" height="142" viewBox="0 0 240 142" fill="none" xmlns="http://www.w3.org/2000/svg">
<g clip-path="url(#clip0_4061_12082)">
<rect width="240" height="142" rx="6.91892" fill="url(#paint0_linear_4061_12082)"/>
<g clip-path="url(#clip1_4061_12082)">
<path d="M179.465 87.9258H60.1262C58.2195 87.9258 56.6738 89.5088 56.6738 91.4615V153.3C56.6738 155.253 58.2195 156.836 60.1262 156.836H179.465C181.372 156.836 182.917 155.253 182.917 153.3V91.4615C182.917 89.5088 181.372 87.9258 179.465 87.9258Z" fill="black"/>
<path d="M179.792 88.0195H126.086C124.298 88.0195 122.848 89.4696 122.848 91.2583V153.732C122.848 155.521 124.298 156.971 126.086 156.971H179.792C181.581 156.971 183.031 155.521 183.031 153.732V91.2583C183.031 89.4696 181.581 88.0195 179.792 88.0195Z" fill="#232323"/>
<path d="M131.735 92.2064H47.6426L89.6888 50.1602L131.735 92.2064Z" fill="#177BF5"/>
<path d="M48.1814 92.0625H56.6748V97.2997H48.1814C47.5449 97.2997 47.0273 96.7885 47.0273 96.1599V93.2051C47.0273 92.5764 47.5449 92.0652 48.1814 92.0652V92.0625Z" fill="#054EC4"/>
<path d="M193.998 92.0469H123.409C122.654 92.0469 122.042 92.659 122.042 93.4141V95.961C122.042 96.716 122.654 97.3281 123.409 97.3281H193.998C194.753 97.3281 195.365 96.716 195.365 95.961V93.4141C195.365 92.659 194.753 92.0469 193.998 92.0469Z" fill="#054EC4"/>
<path d="M89.7437 59.0317L56.6387 92.1367L89.7437 125.242L122.849 92.1367L89.7437 59.0317Z" fill="black"/>
<path d="M149.984 50.1602H89.6875L131.439 92.0465H194.566L154.813 52.1668C153.534 50.8823 151.795 50.1602 149.981 50.1602H149.984Z" fill="#549DFF"/>
<path d="M80.951 106.77H98.4266C100.29 106.77 101.803 108.283 101.803 110.146V156.972H77.5771V110.146C77.5771 108.283 79.0904 106.77 80.9537 106.77H80.951Z" fill="#177BF5"/>
<path d="M152.986 106.98H147.148C146.477 106.98 145.933 107.525 145.933 108.196V114.034C145.933 114.705 146.477 115.25 147.148 115.25H152.986C153.658 115.25 154.202 114.705 154.202 114.034V108.196C154.202 107.525 153.658 106.98 152.986 106.98Z" fill="#177BF5"/>
<path d="M162.979 106.98H157.141C156.47 106.98 155.926 107.525 155.926 108.196V114.034C155.926 114.705 156.47 115.25 157.141 115.25H162.979C163.651 115.25 164.195 114.705 164.195 114.034V108.196C164.195 107.525 163.651 106.98 162.979 106.98Z" fill="#177BF5"/>
<path d="M152.986 116.973H147.148C146.477 116.973 145.933 117.517 145.933 118.188V124.026C145.933 124.698 146.477 125.242 147.148 125.242H152.986C153.658 125.242 154.202 124.698 154.202 124.026V118.188C154.202 117.517 153.658 116.973 152.986 116.973Z" fill="#177BF5"/>
<path d="M162.979 116.973H157.141C156.47 116.973 155.926 117.517 155.926 118.188V124.026C155.926 124.698 156.47 125.242 157.141 125.242H162.979C163.651 125.242 164.195 124.698 164.195 124.026V118.188C164.195 117.517 163.651 116.973 162.979 116.973Z" fill="#177BF5"/>
<path d="M98.203 130.648H98.2003C97.2229 130.648 96.4307 131.441 96.4307 132.418V132.421C96.4307 133.398 97.2229 134.19 98.2003 134.19H98.203C99.1804 134.19 99.9727 133.398 99.9727 132.421V132.418C99.9727 131.441 99.1804 130.648 98.203 130.648Z" fill="#FFEB6C"/>
</g>
<g clip-path="url(#clip2_4061_12082)">
<path d="M89.7286 35.4299L84.5894 30.3004L80.8014 26.5195C80.3162 29.6771 81.2801 33.015 83.7169 35.4451C87.7813 39.5017 94.3673 39.5017 98.4316 35.4451L93.3012 30.3243C92.4461 32.1724 91.256 33.9054 89.7286 35.4277V35.4299Z" fill="black"/>
<path d="M89.7286 35.4299L84.5894 30.3004L80.8014 26.5195C80.3162 29.6771 81.2801 33.015 83.7169 35.4451C87.7813 39.5017 94.3673 39.5017 98.4316 35.4451L93.3012 30.3243C92.4461 32.1724 91.256 33.9054 89.7286 35.4277V35.4299Z" fill="black"/>
<path d="M94.0932 27.714L88.954 32.8435L85.166 36.6243C88.3296 37.1086 91.6737 36.1466 94.1084 33.7143C98.1727 29.6576 98.1727 23.084 94.1084 19.0273L88.9779 24.1481C90.8295 25.0016 92.5658 26.1895 94.091 27.714H94.0932Z" fill="black"/>
<path d="M86.3778 23.4015L91.517 28.5309L95.305 32.3118C95.7902 29.1542 94.8263 25.8163 92.3895 23.3863C88.3252 19.3296 81.7391 19.3296 77.6748 23.3863L82.8052 28.507C83.6603 26.6589 84.8505 24.926 86.3778 23.4036V23.4015Z" fill="black"/>
<path d="M82.0091 31.0982L87.1482 25.9688L90.9362 22.1879C87.7726 21.7036 84.4285 22.6657 81.9938 25.0979C77.9295 29.1546 77.9295 35.7304 81.9916 39.7849L87.1221 34.6641C85.2705 33.8107 83.5343 32.6228 82.0091 31.0982Z" fill="black"/>
<path d="M85.1219 36.661C84.6132 36.3113 84.174 35.9605 83.7217 35.5121C81.2629 33.0744 80.3238 29.7034 80.7975 26.5229L84.5933 30.3187L88.0528 33.7301L85.1219 36.661Z" fill="black"/>
</g>
<path d="M108.336 25.105C108.757 24.5418 109.154 24.2606 109.828 23.9851C110.458 23.7383 111.618 23.7383 112.415 23.7383V26.0434H111.881C110.955 26.0516 110.068 26.4235 109.413 27.0807C108.848 27.6472 108.494 28.3861 108.402 29.1733C108.375 29.3082 108.353 29.452 108.336 29.6065V35.4331H105.351V23.7383H108.336V25.105Z" fill="black"/>
<path d="M122.848 32.0001C122.204 32.7053 121.277 33.1479 120.246 33.1479C118.726 33.1479 117.431 32.1855 116.937 30.8368H126.057C126.134 30.439 126.173 30.0217 126.173 29.5856C126.173 28.4272 125.907 27.4047 125.375 26.5188C124.857 25.6329 124.143 24.9512 123.233 24.4745C122.323 23.984 121.308 23.7383 120.187 23.7383C119.066 23.7383 118.051 23.984 117.141 24.4745C116.231 24.9512 115.51 25.6329 114.978 26.5188C114.46 27.4047 114.2 28.4272 114.2 29.5856C114.2 30.744 114.452 31.7666 114.957 32.6525C115.475 33.5384 116.181 34.2266 117.078 34.7179C117.974 35.1946 118.982 35.4338 120.102 35.4338C121.223 35.4338 122.258 35.1954 123.169 34.7179C124.093 34.2274 124.822 33.5392 125.354 32.6525C125.483 32.4426 125.596 32.2254 125.696 32.0001H122.848ZM120.246 26.0966C121.753 26.0966 123.04 27.0435 123.544 28.3743H116.949C117.453 27.0435 118.739 26.0966 120.246 26.0966Z" fill="black"/>
<path d="M139.879 19.0273H136.951V24.4793C136.042 23.9904 135.029 23.7456 133.91 23.7456C132.791 23.7456 131.774 23.9912 130.864 24.4818C129.954 24.9585 129.232 25.6402 128.7 26.5261C128.182 27.412 127.923 28.4345 127.923 29.5929C127.923 30.7513 128.175 31.7739 128.679 32.6598C129.197 33.5456 129.904 34.2339 130.8 34.7252C131.697 35.2019 132.704 35.4411 133.825 35.4411C134.946 35.4411 135.981 35.2027 136.892 34.7252C136.912 34.7146 136.931 34.7032 136.951 34.6927V35.4598H139.879V19.0273ZM133.97 33.1552C132.024 33.1552 130.445 31.577 130.445 29.6295C130.445 27.682 132.023 26.1039 133.97 26.1039C135.916 26.1039 137.495 27.682 137.495 29.6295C137.495 31.577 135.917 33.1552 133.97 33.1552Z" fill="black"/>
<path fill-rule="evenodd" clip-rule="evenodd" d="M147.694 23.7383C148.81 23.7383 149.823 23.9839 150.73 24.4744C151.638 24.9511 152.35 25.6328 152.866 26.5186C153.396 27.4044 153.661 28.4269 153.661 29.5853C153.661 30.7436 153.389 31.7661 152.845 32.6519C152.315 33.5378 151.588 34.2259 150.667 34.7173C149.76 35.1939 148.741 35.4331 147.61 35.4331C146.479 35.4331 145.488 35.1947 144.594 34.7173C143.701 34.2267 142.996 33.5378 142.48 32.6519C141.977 31.7661 141.726 30.7436 141.726 29.5853C141.726 28.4269 141.983 27.4044 142.5 26.5186C143.03 25.6328 143.749 24.9511 144.657 24.4744C145.564 23.9839 146.576 23.7383 147.693 23.7383H147.694ZM147.753 26.0973C145.813 26.0973 144.239 27.6753 144.239 29.6227C144.239 31.5692 145.812 33.1481 147.753 33.1481C149.694 33.1481 151.267 31.5701 151.267 29.6227C151.267 27.6753 149.694 26.0973 147.753 26.0973Z" fill="black"/>
<path d="M158.371 26.0548V31.9564C158.371 32.3479 158.463 32.6348 158.648 32.8164C158.847 32.9842 159.174 33.0684 159.629 33.0684H162.43V35.4328H159.139C156.625 35.4328 155.367 34.3418 155.367 31.9361V26.0556H155.378V23.7545H155.367V21.3828H158.372V23.7545H162.431V26.0556H158.372L158.371 26.0548Z" fill="black"/>
</g>
<defs>
<linearGradient id="paint0_linear_4061_12082" x1="120" y1="0" x2="120" y2="142" gradientUnits="userSpaceOnUse">
<stop stop-color="#E4EFFF"/>
<stop offset="1" stop-color="#669CF9"/>
</linearGradient>
<clipPath id="clip0_4061_12082">
<rect width="240" height="142" rx="6.91892" fill="white"/>
</clipPath>
<clipPath id="clip1_4061_12082">
<rect width="148.339" height="106.811" fill="white" transform="translate(47.0273 50.1602)"/>
</clipPath>
<clipPath id="clip2_4061_12082">
<rect width="20.7568" height="20.7568" fill="white" transform="translate(77.6748 19.0273)"/>
</clipPath>
</defs>
</svg>
