<svg width="240" height="142" viewBox="0 0 240 142" fill="none" xmlns="http://www.w3.org/2000/svg">
<g clip-path="url(#clip0_4061_12040)">
<rect width="240" height="142" rx="6.91892" fill="black"/>
<g filter="url(#filter0_g_4061_12040)">
<ellipse cx="120.298" cy="133.404" rx="132.108" ry="55.5676" fill="url(#paint0_radial_4061_12040)"/>
</g>
<g clip-path="url(#clip1_4061_12040)">
<path d="M181.274 83.9844H60.8927C59.0276 83.9844 57.5156 85.4945 57.5156 87.3572V103.241C57.5156 105.103 59.0276 106.613 60.8927 106.613H181.274C183.139 106.613 184.651 105.103 184.651 103.241V87.3572C184.651 85.4945 183.139 83.9844 181.274 83.9844Z" fill="#FF8F83"/>
<path d="M185.596 54.3555H56.5665C54.7014 54.3555 53.1895 55.8655 53.1895 57.7283V84.2249C53.1895 86.0877 54.7014 87.5978 56.5665 87.5978H185.596C187.461 87.5978 188.973 86.0877 188.973 84.2249V57.7283C188.973 55.8655 187.461 54.3555 185.596 54.3555Z" fill="#FF503E"/>
<path d="M93.8149 52.6602H84.3732C83.2572 52.6602 82.3525 53.5637 82.3525 54.6782V106.522C82.3525 107.636 83.2572 108.54 84.3732 108.54H93.8149C94.9309 108.54 95.8355 107.636 95.8355 106.522V54.6782C95.8355 53.5637 94.9309 52.6602 93.8149 52.6602Z" fill="#669CF9"/>
<path d="M157.791 52.6602H148.35C147.234 52.6602 146.329 53.5637 146.329 54.6782V106.522C146.329 107.636 147.234 108.54 148.35 108.54H157.791C158.907 108.54 159.812 107.636 159.812 106.522V54.6782C159.812 53.5637 158.907 52.6602 157.791 52.6602Z" fill="#669CF9"/>
<path d="M142.079 54.8305L86.8613 61.2137C82.4964 61.7168 79.004 57.9532 80.2507 54.0885L85.8454 36.7492C86.3773 35.1049 87.7956 33.8064 89.608 33.382C91.5442 32.9294 93.8012 33.1234 95.5404 34.0621L142.079 54.8305Z" fill="#3A79EE"/>
<path d="M100.086 54.8305L155.304 61.2137C159.669 61.7168 163.161 57.9532 161.915 54.0885L156.32 36.7492C155.788 35.1049 154.37 33.8064 152.557 33.382C150.621 32.9294 148.364 33.1234 146.625 34.0621L100.086 54.8305Z" fill="#3A79EE"/>
<path d="M126.801 38.1992H115.361C114.216 38.1992 113.287 39.1267 113.287 40.2707V56.5701C113.287 57.7141 114.216 58.6415 115.361 58.6415H126.801C127.947 58.6415 128.875 57.7141 128.875 56.5701V40.2707C128.875 39.1267 127.947 38.1992 126.801 38.1992Z" fill="#669CF9"/>
<path d="M106.128 49.5618L148.651 54.4778C152.011 54.8657 154.702 51.9678 153.742 48.9913L149.433 35.6376C149.025 34.3699 147.933 33.3693 146.535 33.0433C145.043 32.6947 143.307 32.8437 141.967 33.5661L106.128 49.5618Z" fill="#669CF9"/>
<path d="M136.037 49.5618L93.5141 54.4778C90.1539 54.8657 87.4635 51.9678 88.4232 48.9913L92.7318 35.6376C93.1398 34.3699 94.2317 33.3693 95.6304 33.0433C97.122 32.6947 98.8583 32.8437 100.198 33.5661L136.037 49.5618Z" fill="#669CF9"/>
</g>
</g>
<defs>
<filter id="filter0_g_4061_12040" x="-23.4862" y="66.1603" width="287.567" height="134.488" filterUnits="userSpaceOnUse" color-interpolation-filters="sRGB">
<feFlood flood-opacity="0" result="BackgroundImageFix"/>
<feBlend mode="normal" in="SourceGraphic" in2="BackgroundImageFix" result="shape"/>
<feTurbulence type="fractalNoise" baseFrequency="7.7083330154418945 7.7083330154418945" numOctaves="3" seed="7947" />
<feDisplacementMap in="shape" scale="23.351352691650391" xChannelSelector="R" yChannelSelector="G" result="displacedImage" width="100%" height="100%" />
<feMerge result="effect1_texture_4061_12040">
<feMergeNode in="displacedImage"/>
</feMerge>
</filter>
<radialGradient id="paint0_radial_4061_12040" cx="0" cy="0" r="1" gradientUnits="userSpaceOnUse" gradientTransform="translate(120.298 133.404) rotate(89.8248) scale(70.703 168.092)">
<stop offset="0.306572"/>
<stop offset="1" stop-color="#FF503E"/>
</radialGradient>
<clipPath id="clip0_4061_12040">
<rect width="240" height="142" rx="6.91892" fill="white"/>
</clipPath>
<clipPath id="clip1_4061_12040">
<rect width="135.784" height="75.6757" fill="white" transform="translate(53.1895 32.8633)"/>
</clipPath>
</defs>
</svg>
