<svg width="240" height="142" viewBox="0 0 240 142" fill="none" xmlns="http://www.w3.org/2000/svg">
<rect width="240" height="142" rx="6.91892" fill="url(#paint0_linear_4061_12068)"/>
<g clip-path="url(#clip0_4061_12068)">
<path d="M189.339 37.8069V61.8468C189.339 63.0801 188.34 64.0795 187.107 64.0795H163.067C161.833 64.0795 160.834 65.0789 160.834 66.3122V90.3521C160.834 91.5854 159.835 92.5848 158.601 92.5848H134.557C133.324 92.5848 132.324 93.5842 132.324 94.8175V118.857C132.324 120.091 133.324 121.09 134.557 121.09H215.612C216.845 121.09 217.845 120.091 217.845 118.857V37.8069C217.845 36.5736 216.845 35.5742 215.612 35.5742H191.572C190.339 35.5742 189.339 36.5736 189.339 37.8069Z" fill="black"/>
<path d="M162.056 31.6569L168.391 53.0552C168.625 53.8456 168.043 54.6428 167.216 54.6565C163.114 54.7269 155.535 55.565 148.189 60.6255C140.253 66.0926 136.537 73.7698 134.793 79.573C134.384 80.9313 132.394 80.6746 132.349 79.2573C132.14 72.5819 133.071 63.1535 138.13 53.3255C144.896 40.188 155.326 33.5512 160.271 30.9096C160.968 30.5371 161.831 30.8983 162.056 31.6569Z" fill="url(#paint1_linear_4061_12068)"/>
<path d="M167.146 54.7796C174.272 54.7796 180.049 49.0025 180.049 41.8761C180.049 34.7497 174.272 28.9727 167.146 28.9727C160.019 28.9727 154.242 34.7497 154.242 41.8761C154.242 49.0025 160.019 54.7796 167.146 54.7796Z" fill="#177BF5"/>
</g>
<g clip-path="url(#clip1_4061_12068)">
<path d="M33.1075 77.1486L27.9683 72.0191L24.1803 68.2383C23.6951 71.3959 24.659 74.7337 27.0958 77.1638C31.1602 81.2205 37.7462 81.2205 41.8105 77.1638L36.6801 72.043C35.825 73.8911 34.6349 75.6241 33.1075 77.1464V77.1486Z" fill="black"/>
<path d="M33.1075 77.1486L27.9683 72.0191L24.1803 68.2383C23.6951 71.3959 24.659 74.7337 27.0958 77.1638C31.1602 81.2205 37.7462 81.2205 41.8105 77.1638L36.6801 72.043C35.825 73.8911 34.6349 75.6241 33.1075 77.1464V77.1486Z" fill="black"/>
<path d="M37.4721 69.4327L32.3329 74.5622L28.5449 78.3431C31.7085 78.8274 35.0526 77.8653 37.4873 75.4331C41.5516 71.3764 41.5516 64.8028 37.4873 60.7461L32.3569 65.8669C34.2084 66.7203 35.9447 67.9082 37.4699 69.4327H37.4721Z" fill="black"/>
<path d="M29.7568 65.1202L34.8959 70.2497L38.6839 74.0305C39.1691 70.8729 38.2052 67.5351 35.7684 65.105C31.7041 61.0483 25.118 61.0483 21.0537 65.105L26.1842 70.2258C27.0392 68.3777 28.2294 66.6447 29.7568 65.1224V65.1202Z" fill="black"/>
<path d="M25.388 72.817L30.5271 67.6875L34.3151 63.9067C31.1516 63.4224 27.8074 64.3844 25.3727 66.8167C21.3084 70.8734 21.3084 77.4492 25.3706 81.5036L30.501 76.3829C28.6494 75.5294 26.9132 74.3415 25.388 72.817Z" fill="black"/>
<path d="M28.5008 78.3798C27.9921 78.03 27.5529 77.6792 27.1006 77.2309C24.6418 74.7932 23.7027 71.4221 24.1764 68.2416L27.9722 72.0374L31.4317 75.4489L28.5008 78.3798Z" fill="black"/>
</g>
<path d="M51.715 66.8238C52.1356 66.2606 52.5325 65.9794 53.2074 65.7039C53.8366 65.457 54.9973 65.457 55.7936 65.457V67.7621H55.2597C54.3338 67.7703 53.447 68.1422 52.7917 68.7995C52.2269 69.3659 51.8732 70.1049 51.7811 70.892C51.7542 71.0269 51.7322 71.1708 51.715 71.3253V77.1518H48.7295V65.457H51.715V66.8238Z" fill="black"/>
<path d="M66.227 73.7188C65.5829 74.4241 64.6557 74.8666 63.6252 74.8666C62.1052 74.8666 60.8104 73.9043 60.3159 72.5555H69.4355C69.5128 72.1577 69.5518 71.7404 69.5518 71.3044C69.5518 70.146 69.2859 69.1234 68.754 68.2375C68.2359 67.3516 67.5218 66.6699 66.6117 66.1932C65.7016 65.7027 64.6866 65.457 63.5659 65.457C62.4451 65.457 61.4301 65.7027 60.52 66.1932C59.6099 66.6699 58.8885 67.3516 58.3566 68.2375C57.8385 69.1234 57.5791 70.146 57.5791 71.3044C57.5791 72.4628 57.8312 73.4853 58.3355 74.3712C58.8536 75.2571 59.5603 75.9453 60.4566 76.4367C61.3529 76.9134 62.3606 77.1525 63.4813 77.1525C64.602 77.1525 65.6374 76.9142 66.5483 76.4367C67.4722 75.9461 68.2009 75.2579 68.7328 74.3712C68.8622 74.1613 68.9752 73.9441 69.0744 73.7188H66.227ZM63.6252 67.8153C65.1323 67.8153 66.419 68.7622 66.9224 70.0931H60.3281C60.8315 68.7622 62.1182 67.8153 63.6252 67.8153Z" fill="black"/>
<path d="M83.2592 60.7461H80.3313V66.1981C79.422 65.7092 78.4086 65.4643 77.2895 65.4643C76.1704 65.4643 75.1538 65.71 74.2437 66.2005C73.3336 66.6772 72.6122 67.3589 72.0803 68.2448C71.5622 69.1307 71.3027 70.1533 71.3027 71.3117C71.3027 72.4701 71.5549 73.4926 72.0591 74.3785C72.5772 75.2644 73.284 75.9526 74.1802 76.4439C75.0765 76.9207 76.0842 77.1598 77.2049 77.1598C78.3257 77.1598 79.361 76.9215 80.2719 76.4439C80.2914 76.4334 80.311 76.422 80.3313 76.4114V77.1785H83.2592V60.7461ZM77.3497 74.8739C75.4034 74.8739 73.8248 73.2958 73.8248 71.3483C73.8248 69.4008 75.4026 67.8226 77.3497 67.8226C79.2959 67.8226 80.8746 69.4008 80.8746 71.3483C80.8746 73.2958 79.2968 74.8739 77.3497 74.8739Z" fill="black"/>
<path fill-rule="evenodd" clip-rule="evenodd" d="M91.0728 65.457C92.1893 65.457 93.202 65.7027 94.1093 66.1932C95.0166 66.6699 95.7285 67.3515 96.2449 68.2374C96.7752 69.1232 97.0403 70.1457 97.0403 71.304C97.0403 72.4624 96.7679 73.4848 96.2239 74.3707C95.6936 75.2565 94.9671 75.9447 94.046 76.436C93.1387 76.9127 92.1196 77.1518 90.9885 77.1518C89.8574 77.1518 88.8666 76.9135 87.9731 76.436C87.0796 75.9455 86.375 75.2565 85.8585 74.3707C85.3558 73.4848 85.1045 72.4624 85.1045 71.304C85.1045 70.1457 85.3623 69.1232 85.8788 68.2374C86.4091 67.3515 87.1283 66.6699 88.0355 66.1932C88.9428 65.7027 89.9547 65.457 91.072 65.457H91.0728ZM91.132 67.816C89.1918 67.816 87.618 69.3941 87.618 71.3414C87.618 73.288 89.1909 74.8669 91.132 74.8669C93.0731 74.8669 94.646 73.2888 94.646 71.3414C94.646 69.3941 93.0731 67.816 91.132 67.816Z" fill="black"/>
<path d="M101.751 67.7735V73.6751C101.751 74.0666 101.843 74.3536 102.028 74.5351C102.227 74.7029 102.554 74.7872 103.008 74.7872H105.81V77.1516H102.519C100.005 77.1516 98.7471 76.0606 98.7471 73.6549V67.7744H98.7577V65.4732H98.7471V63.1016H101.752V65.4732H105.811V67.7744H101.752L101.751 67.7735Z" fill="black"/>
<defs>
<linearGradient id="paint0_linear_4061_12068" x1="120" y1="0" x2="120" y2="142" gradientUnits="userSpaceOnUse">
<stop stop-color="#E4EFFF"/>
<stop offset="1" stop-color="#669CF9"/>
</linearGradient>
<linearGradient id="paint1_linear_4061_12068" x1="132.324" y1="55.615" x2="168.443" y2="55.615" gradientUnits="userSpaceOnUse">
<stop stop-color="#177BF5"/>
<stop offset="1" stop-color="white"/>
</linearGradient>
<clipPath id="clip0_4061_12068">
<rect width="85.5204" height="92.1209" fill="white" transform="translate(132.324 28.9727)"/>
</clipPath>
<clipPath id="clip1_4061_12068">
<rect width="20.7568" height="20.7568" fill="white" transform="translate(21.0537 60.7461)"/>
</clipPath>
</defs>
</svg>
