<svg width="240" height="142" viewBox="0 0 240 142" fill="none" xmlns="http://www.w3.org/2000/svg">
<rect width="240" height="142" rx="6.91892" fill="url(#paint0_linear_4061_11994)"/>
<g clip-path="url(#clip0_4061_11994)">
<path d="M144.434 29.1861C144.434 26.6044 142.35 24.5132 139.781 24.5132H138.079L139.742 22.8437C141.559 21.0193 141.559 18.059 139.742 16.2346C137.925 14.4102 134.977 14.4102 133.16 16.2346L131.664 17.7363V16.3486C131.664 13.7669 129.58 11.6758 127.011 11.6758C124.44 11.6758 122.357 13.7691 122.357 16.3486V17.7492L120.849 16.2346C119.032 14.4102 116.083 14.4102 114.267 16.2346C112.45 18.059 112.45 21.0193 114.267 22.8437L115.929 24.5132H114.228C111.657 24.5132 109.574 26.6065 109.574 29.1861C109.574 31.7678 111.659 33.8611 114.228 33.8611H122.346H122.361H131.671H139.789C142.36 33.8611 144.443 31.7678 144.443 29.1861H144.434Z" fill="black"/>
<path d="M150.537 32.5352H103.464C102.281 32.5352 101.321 33.4984 101.321 34.6866V126.842C101.321 128.03 102.281 128.993 103.464 128.993H150.537C151.72 128.993 152.68 128.03 152.68 126.842V34.6866C152.68 33.4984 151.72 32.5352 150.537 32.5352Z" fill="black"/>
<path d="M153.116 72.7796L100.344 55.265C99.9925 55.1489 99.7568 54.8197 99.7568 54.4475V43.0644C99.7568 42.4771 100.329 42.064 100.884 42.2469L153.656 59.7615C154.008 59.8776 154.243 60.2068 154.243 60.579V71.9621C154.243 72.5494 153.671 72.9625 153.116 72.7796Z" fill="#177BF5"/>
<path d="M153.116 54.1141L100.344 71.6287C99.9925 71.7448 99.7568 72.074 99.7568 72.4462V83.8293C99.7568 84.4166 100.329 84.8297 100.884 84.6468L153.656 67.1322C154.008 67.016 154.243 66.6869 154.243 66.3147V54.9316C154.243 54.3443 153.671 53.9312 153.116 54.1141Z" fill="#177BF5"/>
<path d="M100.884 91.9756L153.656 109.49C154.008 109.606 154.243 109.936 154.243 110.308V121.691C154.243 122.278 153.671 122.691 153.116 122.508L100.344 104.992C99.9925 104.875 99.7568 104.546 99.7568 104.174V92.791C99.7568 92.2036 100.329 91.7906 100.884 91.9734V91.9756Z" fill="#177BF5"/>
<path d="M153.116 77.4187L100.344 94.9333C99.9925 95.0495 99.7568 95.3787 99.7568 95.7509V107.134C99.7568 107.721 100.329 108.134 100.884 107.951L153.656 90.4369C154.008 90.3207 154.243 89.9916 154.243 89.6194V78.2363C154.243 77.649 153.671 77.2359 153.116 77.4187Z" fill="#177BF5"/>
<path d="M100.577 32.3047C100.125 32.3025 99.759 32.6683 99.7568 33.1201V44.5032C99.7568 45.0905 100.267 45.5036 100.762 45.3207L135.489 32.3951L100.577 32.3047Z" fill="#177BF5"/>
<path d="M153.391 129.728C153.843 129.728 154.237 129.377 154.241 128.923C154.241 128.919 154.241 128.917 154.241 128.912V117.529C154.241 116.942 153.732 116.529 153.237 116.712L121.56 128.501C120.945 128.729 121.108 129.644 121.764 129.646L153.391 129.728Z" fill="#177BF5"/>
</g>
<g clip-path="url(#clip1_4061_11994)">
<path d="M216.622 112.961H121.543C120.07 112.961 118.876 114.152 118.876 115.621V128.146C118.876 129.615 120.07 130.806 121.543 130.806H216.622C218.095 130.806 219.289 129.615 219.289 128.146V115.621C219.289 114.152 218.095 112.961 216.622 112.961Z" fill="#FF8F83"/>
<path d="M220.035 89.5938H118.126C116.653 89.5938 115.459 90.7846 115.459 92.2535V113.148C115.459 114.617 116.653 115.808 118.126 115.808H220.035C221.508 115.808 222.702 114.617 222.702 113.148V92.2535C222.702 90.7846 221.508 89.5938 220.035 89.5938Z" fill="#FF503E"/>
<path d="M147.546 88.2539H140.089C139.208 88.2539 138.493 88.9664 138.493 89.8453V130.728C138.493 131.607 139.208 132.319 140.089 132.319H147.546C148.428 132.319 149.142 131.607 149.142 130.728V89.8453C149.142 88.9664 148.428 88.2539 147.546 88.2539Z" fill="black"/>
<path d="M198.075 88.2539H190.617C189.736 88.2539 189.021 88.9664 189.021 89.8453V130.728C189.021 131.607 189.736 132.319 190.617 132.319H198.075C198.956 132.319 199.67 131.607 199.67 130.728V89.8453C199.67 88.9664 198.956 88.2539 198.075 88.2539Z" fill="black"/>
<path d="M185.666 89.969L142.055 95.0025C138.607 95.3993 135.849 92.4314 136.834 89.3838L141.252 75.7105C141.673 74.4139 142.793 73.3899 144.224 73.0552C145.753 72.6984 147.536 72.8513 148.91 73.5916L185.666 89.969Z" fill="#232323"/>
<path d="M152.498 89.969L196.11 95.0025C199.557 95.3993 202.316 92.4314 201.331 89.3838L196.912 75.7105C196.492 74.4139 195.372 73.3899 193.94 73.0552C192.411 72.6984 190.629 72.8513 189.255 73.5916L152.498 89.969Z" fill="#232323"/>
<path d="M173.599 76.8516H164.564C163.659 76.8516 162.926 77.5829 162.926 78.4851V91.3383C162.926 92.2404 163.659 92.9718 164.564 92.9718H173.599C174.504 92.9718 175.237 92.2404 175.237 91.3383V78.4851C175.237 77.5829 174.504 76.8516 173.599 76.8516Z" fill="black"/>
<path d="M157.271 85.8164L190.856 89.693C193.509 89.9989 195.634 87.7137 194.876 85.3665L191.473 74.8362C191.151 73.8365 190.289 73.0475 189.184 72.7904C188.006 72.5155 186.635 72.633 185.577 73.2026L157.271 85.8164Z" fill="black"/>
<path d="M180.894 85.8164L147.309 89.693C144.655 89.9989 142.53 87.7137 143.288 85.3665L146.691 74.8362C147.013 73.8365 147.876 73.0475 148.98 72.7904C150.158 72.5155 151.53 72.633 152.588 73.2026L180.894 85.8164Z" fill="black"/>
</g>
<g clip-path="url(#clip2_4061_11994)">
<path d="M107.376 63.9414H29.707C28.3727 63.9414 27.291 65.0238 27.291 66.359V130.021C27.291 131.356 28.3727 132.439 29.707 132.439H107.376C108.71 132.439 109.792 131.356 109.792 130.021V66.359C109.792 65.0238 108.71 63.9414 107.376 63.9414Z" fill="#FFED80"/>
<path d="M72.4998 92.8233V63.9387C72.4998 63.4934 72.1395 63.1328 71.6945 63.1328H71.6905H70.8892V63.1389L65.1835 63.1812C64.7386 63.1812 64.3782 63.5418 64.3782 63.987V92.8212C64.3782 93.2665 64.0178 93.6271 63.5729 93.6271H26.319C25.8741 93.6271 25.5137 93.9877 25.5137 94.433V101.098C25.5137 101.543 25.8741 101.903 26.319 101.903H63.5709C64.0158 101.903 64.3762 102.264 64.3762 102.709V133.242C64.3762 133.687 64.7366 134.048 65.1815 134.048H71.6925C72.1374 134.048 72.4978 133.687 72.4978 133.242V102.709C72.4978 102.264 72.8582 101.903 73.3031 101.903H110.76C111.205 101.903 111.566 101.543 111.566 101.098V94.433C111.566 93.9877 111.205 93.6271 110.76 93.6271H73.3031C72.8582 93.6271 72.4978 93.2665 72.4978 92.8212L72.4998 92.8233Z" fill="black"/>
<path d="M72.9564 63.9413H38.1406L47.2548 49.1051C48.2614 47.4672 50.6371 47.0602 52.2175 48.2569L72.9564 63.9433" fill="black"/>
<path d="M68.5776 63.9406L38.7588 67.3938C36.4012 67.6658 34.5148 65.629 35.1892 63.5397L38.2112 54.1573C38.497 53.2668 39.2641 52.5637 40.2446 52.334C41.2895 52.0882 42.5095 52.193 43.4477 52.7027L68.5796 63.9406H68.5776Z" fill="black"/>
<path d="M64.1572 63.9413H98.973L89.8589 49.1051C88.8522 47.4672 86.4766 47.0602 84.8961 48.2569L64.1572 63.9433" fill="black"/>
<path d="M68.5362 63.9406L98.355 67.3938C100.713 67.6658 102.599 65.629 101.925 63.5397L98.9026 54.1573C98.6168 53.2668 97.8497 52.5637 96.8692 52.334C95.8243 52.0882 94.6043 52.193 93.6661 52.7027L68.5342 63.9406H68.5362Z" fill="black"/>
</g>
<defs>
<linearGradient id="paint0_linear_4061_11994" x1="120" y1="0" x2="120" y2="142" gradientUnits="userSpaceOnUse">
<stop stop-color="#93BBFF"/>
<stop offset="1" stop-color="#36393F"/>
</linearGradient>
<clipPath id="clip0_4061_11994">
<rect width="54.4865" height="118.054" fill="white" transform="translate(99.7568 11.6758)"/>
</clipPath>
<clipPath id="clip1_4061_11994">
<rect width="107.243" height="59.6757" fill="white" transform="translate(115.459 72.6484)"/>
</clipPath>
<clipPath id="clip2_4061_11994">
<rect width="86.0541" height="86.4865" fill="white" transform="translate(25.5137 47.5664)"/>
</clipPath>
</defs>
</svg>
