<svg width="240" height="142" viewBox="0 0 240 142" fill="none" xmlns="http://www.w3.org/2000/svg">
<rect width="240" height="142" rx="6.91892" fill="url(#paint0_linear_4061_11937)"/>
<g clip-path="url(#clip0_4061_11937)">
<path d="M82.9776 71.0703H23.5336C22.5124 71.0703 21.6846 71.8982 21.6846 72.9194V121.61C21.6846 122.631 22.5124 123.459 23.5336 123.459H82.9776C83.9988 123.459 84.8266 122.631 84.8266 121.61V72.9194C84.8266 71.8982 83.9988 71.0703 82.9776 71.0703Z" fill="#177BF5"/>
<path d="M56.2852 93.1571V71.0656C56.2852 70.725 56.0094 70.4492 55.6689 70.4492H55.6658H55.0525V70.4538L50.6857 70.4862C50.3451 70.4862 50.0693 70.762 50.0693 71.1026V93.1556C50.0693 93.4961 49.7935 93.7719 49.453 93.7719H20.9406C20.6 93.7719 20.3242 94.0478 20.3242 94.3883V99.4855C20.3242 99.826 20.6 100.102 20.9406 100.102H49.4514C49.792 100.102 50.0678 100.378 50.0678 100.718V124.07C50.0678 124.411 50.3436 124.687 50.6841 124.687H55.6673C56.0079 124.687 56.2837 124.411 56.2837 124.07V100.718C56.2837 100.378 56.5595 100.102 56.9 100.102H85.568C85.9086 100.102 86.1844 99.826 86.1844 99.4855V94.3883C86.1844 94.0478 85.9086 93.7719 85.568 93.7719H56.9C56.5595 93.7719 56.2837 93.4961 56.2837 93.1556L56.2852 93.1571Z" fill="black"/>
<path d="M56.6347 71.0707H29.9883L36.9638 59.7237C37.7343 58.471 39.5525 58.1597 40.7621 59.075L56.6347 71.0723" fill="black"/>
<path d="M53.2829 71.0679L30.461 73.7089C28.6566 73.917 27.2128 72.3591 27.729 70.7612L30.0418 63.5854C30.2607 62.9043 30.8477 62.3665 31.5981 62.1909C32.3978 62.0029 33.3316 62.083 34.0497 62.4729L53.2844 71.0679H53.2829Z" fill="black"/>
<path d="M49.9004 71.0707H76.5468L69.5712 59.7237C68.8008 58.471 66.9826 58.1597 65.773 59.075L49.9004 71.0723" fill="black"/>
<path d="M53.2515 71.0679L76.0735 73.7089C77.8778 73.917 79.3216 72.3591 78.8054 70.7612L76.4926 63.5854C76.2738 62.9043 75.6867 62.3665 74.9363 62.1909C74.1366 62.0029 73.2028 62.083 72.4848 62.4729L53.25 71.0679H53.2515Z" fill="black"/>
</g>
<g clip-path="url(#clip1_4061_11937)">
<path d="M128.903 36.197C128.903 33.9201 127.057 32.0758 124.782 32.0758H123.275L124.748 30.6034C126.357 28.9944 126.357 26.3836 124.748 24.7745C123.139 23.1655 120.528 23.1655 118.919 24.7745L117.595 26.0989V24.8751C117.595 22.5982 115.748 20.7539 113.473 20.7539C111.197 20.7539 109.352 22.6001 109.352 24.8751V26.1103L108.016 24.7745C106.407 23.1655 103.797 23.1655 102.188 24.7745C100.579 26.3836 100.579 28.9944 102.188 30.6034L103.66 32.0758H102.153C99.8765 32.0758 98.0322 33.922 98.0322 36.197C98.0322 38.4739 99.8784 40.3201 102.153 40.3201H109.343H109.356H117.6H124.79C127.067 40.3201 128.911 38.4739 128.911 36.197H128.903Z" fill="#549DFF"/>
<path d="M134.306 39.1523H92.6201C91.5722 39.1523 90.7227 40.0018 90.7227 41.0498V122.326C90.7227 123.374 91.5722 124.223 92.6201 124.223H134.306C135.354 124.223 136.204 123.374 136.204 122.326V41.0498C136.204 40.0018 135.354 39.1523 134.306 39.1523Z" fill="black"/>
<path d="M136.591 74.6465L89.8578 59.1996C89.5466 59.0971 89.3379 58.8068 89.3379 58.4785V48.4393C89.3379 47.9213 89.8445 47.557 90.3359 47.7183L137.069 63.1652C137.381 63.2676 137.589 63.5579 137.589 63.8862V73.9254C137.589 74.4434 137.083 74.8077 136.591 74.6465Z" fill="#177BF5"/>
<path d="M136.591 58.187L89.8578 73.6339C89.5466 73.7364 89.3379 74.0267 89.3379 74.3549V84.3942C89.3379 84.9122 89.8445 85.2765 90.3359 85.1152L137.069 69.6683C137.381 69.5658 137.589 69.2755 137.589 68.9473V58.908C137.589 58.39 137.083 58.0257 136.591 58.187Z" fill="#177BF5"/>
<path d="M90.3359 91.5795L137.069 107.026C137.381 107.129 137.589 107.419 137.589 107.747V117.787C137.589 118.305 137.083 118.669 136.591 118.508L89.8578 103.059C89.5466 102.956 89.3379 102.666 89.3379 102.338V92.2987C89.3379 91.7807 89.8445 91.4164 90.3359 91.5776V91.5795Z" fill="#177BF5"/>
<path d="M136.591 78.7378L89.8578 94.1847C89.5466 94.2872 89.3379 94.5775 89.3379 94.9057V104.945C89.3379 105.463 89.8445 105.827 90.3359 105.666L137.069 90.2191C137.381 90.1166 137.589 89.8263 137.589 89.4981V79.4588C137.589 78.9408 137.083 78.5765 136.591 78.7378Z" fill="#177BF5"/>
<path d="M90.0646 38.9492C89.6642 38.9473 89.3398 39.2699 89.3379 39.6683V49.7076C89.3379 50.2256 89.7895 50.5899 90.2278 50.4286L120.981 39.0289L90.0646 38.9492Z" fill="#177BF5"/>
<path d="M136.834 124.873C137.235 124.873 137.584 124.564 137.587 124.164C137.587 124.16 137.587 124.158 137.587 124.154V114.115C137.587 113.597 137.136 113.233 136.698 113.394L108.646 123.792C108.102 123.993 108.246 124.799 108.826 124.801L136.834 124.873Z" fill="#177BF5"/>
</g>
<g clip-path="url(#clip2_4061_11937)">
<path d="M217.377 110.848H147.704C146.624 110.848 145.749 111.723 145.749 112.802V122.007C145.749 123.086 146.624 123.961 147.704 123.961H217.377C218.457 123.961 219.332 123.086 219.332 122.007V112.802C219.332 111.723 218.457 110.848 217.377 110.848Z" fill="#177BF5"/>
<path d="M219.88 93.6758H145.201C144.121 93.6758 143.246 94.5509 143.246 95.6303V110.985C143.246 112.065 144.121 112.94 145.201 112.94H219.88C220.959 112.94 221.834 112.065 221.834 110.985V95.6303C221.834 94.5509 220.959 93.6758 219.88 93.6758Z" fill="#549DFF"/>
<path d="M166.759 92.6953H161.294C160.649 92.6953 160.125 93.2189 160.125 93.8648V123.908C160.125 124.554 160.649 125.078 161.294 125.078H166.759C167.405 125.078 167.929 124.554 167.929 123.908V93.8648C167.929 93.2189 167.405 92.6953 166.759 92.6953Z" fill="black"/>
<path d="M203.787 92.6953H198.323C197.677 92.6953 197.153 93.2189 197.153 93.8648V123.908C197.153 124.554 197.677 125.078 198.323 125.078H203.787C204.433 125.078 204.957 124.554 204.957 123.908V93.8648C204.957 93.2189 204.433 92.6953 203.787 92.6953Z" fill="black"/>
<path d="M194.692 93.9475L162.734 97.6465C160.207 97.9381 158.186 95.7571 158.908 93.5175L162.146 83.4694C162.454 82.5166 163.274 81.7641 164.323 81.5181C165.444 81.2559 166.75 81.3683 167.757 81.9123L194.692 93.9475Z" fill="#232323"/>
<path d="M170.389 93.9475L202.347 97.6465C204.874 97.9381 206.895 95.7571 206.173 93.5175L202.935 83.4694C202.628 82.5166 201.807 81.7641 200.758 81.5181C199.637 81.2559 198.331 81.3683 197.324 81.9123L170.389 93.9475Z" fill="#232323"/>
<path d="M185.85 84.3125H179.229C178.566 84.3125 178.028 84.8499 178.028 85.5129V94.9583C178.028 95.6213 178.566 96.1588 179.229 96.1588H185.85C186.513 96.1588 187.05 95.6213 187.05 94.9583V85.5129C187.05 84.8499 186.513 84.3125 185.85 84.3125Z" fill="black"/>
<path d="M173.885 90.8994L198.496 93.7482C200.441 93.973 201.998 92.2937 201.442 90.5688L198.949 82.8303C198.713 82.0958 198.081 81.5159 197.271 81.327C196.408 81.125 195.403 81.2113 194.628 81.6299L173.885 90.8994Z" fill="black"/>
<path d="M191.196 90.8994L166.585 93.7482C164.64 93.973 163.083 92.2937 163.638 90.5688L166.132 82.8303C166.368 82.0958 167 81.5159 167.81 81.327C168.673 81.125 169.678 81.2113 170.453 81.6299L191.196 90.8994Z" fill="black"/>
</g>
<defs>
<linearGradient id="paint0_linear_4061_11937" x1="120" y1="0" x2="120" y2="142" gradientUnits="userSpaceOnUse">
<stop stop-color="#FFF6C3"/>
<stop offset="1" stop-color="#7FB9FF"/>
</linearGradient>
<clipPath id="clip0_4061_11937">
<rect width="65.8617" height="66.1468" fill="white" transform="translate(20.3242 58.5469)"/>
</clipPath>
<clipPath id="clip1_4061_11937">
<rect width="48.2514" height="104.117" fill="white" transform="translate(89.3379 20.7539)"/>
</clipPath>
<clipPath id="clip2_4061_11937">
<rect width="78.5881" height="43.8539" fill="white" transform="translate(143.246 81.2227)"/>
</clipPath>
</defs>
</svg>
