<svg width="240" height="142" viewBox="0 0 240 142" fill="none" xmlns="http://www.w3.org/2000/svg">
<g clip-path="url(#clip0_4061_12106)">
<rect width="240" height="142" rx="6.91892" fill="url(#paint0_linear_4061_12106)"/>
<g clip-path="url(#clip1_4061_12106)">
<path d="M173.495 76.8359H163.127V141.842H173.495V76.8359Z" fill="#232323"/>
<path d="M168.31 123.397C194.026 123.397 214.874 102.55 214.874 76.8334C214.874 51.1169 194.026 30.2695 168.31 30.2695C142.593 30.2695 121.746 51.1169 121.746 76.8334C121.746 102.55 142.593 123.397 168.31 123.397Z" fill="black"/>
<path d="M168.31 114.662C189.202 114.662 206.138 97.7262 206.138 76.8349C206.138 55.9436 189.202 39.0078 168.31 39.0078C147.419 39.0078 130.483 55.9436 130.483 76.8349C130.483 97.7262 147.419 114.662 168.31 114.662Z" stroke="white" stroke-width="1.6842" stroke-miterlimit="10"/>
<path d="M216.764 31.7242L184.236 42.9515C183.588 43.1746 183.426 44.0167 183.944 44.4652L192.52 51.9093L171.84 75.7344C171.125 76.5596 169.874 76.6481 169.049 75.9323L156.297 64.8713C155.685 64.3408 154.758 64.4061 154.228 65.0187L119.028 105.574C118.504 106.176 118.569 107.09 119.171 107.614L125.727 113.305C126.329 113.829 127.243 113.764 127.767 113.161L155.401 81.3259C155.925 80.7238 156.836 80.6586 157.441 81.1828L162.958 85.9722L170.318 92.3616C171.08 93.0227 172.236 92.9427 172.897 92.1785L201.261 59.4987L209.933 67.025C210.451 67.4734 211.261 67.1955 211.392 66.5218L217.933 32.7368C218.063 32.0631 217.415 31.501 216.769 31.7263L216.764 31.7242Z" fill="#177BF5" stroke="#177BF5" stroke-width="2.10525" stroke-miterlimit="10"/>
</g>
<g clip-path="url(#clip2_4061_12106)">
<path d="M32.6749 77.1486L27.5357 72.0191L23.7477 68.2383C23.2625 71.3959 24.2264 74.7337 26.6632 77.1638C30.7276 81.2205 37.3136 81.2205 41.3779 77.1638L36.2475 72.043C35.3924 73.8911 34.2022 75.6241 32.6749 77.1464V77.1486Z" fill="black"/>
<path d="M32.6749 77.1486L27.5357 72.0191L23.7477 68.2383C23.2625 71.3959 24.2264 74.7337 26.6632 77.1638C30.7276 81.2205 37.3136 81.2205 41.3779 77.1638L36.2475 72.043C35.3924 73.8911 34.2022 75.6241 32.6749 77.1464V77.1486Z" fill="black"/>
<path d="M37.0395 69.4327L31.9003 74.5622L28.1123 78.3431C31.2759 78.8274 34.62 77.8653 37.0547 75.4331C41.119 71.3764 41.119 64.8028 37.0547 60.7461L31.9242 65.8669C33.7758 66.7203 35.5121 67.9082 37.0373 69.4327H37.0395Z" fill="black"/>
<path d="M29.3241 65.1202L34.4633 70.2497L38.2513 74.0305C38.7365 70.8729 37.7726 67.5351 35.3358 65.105C31.2714 61.0483 24.6854 61.0483 20.6211 65.105L25.7515 70.2258C26.6066 68.3777 27.7968 66.6447 29.3241 65.1224V65.1202Z" fill="black"/>
<path d="M24.9553 72.817L30.0945 67.6875L33.8825 63.9067C30.7189 63.4224 27.3748 64.3844 24.9401 66.8167C20.8758 70.8734 20.8758 77.4492 24.9379 81.5036L30.0684 76.3829C28.2168 75.5294 26.4806 74.3415 24.9553 72.817Z" fill="black"/>
<path d="M28.0681 78.3798C27.5595 78.03 27.1203 77.6792 26.668 77.2309C24.2092 74.7932 23.2701 71.4221 23.7438 68.2416L27.5396 72.0374L30.9991 75.4489L28.0681 78.3798Z" fill="black"/>
</g>
<path d="M51.2824 66.8238C51.703 66.2606 52.0999 65.9794 52.7748 65.7039C53.404 65.457 54.5646 65.457 55.3609 65.457V67.7621H54.8271C53.9012 67.7703 53.0144 68.1422 52.3591 68.7995C51.7943 69.3659 51.4405 70.1049 51.3484 70.892C51.3215 71.0269 51.2995 71.1708 51.2824 71.3253V77.1518H48.2969V65.457H51.2824V66.8238Z" fill="black"/>
<path d="M65.7944 73.7188C65.1503 74.4241 64.2231 74.8666 63.1926 74.8666C61.6726 74.8666 60.3778 73.9043 59.8833 72.5555H69.0029C69.0802 72.1577 69.1192 71.7404 69.1192 71.3044C69.1192 70.146 68.8533 69.1234 68.3214 68.2375C67.8033 67.3516 67.0892 66.6699 66.1791 66.1932C65.269 65.7027 64.254 65.457 63.1333 65.457C62.0125 65.457 60.9975 65.7027 60.0874 66.1932C59.1773 66.6699 58.4559 67.3516 57.924 68.2375C57.4059 69.1234 57.1465 70.146 57.1465 71.3044C57.1465 72.4628 57.3986 73.4853 57.9029 74.3712C58.4209 75.2571 59.1277 75.9453 60.024 76.4367C60.9202 76.9134 61.9279 77.1525 63.0487 77.1525C64.1694 77.1525 65.2048 76.9142 66.1157 76.4367C67.0396 75.9461 67.7683 75.2579 68.3002 74.3712C68.4295 74.1613 68.5426 73.9441 68.6418 73.7188H65.7944ZM63.1926 67.8153C64.6997 67.8153 65.9864 68.7622 66.4898 70.0931H59.8955C60.3989 68.7622 61.6856 67.8153 63.1926 67.8153Z" fill="black"/>
<path d="M82.8266 60.7461H79.8987V66.1981C78.9894 65.7092 77.976 65.4643 76.8569 65.4643C75.7378 65.4643 74.7211 65.71 73.811 66.2005C72.901 66.6772 72.1795 67.3589 71.6476 68.2448C71.1296 69.1307 70.8701 70.1533 70.8701 71.3117C70.8701 72.4701 71.1222 73.4926 71.6265 74.3785C72.1446 75.2644 72.8513 75.9526 73.7476 76.4439C74.6439 76.9207 75.6516 77.1598 76.7723 77.1598C77.893 77.1598 78.9284 76.9215 79.8393 76.4439C79.8588 76.4334 79.8783 76.422 79.8987 76.4114V77.1785H82.8266V60.7461ZM76.9171 74.8739C74.9708 74.8739 73.3922 73.2958 73.3922 71.3483C73.3922 69.4008 74.97 67.8226 76.9171 67.8226C78.8633 67.8226 80.442 69.4008 80.442 71.3483C80.442 73.2958 78.8641 74.8739 76.9171 74.8739Z" fill="black"/>
<path fill-rule="evenodd" clip-rule="evenodd" d="M90.6402 65.457C91.7567 65.457 92.7694 65.7027 93.6767 66.1932C94.584 66.6699 95.2958 67.3515 95.8123 68.2374C96.3426 69.1232 96.6077 70.1457 96.6077 71.304C96.6077 72.4624 96.3353 73.4848 95.7912 74.3707C95.261 75.2565 94.5345 75.9447 93.6134 76.436C92.7061 76.9127 91.6869 77.1518 90.5559 77.1518C89.4248 77.1518 88.434 76.9135 87.5405 76.436C86.647 75.9455 85.9424 75.2565 85.4259 74.3707C84.9232 73.4848 84.6719 72.4624 84.6719 71.304C84.6719 70.1457 84.9297 69.1232 85.4462 68.2374C85.9765 67.3515 86.6956 66.6699 87.6029 66.1932C88.5102 65.7027 89.5221 65.457 90.6394 65.457H90.6402ZM90.6994 67.816C88.7591 67.816 87.1854 69.3941 87.1854 71.3414C87.1854 73.288 88.7583 74.8669 90.6994 74.8669C92.6405 74.8669 94.2134 73.2888 94.2134 71.3414C94.2134 69.3941 92.6405 67.816 90.6994 67.816Z" fill="black"/>
<path d="M101.318 67.7735V73.6751C101.318 74.0666 101.41 74.3536 101.595 74.5351C101.794 74.7029 102.121 74.7872 102.576 74.7872H105.378V77.1516H102.086C99.5719 77.1516 98.3145 76.0606 98.3145 73.6549V67.7744H98.325V65.4732H98.3145V63.1016H101.319V65.4732H105.379V67.7744H101.319L101.318 67.7735Z" fill="black"/>
</g>
<defs>
<linearGradient id="paint0_linear_4061_12106" x1="120" y1="0" x2="120" y2="142" gradientUnits="userSpaceOnUse">
<stop stop-color="#E4EFFF"/>
<stop offset="1" stop-color="#669CF9"/>
</linearGradient>
<clipPath id="clip0_4061_12106">
<rect width="240" height="142" rx="6.91892" fill="white"/>
</clipPath>
<clipPath id="clip1_4061_12106">
<rect width="101.378" height="111.568" fill="white" transform="translate(117.621 30.2695)"/>
</clipPath>
<clipPath id="clip2_4061_12106">
<rect width="20.7568" height="20.7568" fill="white" transform="translate(20.6211 60.7461)"/>
</clipPath>
</defs>
</svg>
