<svg width="355" height="450" viewBox="0 0 355 450" fill="none" xmlns="http://www.w3.org/2000/svg">
<rect width="355" height="450" rx="14.4162" fill="url(#paint0_linear_4061_14337)"/>
<path d="M75.0153 59.5832C73.3622 59.5832 71.8437 59.9869 70.4598 60.7942C69.0758 61.6015 67.8841 62.7548 66.8846 64.2541C65.9235 65.7533 65.1739 67.5602 64.6357 69.6745C64.0974 71.7505 63.8283 74.1147 63.8283 76.7673C63.8283 79.4968 64.0974 81.9187 64.6357 84.0331C65.1739 86.1474 65.9427 87.9543 66.9422 89.4535C67.9418 90.9144 69.1719 92.0292 70.6328 92.7981C72.0936 93.567 73.7659 93.9514 75.6496 93.9514C77.6871 93.9514 79.4747 93.4709 81.0124 92.5098C82.5886 91.5103 83.9149 90.1455 84.9913 88.4156C86.0677 86.6472 86.8558 84.6481 87.3556 82.4184L90.8731 83.7447C90.258 86.5126 89.2393 88.9538 87.8169 91.0682C86.3945 93.1825 84.5684 94.8356 82.3387 96.0273C80.109 97.2191 77.4949 97.8149 74.4963 97.8149C71.5362 97.8149 68.8067 97.3152 66.3079 96.3156C63.8476 95.2777 61.6947 93.8361 59.8495 91.9908C58.0426 90.1071 56.6395 87.8774 55.64 85.3017C54.6404 82.726 54.1407 79.8812 54.1407 76.7673C54.1407 73.6534 54.6597 70.8086 55.6976 68.2329C56.7356 65.6572 58.158 63.4467 59.9648 61.6015C61.8101 59.7178 63.9245 58.2761 66.3079 57.2766C68.6914 56.2387 71.2287 55.7197 73.9197 55.7197C76.6107 55.7197 78.8788 56.1618 80.7241 57.046C82.5694 57.8917 84.0687 59.0835 85.222 60.6212C86.3753 62.1205 87.2594 63.8888 87.8745 65.9263L85.3373 65.292L86.3753 56.2963H90.1235V68.9249H85.9139C85.3373 67.0412 84.5684 65.4074 83.6073 64.0234C82.6463 62.6394 81.4545 61.563 80.0321 60.7942C78.6482 59.9869 76.9759 59.5832 75.0153 59.5832ZM113.132 56.2963V59.3526H112.44C111.325 59.3526 110.364 59.4679 109.557 59.6985C108.788 59.9292 108.404 60.4097 108.404 61.1402V93.6054H115.093C116.669 93.6054 117.938 93.5285 118.899 93.3747C119.898 93.221 120.648 92.9711 121.148 92.6251C121.647 92.2407 121.916 91.6832 121.955 90.9528L122.704 83.9177H126.626V97.2383H94.7371V94.1821H95.3137C96.4286 94.1821 97.3512 94.0475 98.0816 93.7784C98.8121 93.5093 99.1773 92.9711 99.1773 92.1638V61.3708C99.1773 60.5635 98.8121 60.0253 98.0816 59.7562C97.3512 59.4871 96.4286 59.3526 95.3137 59.3526H94.7371V56.2963H113.132ZM138.845 80.1119H155.049L155.107 83.6294H138.442L138.845 80.1119ZM145.765 59.9869L147.322 61.7168L136.769 93.1441C136.769 93.3363 136.942 93.5285 137.288 93.7207C137.634 93.8745 138.096 93.9898 138.672 94.0667C139.249 94.1436 139.864 94.1821 140.517 94.1821H141.44V97.2383H129.504V94.1821H129.849C130.695 94.1821 131.387 94.0091 131.925 93.6631C132.464 93.3171 132.906 92.6251 133.252 91.5871L145.246 56.2963H153.723L166.121 92.5098C166.351 93.2018 166.736 93.6631 167.274 93.8937C167.812 94.0859 168.485 94.1821 169.292 94.1821H169.58V97.2383H152.281V94.1821H153.204C153.78 94.1821 154.357 94.1628 154.934 94.1244C155.549 94.0859 156.049 94.0283 156.433 93.9514C156.856 93.8361 157.067 93.7207 157.067 93.6054L145.765 59.9869ZM189.739 94.0667C191.277 94.0667 192.603 93.8553 193.718 93.4324C194.833 92.9711 195.679 92.2791 196.255 91.3565C196.87 90.4338 197.178 89.2805 197.178 87.8966C197.178 86.6664 196.89 85.6477 196.313 84.8404C195.775 84.0331 195.006 83.3603 194.006 82.8221C193.045 82.2455 191.892 81.7457 190.547 81.3228C189.201 80.8615 187.759 80.4002 186.222 79.9389C184.722 79.516 183.242 78.997 181.782 78.3819C180.359 77.7668 179.071 76.9787 177.918 76.0177C176.765 75.0566 175.842 73.8841 175.15 72.5001C174.458 71.0777 174.112 69.3286 174.112 67.2526C174.112 64.8307 174.708 62.774 175.9 61.0825C177.13 59.3526 178.745 58.0263 180.744 57.1036C182.743 56.181 184.934 55.7197 187.317 55.7197C189.432 55.7197 191.277 56.008 192.853 56.5846C194.468 57.1613 195.871 58.0839 197.063 59.3526C198.254 60.6212 199.254 62.3127 200.061 64.4271L197.524 63.9657L198.504 56.2963H202.022V67.022H198.101C197.601 65.4458 196.87 64.1003 195.909 62.9854C194.948 61.8321 193.814 60.9672 192.507 60.3905C191.239 59.7754 189.855 59.4679 188.355 59.4679C186.894 59.4679 185.664 59.6985 184.665 60.1599C183.665 60.5827 182.896 61.1978 182.358 62.0051C181.858 62.8124 181.609 63.7927 181.609 64.946C181.609 66.0993 181.878 67.0604 182.416 67.8293C182.992 68.5597 183.742 69.1748 184.665 69.6745C185.626 70.1743 186.741 70.6164 188.009 71.0008C189.278 71.3853 190.623 71.7697 192.046 72.1541C193.699 72.577 195.275 73.096 196.774 73.7111C198.312 74.3262 199.696 75.1142 200.926 76.0753C202.156 76.998 203.117 78.1705 203.809 79.5929C204.54 81.0153 204.905 82.7644 204.905 84.8404C204.905 87.4929 204.29 89.7995 203.06 91.7601C201.83 93.6823 200.119 95.1816 197.928 96.258C195.775 97.2959 193.257 97.8149 190.374 97.8149C188.105 97.8149 185.972 97.4689 183.973 96.777C181.974 96.085 180.205 94.9894 178.668 93.4901C177.168 91.9523 175.977 89.9341 175.092 87.4353L177.745 88.3579L176.822 97.2383H173.074V84.4944H177.226C177.918 86.5319 178.86 88.2618 180.052 89.6842C181.282 91.1066 182.723 92.2022 184.376 92.9711C186.03 93.7015 187.817 94.0667 189.739 94.0667ZM225.104 94.0667C226.642 94.0667 227.968 93.8553 229.083 93.4324C230.198 92.9711 231.043 92.2791 231.62 91.3565C232.235 90.4338 232.543 89.2805 232.543 87.8966C232.543 86.6664 232.254 85.6477 231.678 84.8404C231.14 84.0331 230.371 83.3603 229.371 82.8221C228.41 82.2455 227.257 81.7457 225.911 81.3228C224.566 80.8615 223.124 80.4002 221.586 79.9389C220.087 79.516 218.607 78.997 217.146 78.3819C215.724 77.7668 214.436 76.9787 213.283 76.0177C212.129 75.0566 211.207 73.8841 210.515 72.5001C209.823 71.0777 209.477 69.3286 209.477 67.2526C209.477 64.8307 210.073 62.774 211.264 61.0825C212.495 59.3526 214.109 58.0263 216.108 57.1036C218.107 56.181 220.299 55.7197 222.682 55.7197C224.796 55.7197 226.642 56.008 228.218 56.5846C229.832 57.1613 231.236 58.0839 232.427 59.3526C233.619 60.6212 234.619 62.3127 235.426 64.4271L232.889 63.9657L233.869 56.2963H237.387V67.022H233.465C232.966 65.4458 232.235 64.1003 231.274 62.9854C230.313 61.8321 229.179 60.9672 227.872 60.3905C226.603 59.7754 225.219 59.4679 223.72 59.4679C222.259 59.4679 221.029 59.6985 220.029 60.1599C219.03 60.5827 218.261 61.1978 217.723 62.0051C217.223 62.8124 216.973 63.7927 216.973 64.946C216.973 66.0993 217.242 67.0604 217.781 67.8293C218.357 68.5597 219.107 69.1748 220.029 69.6745C220.991 70.1743 222.105 70.6164 223.374 71.0008C224.643 71.3853 225.988 71.7697 227.411 72.1541C229.064 72.577 230.64 73.096 232.139 73.7111C233.677 74.3262 235.061 75.1142 236.291 76.0753C237.521 76.998 238.482 78.1705 239.174 79.5929C239.905 81.0153 240.27 82.7644 240.27 84.8404C240.27 87.4929 239.655 89.7995 238.425 91.7601C237.194 93.6823 235.484 95.1816 233.292 96.258C231.14 97.2959 228.622 97.8149 225.738 97.8149C223.47 97.8149 221.337 97.4689 219.337 96.777C217.338 96.085 215.57 94.9894 214.032 93.4901C212.533 91.9523 211.341 89.9341 210.457 87.4353L213.11 88.3579L212.187 97.2383H208.439V84.4944H212.591C213.283 86.5319 214.225 88.2618 215.416 89.6842C216.646 91.1066 218.088 92.2022 219.741 92.9711C221.394 93.7015 223.182 94.0667 225.104 94.0667ZM248.633 92.1061V61.4285C248.633 60.5827 248.267 60.0253 247.537 59.7562C246.806 59.4871 245.884 59.3526 244.769 59.3526H244.192V56.2963H262.299V59.3526H261.722C260.646 59.3526 259.723 59.4871 258.955 59.7562C258.224 60.0253 257.859 60.5827 257.859 61.4285V92.1061C257.859 92.9519 258.224 93.5093 258.955 93.7784C259.723 94.0475 260.646 94.1821 261.722 94.1821H262.299V97.2383H244.192V94.1821H244.769C245.884 94.1821 246.806 94.0475 247.537 93.7784C248.267 93.5093 248.633 92.9519 248.633 92.1061ZM287.316 59.5832C285.663 59.5832 284.145 59.9869 282.761 60.7942C281.377 61.6015 280.185 62.7548 279.185 64.2541C278.224 65.7533 277.475 67.5602 276.936 69.6745C276.398 71.7505 276.129 74.1147 276.129 76.7673C276.129 79.4968 276.398 81.9187 276.936 84.0331C277.475 86.1474 278.244 87.9543 279.243 89.4535C280.243 90.9144 281.473 92.0292 282.934 92.7981C284.394 93.567 286.067 93.9514 287.95 93.9514C289.988 93.9514 291.776 93.4709 293.313 92.5098C294.889 91.5103 296.216 90.1455 297.292 88.4156C298.369 86.6472 299.157 84.6481 299.656 82.4184L303.174 83.7447C302.559 86.5126 301.54 88.9538 300.118 91.0682C298.695 93.1825 296.869 94.8356 294.64 96.0273C292.41 97.2191 289.796 97.8149 286.797 97.8149C283.837 97.8149 281.108 97.3152 278.609 96.3156C276.148 95.2777 273.996 93.8361 272.15 91.9908C270.343 90.1071 268.94 87.8774 267.941 85.3017C266.941 82.726 266.441 79.8812 266.441 76.7673C266.441 73.6534 266.96 70.8086 267.998 68.2329C269.036 65.6572 270.459 63.4467 272.266 61.6015C274.111 59.7178 276.225 58.2761 278.609 57.2766C280.992 56.2387 283.529 55.7197 286.22 55.7197C288.911 55.7197 291.18 56.1618 293.025 57.046C294.87 57.8917 296.369 59.0835 297.523 60.6212C298.676 62.1205 299.56 63.8888 300.175 65.9263L297.638 65.292L298.676 56.2963H302.424V68.9249H298.215C297.638 67.0412 296.869 65.4074 295.908 64.0234C294.947 62.6394 293.755 61.563 292.333 60.7942C290.949 59.9869 289.277 59.5832 287.316 59.5832Z" fill="#177BF5"/>
<g clip-path="url(#clip0_4061_14337)">
<path d="M179.054 360.318L275.211 269.669L228.843 219.742H179.054H129.266L82.8936 269.669L179.054 360.318Z" fill="#549DFF"/>
<path d="M129.266 219.742H228.843L275.211 269.669H82.8936L129.266 219.742Z" fill="#177BF5"/>
<path d="M120.167 269.68H163.846L179.055 360.328L120.167 269.68Z" fill="#177BF5"/>
<path d="M229.702 269.68L179.055 360.328L242.13 269.68H229.702Z" fill="#177BF5"/>
<path d="M163.847 269.669L210.595 219.742H137.306L135.625 269.669H163.847Z" fill="#549DFF"/>
<path d="M208.38 332.922L179.055 360.302L149.73 332.922L131.314 374.984C129.942 378.12 132.24 381.631 135.66 381.631H218.792C222.062 381.631 224.351 378.4 223.268 375.312L208.376 332.918L208.38 332.922Z" fill="black"/>
<path d="M156.608 193.447C156.327 193.301 156.055 193.15 155.782 192.992C153.813 191.861 152.191 191.031 150.732 190.509C150.21 189.05 149.38 187.428 148.249 185.459C148.091 185.186 147.94 184.91 147.794 184.633C147.517 184.107 146.904 184.107 146.628 184.633C146.481 184.913 146.331 185.186 146.173 185.459C145.042 187.428 144.211 189.05 143.689 190.509C142.23 191.031 140.609 191.861 138.64 192.992C138.367 193.15 138.09 193.301 137.813 193.447C137.287 193.724 137.287 194.337 137.813 194.613C138.094 194.76 138.367 194.91 138.64 195.068C140.609 196.199 142.23 197.029 143.689 197.551C144.211 199.011 145.042 200.632 146.173 202.601C146.331 202.874 146.481 203.151 146.628 203.428C146.904 203.953 147.517 203.953 147.794 203.428C147.94 203.147 148.091 202.874 148.249 202.601C149.38 200.632 150.21 199.011 150.732 197.551C152.191 197.029 153.813 196.199 155.782 195.068C156.055 194.91 156.331 194.76 156.608 194.613C157.134 194.337 157.134 193.724 156.608 193.447Z" fill="black"/>
<path d="M255.859 305.841C255.452 305.628 255.049 305.406 254.653 305.177C251.774 303.524 249.41 302.314 247.278 301.551C246.515 299.419 245.305 297.055 243.652 294.176C243.423 293.777 243.201 293.377 242.988 292.97C242.585 292.203 241.687 292.203 241.284 292.97C241.07 293.377 240.849 293.781 240.619 294.176C238.966 297.055 237.756 299.419 236.993 301.551C234.862 302.314 232.497 303.524 229.618 305.177C229.219 305.406 228.82 305.628 228.408 305.841C227.641 306.245 227.641 307.142 228.408 307.545C228.816 307.759 229.219 307.98 229.618 308.21C232.497 309.863 234.862 311.073 236.993 311.836C237.756 313.967 238.966 316.332 240.619 319.211C240.849 319.61 241.07 320.009 241.284 320.417C241.687 321.184 242.585 321.184 242.988 320.417C243.201 320.009 243.423 319.606 243.652 319.211C245.305 316.332 246.515 313.967 247.278 311.836C249.41 311.073 251.774 309.863 254.653 308.21C255.053 307.98 255.452 307.759 255.859 307.545C256.626 307.142 256.626 306.245 255.859 305.841Z" fill="black"/>
<path d="M147.775 214.636C147.15 214.308 146.533 213.968 145.924 213.62C141.511 211.085 137.885 209.231 134.619 208.06C133.449 204.794 131.594 201.168 129.059 196.755C128.707 196.146 128.371 195.529 128.043 194.904C127.426 193.73 126.05 193.73 125.433 194.904C125.105 195.529 124.765 196.146 124.417 196.755C121.882 201.168 120.028 204.794 118.857 208.06C115.591 209.231 111.965 211.085 107.552 213.62C106.943 213.972 106.326 214.308 105.701 214.636C104.527 215.253 104.527 216.629 105.701 217.246C106.326 217.574 106.943 217.914 107.552 218.262C111.965 220.797 115.591 222.652 118.857 223.822C120.028 227.088 121.882 230.715 124.417 235.128C124.769 235.736 125.105 236.353 125.433 236.978C126.05 238.153 127.426 238.153 128.043 236.978C128.371 236.353 128.711 235.736 129.059 235.128C131.594 230.715 133.449 227.088 134.619 223.822C137.885 222.652 141.511 220.797 145.924 218.262C146.533 217.91 147.15 217.574 147.775 217.246C148.949 216.629 148.949 215.253 147.775 214.636Z" fill="black"/>
</g>
<defs>
<linearGradient id="paint0_linear_4061_14337" x1="177.5" y1="0" x2="177.5" y2="450" gradientUnits="userSpaceOnUse">
<stop/>
<stop offset="1" stop-color="#1676EC"/>
</linearGradient>
<clipPath id="clip0_4061_14337">
<rect width="192.318" height="197.387" fill="white" transform="translate(82.8936 184.238)"/>
</clipPath>
</defs>
</svg>
