<svg width="355" height="450" viewBox="0 0 355 450" fill="none" xmlns="http://www.w3.org/2000/svg">
<rect width="355" height="450" rx="14.4162" fill="url(#paint0_linear_4061_14323)"/>
<path d="M43.3881 98.2383V57.873H49.5582L67.2036 87.3396H63.9744L81.3315 57.873H87.5016L87.5592 98.2383H80.4665L80.4088 69.0023H81.9081L67.1459 93.6251H63.8014L48.8085 69.0023H50.5385V98.2383H43.3881ZM117.376 98.8149C114.224 98.8149 111.322 98.2959 108.669 97.258C106.016 96.22 103.71 94.7784 101.749 92.9331C99.7887 91.0494 98.2702 88.8582 97.1938 86.3593C96.1173 83.8221 95.5791 81.0542 95.5791 78.0556C95.5791 75.0571 96.1173 72.3084 97.1938 69.8096C98.2702 67.2723 99.7887 65.0811 101.749 63.2358C103.71 61.3521 106.016 59.8912 108.669 58.8533C111.322 57.8153 114.205 57.2963 117.319 57.2963C120.471 57.2963 123.354 57.8153 125.968 58.8533C128.621 59.8912 130.928 61.3521 132.888 63.2358C134.849 65.0811 136.367 67.2723 137.444 69.8096C138.52 72.3084 139.058 75.0571 139.058 78.0556C139.058 81.0542 138.52 83.8221 137.444 86.3593C136.367 88.8966 134.849 91.0879 132.888 92.9331C130.928 94.7784 128.621 96.22 125.968 97.258C123.354 98.2959 120.49 98.8149 117.376 98.8149ZM117.319 92.2411C119.356 92.2411 121.24 91.8952 122.97 91.2032C124.7 90.5112 126.199 89.5309 127.468 88.2623C128.736 86.9552 129.717 85.4559 130.409 83.7644C131.139 82.0345 131.504 80.1316 131.504 78.0556C131.504 75.9797 131.139 74.096 130.409 72.4045C129.717 70.6745 128.736 69.1753 127.468 67.9066C126.199 66.5996 124.7 65.6 122.97 64.9081C121.24 64.2161 119.356 63.8701 117.319 63.8701C115.281 63.8701 113.398 64.2161 111.668 64.9081C109.976 65.6 108.477 66.5996 107.17 67.9066C105.901 69.1753 104.902 70.6745 104.171 72.4045C103.479 74.096 103.133 75.9797 103.133 78.0556C103.133 80.0931 103.479 81.9768 104.171 83.7068C104.902 85.4367 105.901 86.9552 107.17 88.2623C108.438 89.5309 109.938 90.5112 111.668 91.2032C113.398 91.8952 115.281 92.2411 117.319 92.2411ZM147.004 98.2383V57.873H164.65C169.032 57.873 172.877 58.7187 176.183 60.4102C179.489 62.1017 182.065 64.4467 183.91 67.4453C185.755 70.4439 186.678 73.9807 186.678 78.0556C186.678 82.0922 185.755 85.6289 183.91 88.6659C182.065 91.6645 179.489 94.0095 176.183 95.701C172.877 97.3925 169.032 98.2383 164.65 98.2383H147.004ZM154.501 91.8952H164.304C167.341 91.8952 169.955 91.3185 172.146 90.1652C174.376 89.0119 176.087 87.3973 177.278 85.3214C178.509 83.2455 179.124 80.8235 179.124 78.0556C179.124 75.2493 178.509 72.8274 177.278 70.7899C176.087 68.7139 174.376 67.0993 172.146 65.946C169.955 64.7927 167.341 64.2161 164.304 64.2161H154.501V91.8952ZM201.565 74.6534H221.632V80.8235H201.565V74.6534ZM202.142 91.9528H224.919V98.2383H194.645V57.873H224.112V64.1584H202.142V91.9528ZM233.276 98.2383V57.873H249.884C253.459 57.873 256.515 58.4496 259.052 59.6029C261.628 60.7562 263.608 62.4093 264.992 64.5621C266.376 66.7149 267.068 69.2714 267.068 72.2315C267.068 75.1916 266.376 77.7481 264.992 79.9009C263.608 82.0153 261.628 83.6491 259.052 84.8024C256.515 85.9173 253.459 86.4747 249.884 86.4747H237.428L240.773 83.0725V98.2383H233.276ZM259.687 98.2383L249.48 83.5914H257.495L267.76 98.2383H259.687ZM240.773 83.8798L237.428 80.3046H249.538C252.844 80.3046 255.323 79.5934 256.976 78.171C258.668 76.7486 259.514 74.7687 259.514 72.2315C259.514 69.6558 258.668 67.676 256.976 66.292C255.323 64.9081 252.844 64.2161 249.538 64.2161H237.428L240.773 60.5255V83.8798ZM275.455 98.2383V57.873H281.625L306.94 88.9543H303.884V57.873H311.322V98.2383H305.152L279.837 67.157H282.894V98.2383H275.455Z" fill="black"/>
<g clip-path="url(#clip0_4061_14323)">
<path d="M177.819 379.108C247.164 379.108 303.38 356.171 303.38 327.878C303.38 299.585 247.164 276.648 177.819 276.648C108.474 276.648 52.2588 299.585 52.2588 327.878C52.2588 356.171 108.474 379.108 177.819 379.108Z" fill="#177BF5"/>
<path d="M177.814 371.289C245.185 371.289 299.8 349.007 299.8 321.52C299.8 294.033 245.185 271.75 177.814 271.75C110.444 271.75 55.8291 294.033 55.8291 321.52C55.8291 349.007 110.444 371.289 177.814 371.289Z" fill="#A9D8FF"/>
<path d="M177.817 351.985C226.456 351.985 265.886 335.898 265.886 316.055C265.886 296.211 226.456 280.125 177.817 280.125C129.179 280.125 89.749 296.211 89.749 316.055C89.749 335.898 129.179 351.985 177.817 351.985Z" fill="#EEF7FF"/>
<path d="M202.071 208.047C220.745 223.952 239.419 239.427 258.093 255.332C259.384 256.432 258.531 258.982 256.841 258.877L99.5925 249.047C96.3613 248.847 94.0876 245.792 94.7856 242.627C95.4139 239.757 96.3164 237.202 97.3885 234.917C108.623 210.882 146.135 200.012 191.914 203.817C195.659 204.127 199.214 205.617 202.076 208.052L202.071 208.047Z" fill="#177BF5"/>
<path d="M160.326 227.968C172.368 227.968 182.131 218.179 182.131 206.103C182.131 194.028 172.368 184.238 160.326 184.238C148.283 184.238 138.521 194.028 138.521 206.103C138.521 218.179 148.283 227.968 160.326 227.968Z" fill="black"/>
<path d="M94.7803 242.621L258.955 255.761V333.906C258.955 336.251 256.95 338.091 254.627 337.886L94.7803 323.901V242.621Z" fill="black"/>
<path d="M108.921 325.141L94.7803 323.841V242.621L108.921 243.486V325.141Z" fill="#177BF5"/>
<path d="M254.72 337.886L94.7838 323.891L94.6592 312.281L258.958 326.376V333.991C258.958 336.286 256.999 338.086 254.72 337.886Z" fill="#177BF5"/>
<path d="M258.958 298.571L94.7838 284.211L94.6592 272.602L258.958 286.696V298.571Z" fill="#177BF5"/>
</g>
<defs>
<linearGradient id="paint0_linear_4061_14323" x1="177.5" y1="0" x2="177.5" y2="450" gradientUnits="userSpaceOnUse">
<stop stop-color="#177BF5"/>
<stop offset="1"/>
</linearGradient>
<clipPath id="clip0_4061_14323">
<rect width="251.126" height="194.874" fill="white" transform="translate(52.2588 184.238)"/>
</clipPath>
</defs>
</svg>
