<svg width="64" height="64" viewBox="0 0 64 64" fill="none" xmlns="http://www.w3.org/2000/svg">
<g clip-path="url(#clip0_4438_763)">
<path d="M31.923 52.5676C46.6152 52.5676 58.5256 47.708 58.5256 41.7135C58.5256 35.7189 46.6152 30.8594 31.923 30.8594C17.2307 30.8594 5.32031 35.7189 5.32031 41.7135C5.32031 47.708 17.2307 52.5676 31.923 52.5676Z" fill="#177BF5"/>
<path d="M31.9223 50.9098C46.1962 50.9098 57.7675 46.1888 57.7675 40.3651C57.7675 34.5414 46.1962 29.8203 31.9223 29.8203C17.6484 29.8203 6.07715 34.5414 6.07715 40.3651C6.07715 46.1888 17.6484 50.9098 31.9223 50.9098Z" fill="#A9D8FF"/>
<path d="M31.9228 46.8226C42.228 46.8226 50.582 43.4144 50.582 39.2101C50.582 35.0059 42.228 31.5977 31.9228 31.5977C21.6177 31.5977 13.2637 35.0059 13.2637 39.2101C13.2637 43.4144 21.6177 46.8226 31.9228 46.8226Z" fill="#EEF7FF"/>
<path d="M37.0612 16.3271C41.0177 19.6969 44.9741 22.9756 48.9305 26.3454C49.2042 26.5784 49.0235 27.1187 48.6654 27.0965L15.3489 25.0138C14.6643 24.9714 14.1826 24.3241 14.3305 23.6536C14.4636 23.0455 14.6548 22.5042 14.882 22.0201C17.2622 16.9278 25.2099 14.6247 34.9092 15.4309C35.7026 15.4966 36.4559 15.8123 37.0623 16.3282L37.0612 16.3271Z" fill="#177BF5"/>
<path d="M28.2166 20.5463C30.7681 20.5463 32.8365 18.4723 32.8365 15.9138C32.8365 13.3553 30.7681 11.2812 28.2166 11.2812C25.6651 11.2812 23.5967 13.3553 23.5967 15.9138C23.5967 18.4723 25.6651 20.5463 28.2166 20.5463Z" fill="black"/>
<path d="M14.3301 23.6484L49.1139 26.4324V42.989C49.1139 43.4858 48.6892 43.8756 48.1969 43.8322L14.3301 40.8692V23.6484Z" fill="black"/>
<path d="M17.3262 41.1319L14.3301 40.8565V23.6484L17.3262 23.8317V41.1319Z" fill="#177BF5"/>
<path d="M48.216 43.8351L14.3301 40.87L14.3037 38.4102L49.114 41.3965V43.0098C49.114 43.4961 48.6988 43.8775 48.216 43.8351Z" fill="#177BF5"/>
<path d="M49.114 35.5023L14.3301 32.4598L14.3037 30L49.114 32.9863V35.5023Z" fill="#177BF5"/>
</g>
<defs>
<clipPath id="clip0_4438_763">
<rect width="53.2064" height="41.2881" fill="white" transform="translate(5.32031 11.2812)"/>
</clipPath>
</defs>
</svg>
