<svg width="64" height="64" viewBox="0 0 64 64" fill="none" xmlns="http://www.w3.org/2000/svg">
<g clip-path="url(#clip0_4438_790)">
<path d="M46.0183 16.0024L45.1933 15.2422L16.1074 46.0781L19.0132 48.4951C20.1967 49.3885 21.8589 50.4883 23.9887 51.4549C24.9317 51.8832 27.3343 52.9553 30.3236 53.408C37.0693 54.4301 42.4823 51.6413 43.0657 51.3317C46.7408 49.3818 49.7279 46.28 51.723 42.3559C53.6736 38.5206 54.3817 33.2625 53.4131 28.8002C52.3409 23.865 49.7168 19.4105 46.0172 16.0013L46.0183 16.0024Z" fill="#054EC4"/>
<path d="M45.749 44.7508C53.7863 36.1984 53.6263 23.0319 45.3914 15.3425C37.1566 7.65315 23.9653 8.35277 15.928 16.9052C7.89058 25.4575 8.05066 38.6241 16.2855 46.3135C24.5203 54.0028 37.7116 53.3032 45.749 44.7508Z" fill="#177BF5"/>
<path d="M41.9802 41.2395C48.1827 34.6396 48.0811 24.4995 41.7535 18.5909C35.4258 12.6824 25.268 13.2428 19.0656 19.8428C12.8631 26.4427 12.9646 36.5828 19.2923 42.4913C25.62 48.3999 35.7777 47.8394 41.9802 41.2395Z" fill="#054EC4"/>
<path d="M42.3113 41.5466C48.2894 35.1855 48.1914 25.4122 42.0926 19.7174C35.9937 14.0225 26.2035 14.5626 20.2255 20.9237C14.2475 27.2847 14.3455 37.058 20.4443 42.7528C26.5431 48.4477 36.3333 47.9076 42.3113 41.5466Z" fill="#549DFF"/>
<path d="M21.8966 30.8351L40.7999 31.4687C41.1996 31.4821 41.5125 31.8172 41.4969 32.2156L41.4691 32.9558C41.4535 33.3542 41.1172 33.665 40.7176 33.6483L21.8198 32.8593C21.4223 32.8426 21.1139 32.5086 21.1284 32.1135L21.1507 31.5298C21.1652 31.1336 21.4992 30.824 21.8966 30.8373V30.8351ZM22.5936 24.3008L24.0253 24.3108C24.3749 24.313 24.6733 24.566 24.7323 24.91L26.5348 35.4506L26.6762 35.4583L29.6009 24.8834C29.6877 24.5693 29.975 24.3529 30.3023 24.3552L32.0747 24.3674C32.4165 24.3696 32.7104 24.6104 32.7772 24.9444L34.9961 35.8967L35.1364 35.9033L37.991 24.9511C38.0745 24.6315 38.364 24.4095 38.6946 24.4129L40.5027 24.4251C40.9825 24.4284 41.3265 24.8901 41.1907 25.3484L36.8821 39.8785C36.7864 40.2015 36.478 40.4156 36.1406 40.3923L33.8884 40.2381C33.5633 40.2159 33.2927 39.9784 33.2293 39.6599L31.0928 28.9019L30.9569 28.8985L28.0968 39.2637C28.0055 39.5944 27.6938 39.8141 27.3508 39.7908L25.3212 39.6521C24.9961 39.6299 24.7267 39.3936 24.6621 39.075L21.8799 25.162C21.7909 24.7147 22.136 24.2986 22.5936 24.3019V24.3008Z" fill="#054EC4"/>
<path d="M21.4656 30.599L40.2409 31.2283C40.6762 31.2427 41.0169 31.6078 41.0002 32.0417L40.9768 32.6532C40.9601 33.0871 40.5938 33.4245 40.1585 33.4067L21.3899 32.6232C20.9568 32.6055 20.6206 32.2415 20.6373 31.8109L20.6551 31.3548C20.6718 30.9231 21.0348 30.5868 21.4679 30.6012L21.4656 30.599ZM22.1771 24.0636L23.4752 24.0725C23.856 24.0747 24.1811 24.3499 24.2445 24.725L26.0381 35.2123L26.1795 35.2201L29.0909 24.6929C29.1855 24.3511 29.4984 24.1147 29.8546 24.1169L31.5257 24.128C31.8976 24.1302 32.2171 24.3932 32.2906 24.7561L34.4995 35.6573L34.6397 35.664L37.481 24.7606C37.5711 24.4132 37.8873 24.1713 38.2481 24.1735L39.9203 24.1846C40.4435 24.1879 40.8176 24.6906 40.6684 25.1911L36.3988 39.5903C36.2941 39.9421 35.9579 40.1752 35.5905 40.1496L33.4396 40.002C33.0855 39.9776 32.7905 39.7202 32.7226 39.3728L30.595 28.6636L30.4592 28.6603L27.6124 38.9744C27.5133 39.334 27.1737 39.5737 26.8007 39.5481L24.8724 39.4161C24.5184 39.3917 24.2245 39.1342 24.1555 38.7868L21.3977 24.9992C21.3009 24.512 21.6761 24.0592 22.1748 24.0625L22.1771 24.0636Z" fill="url(#paint0_linear_4438_790)"/>
</g>
<defs>
<linearGradient id="paint0_linear_4438_790" x1="20.6351" y1="32.1083" x2="41.0002" y2="32.1083" gradientUnits="userSpaceOnUse">
<stop stop-color="#177BF5"/>
<stop offset="0.51" stop-color="#549DFF"/>
<stop offset="1" stop-color="#177BF5"/>
</linearGradient>
<clipPath id="clip0_4438_790">
<rect width="43.842" height="43.6292" fill="white" transform="translate(10.002 10.0039)"/>
</clipPath>
</defs>
</svg>
