<svg width="64" height="64" viewBox="0 0 64 64" fill="none" xmlns="http://www.w3.org/2000/svg">
<g clip-path="url(#clip0_4438_829)">
<path d="M54.7101 36.9102H9.19102C8.48577 36.9102 7.91406 37.4819 7.91406 38.1871V44.2005C7.91406 44.9057 8.48577 45.4774 9.19102 45.4774H54.7101C55.4154 45.4774 55.9871 44.9057 55.9871 44.2005V38.1871C55.9871 37.4819 55.4154 36.9102 54.7101 36.9102Z" fill="#177BF5"/>
<path d="M56.3444 25.6953H7.55527C6.85003 25.6953 6.27832 26.267 6.27832 26.9723V37.0038C6.27832 37.709 6.85003 38.2807 7.55527 38.2807H56.3444C57.0497 38.2807 57.6214 37.709 57.6214 37.0038V26.9723C57.6214 26.267 57.0497 25.6953 56.3444 25.6953Z" fill="#549DFF"/>
<path d="M21.6399 25.0508H18.0697C17.6477 25.0508 17.3057 25.3929 17.3057 25.8148V45.4426C17.3057 45.8646 17.6477 46.2067 18.0697 46.2067H21.6399C22.0618 46.2067 22.4039 45.8646 22.4039 45.4426V25.8148C22.4039 25.3929 22.0618 25.0508 21.6399 25.0508Z" fill="black"/>
<path d="M45.8303 25.0508H42.2601C41.8382 25.0508 41.4961 25.3929 41.4961 25.8148V45.4426C41.4961 45.8646 41.8382 46.2067 42.2601 46.2067H45.8303C46.2523 46.2067 46.5943 45.8646 46.5943 45.4426V25.8148C46.5943 25.3929 46.2523 25.0508 45.8303 25.0508Z" fill="black"/>
<path d="M39.8896 25.8728L19.0103 28.2895C17.3599 28.4799 16.0393 27.0551 16.5107 25.5919L18.6262 19.0273C18.8273 18.4048 19.3636 17.9132 20.0489 17.7525C20.781 17.5811 21.6345 17.6546 22.2921 18.01L39.8896 25.8728Z" fill="#232323"/>
<path d="M24.0107 25.8728L44.89 28.2895C46.5404 28.4799 47.861 27.0551 47.3896 25.5919L45.2741 19.0273C45.073 18.4048 44.5367 17.9132 43.8514 17.7525C43.1193 17.5811 42.2658 17.6546 41.6082 18.01L24.0107 25.8728Z" fill="#232323"/>
<path d="M34.1129 19.5742H29.7872C29.3541 19.5742 29.0029 19.9253 29.0029 20.3585V26.5294C29.0029 26.9625 29.3541 27.3136 29.7872 27.3136H34.1129C34.546 27.3136 34.8971 26.9625 34.8971 26.5294V20.3585C34.8971 19.9253 34.546 19.5742 34.1129 19.5742Z" fill="black"/>
<path d="M26.2959 23.8806L42.3749 25.7418C43.6454 25.8886 44.6627 24.7915 44.2999 23.6646L42.6707 18.6089C42.5164 18.129 42.1035 17.7502 41.5746 17.6267C41.0106 17.4948 40.3541 17.5512 39.8476 17.8247L26.2959 23.8806Z" fill="black"/>
<path d="M37.6047 23.8806L21.5257 25.7418C20.2551 25.8886 19.2378 24.7915 19.6007 23.6646L21.2299 18.6089C21.3842 18.129 21.7971 17.7502 22.3259 17.6267C22.8899 17.4948 23.5465 17.5512 24.053 17.8247L37.6047 23.8806Z" fill="black"/>
</g>
<defs>
<clipPath id="clip0_4438_829">
<rect width="51.3431" height="28.6506" fill="white" transform="translate(6.27832 17.5586)"/>
</clipPath>
</defs>
</svg>
