<svg width="64" height="64" viewBox="0 0 64 64" fill="none" xmlns="http://www.w3.org/2000/svg">
<g clip-path="url(#clip0_4438_819)">
<path d="M40.5995 11.4266C40.5995 10.1496 39.5641 9.11527 38.2882 9.11527H37.4433L38.269 8.28951C39.1714 7.38713 39.1714 5.92289 38.269 5.02051C37.3667 4.11813 35.9024 4.11813 35 5.02051L34.2573 5.76327V5.07691C34.2573 3.79996 33.2219 2.76562 31.946 2.76562C30.669 2.76562 29.6347 3.80102 29.6347 5.07691V5.76966L28.8856 5.02051C27.9832 4.11813 26.519 4.11813 25.6166 5.02051C24.7142 5.92289 24.7142 7.38713 25.6166 8.28951L26.4423 9.11527H25.5974C24.3205 9.11527 23.2861 10.1507 23.2861 11.4266C23.2861 12.7035 24.3215 13.7389 25.5974 13.7389H29.6294H29.6368H34.2605H38.2924C39.5694 13.7389 40.6037 12.7035 40.6037 11.4266H40.5995Z" fill="#549DFF"/>
<path d="M43.6285 13.0859H20.2497C19.662 13.0859 19.1855 13.5624 19.1855 14.1501V59.7319C19.1855 60.3196 19.662 60.7961 20.2497 60.7961H43.6285C44.2162 60.7961 44.6927 60.3196 44.6927 59.7319V14.1501C44.6927 13.5624 44.2162 13.0859 43.6285 13.0859Z" fill="black"/>
<path d="M44.9112 32.9909L18.7017 24.3279C18.5272 24.2704 18.4102 24.1076 18.4102 23.9235V18.2932C18.4102 18.0027 18.6943 17.7984 18.9699 17.8888L45.1793 26.5519C45.3539 26.6093 45.4709 26.7722 45.4709 26.9563V32.5866C45.4709 32.8771 45.1868 33.0814 44.9112 32.9909Z" fill="#177BF5"/>
<path d="M44.9112 23.7599L18.7017 32.423C18.5272 32.4804 18.4102 32.6433 18.4102 32.8273V38.4576C18.4102 38.7482 18.6943 38.9525 18.9699 38.862L45.1793 30.199C45.3539 30.1415 45.4709 29.9787 45.4709 29.7946V24.1643C45.4709 23.8738 45.1868 23.6695 44.9112 23.7599Z" fill="#177BF5"/>
<path d="M18.9699 42.4875L45.1793 51.1506C45.3539 51.2081 45.4709 51.3709 45.4709 51.555V57.1853C45.4709 57.4758 45.1868 57.6801 44.9112 57.5896L18.7017 48.9255C18.5272 48.8681 18.4102 48.7052 18.4102 48.5211V42.8908C18.4102 42.6003 18.6943 42.396 18.9699 42.4865V42.4875Z" fill="#177BF5"/>
<path d="M44.9112 35.2834L18.7017 43.9464C18.5272 44.0039 18.4102 44.1667 18.4102 44.3508V49.9811C18.4102 50.2716 18.6943 50.4759 18.9699 50.3855L45.1793 41.7224C45.3539 41.6649 45.4709 41.5021 45.4709 41.318V35.6877C45.4709 35.3972 45.1868 35.1929 44.9112 35.2834Z" fill="#177BF5"/>
<path d="M18.8177 12.9727C18.5932 12.9716 18.4112 13.1525 18.4102 13.376V19.0063C18.4102 19.2968 18.6634 19.5011 18.9092 19.4106L36.1566 13.0174L18.8177 12.9727Z" fill="#177BF5"/>
<path d="M45.0475 61.1588C45.272 61.1588 45.4678 60.9854 45.4699 60.7608C45.4699 60.7587 45.4699 60.7576 45.4699 60.7555V55.1252C45.4699 54.8347 45.2167 54.6304 44.9709 54.7209L29.2388 60.5523C28.9334 60.6651 29.0143 61.1173 29.3399 61.1184L45.0475 61.1588Z" fill="#177BF5"/>
</g>
<defs>
<clipPath id="clip0_4438_819">
<rect width="27.0608" height="58.3918" fill="white" transform="translate(18.4102 2.76562)"/>
</clipPath>
</defs>
</svg>
