<svg width="64" height="64" viewBox="0 0 64 64" fill="none" xmlns="http://www.w3.org/2000/svg">
<g clip-path="url(#clip0_4438_849)">
<path d="M33.6699 8.26008L36.5398 11.5844L40.5675 9.83499C41.8785 9.26568 43.3885 9.99355 43.761 11.3727L44.9038 15.6121L49.2912 15.7835C50.7193 15.8388 51.7643 17.1498 51.5014 18.5544L50.6916 22.8705L54.5704 24.9286C55.8324 25.5979 56.2059 27.2324 55.3589 28.3838L52.7571 31.9209L55.3589 35.4581C56.2059 36.6095 55.8324 38.244 54.5704 38.9133L50.6916 40.9713L51.5014 45.2874C51.7653 46.6921 50.7193 48.0031 49.2912 48.0584L44.9038 48.2298L43.761 52.4692C43.3885 53.8494 41.8785 54.5762 40.5675 54.0069L36.5398 52.2575L33.6699 55.5818C32.7366 56.663 31.0596 56.663 30.1263 55.5818L27.2564 52.2575L23.2286 54.0069C21.9176 54.5762 20.4076 53.8483 20.0352 52.4692L18.8923 48.2298L14.5049 48.0584C13.0769 48.0031 12.0319 46.6921 12.2947 45.2874L13.1045 40.9713L9.2258 38.9133C7.96374 38.244 7.59023 36.6095 8.43728 35.4581L11.0391 31.9209L8.43728 28.3838C7.59023 27.2324 7.96374 25.5979 9.2258 24.9286L13.1045 22.8705L12.2947 18.5544C12.0308 17.1498 13.0769 15.8388 14.5049 15.7835L18.8923 15.6121L20.0352 11.3727C20.4076 9.99248 21.9176 9.26568 23.2286 9.83499L27.2564 11.5844L30.1263 8.26008C31.0596 7.17893 32.7366 7.17893 33.6699 8.26008Z" fill="black"/>
<path d="M53.5741 30.8555H10.2205C9.92669 30.8555 9.68848 31.0937 9.68848 31.3875V32.4517C9.68848 32.7455 9.92669 32.9837 10.2205 32.9837H53.5741C53.868 32.9837 54.1062 32.7455 54.1062 32.4517V31.3875C54.1062 31.0937 53.868 30.8555 53.5741 30.8555Z" fill="#177BF5"/>
<path d="M44.4859 14.2359L17.64 48.2775C17.4581 48.5083 17.4976 48.8428 17.7283 49.0248L18.5639 49.6837C18.7946 49.8657 19.1292 49.8261 19.3111 49.5954L46.157 15.5538C46.339 15.323 46.2995 14.9885 46.0687 14.8065L45.2332 14.1476C45.0024 13.9656 44.6679 14.0052 44.4859 14.2359Z" fill="#177BF5"/>
<path d="M17.6381 15.5601L44.484 49.6018C44.666 49.8325 45.0005 49.872 45.2313 49.6901L46.0668 49.0311C46.2976 48.8492 46.3371 48.5146 46.1551 48.2839L19.3092 14.2422C19.1273 14.0115 18.7927 13.972 18.562 14.1539L17.7264 14.8129C17.4957 14.9948 17.4562 15.3294 17.6381 15.5601Z" fill="#177BF5"/>
<path d="M31.8978 38.0475C35.2817 38.0475 38.025 35.3042 38.025 31.9202C38.025 28.5362 35.2817 25.793 31.8978 25.793C28.5138 25.793 25.7705 28.5362 25.7705 31.9202C25.7705 35.3042 28.5138 38.0475 31.8978 38.0475Z" fill="#549DFF"/>
</g>
<defs>
<clipPath id="clip0_4438_849">
<rect width="47.8325" height="48.9413" fill="white" transform="translate(7.98145 7.44922)"/>
</clipPath>
</defs>
</svg>
