<svg width="64" height="64" viewBox="0 0 64 64" fill="none" xmlns="http://www.w3.org/2000/svg">
<g clip-path="url(#clip0_4438_879)">
<g clip-path="url(#clip1_4438_879)">
<path d="M34.5191 30.9844H29.2783V63.8425H34.5191V30.9844Z" fill="#232323"/>
<path d="M31.8987 54.5219C44.8974 54.5219 55.435 43.9844 55.435 30.9856C55.435 17.9868 44.8974 7.44922 31.8987 7.44922C18.8999 7.44922 8.3623 17.9868 8.3623 30.9856C8.3623 43.9844 18.8999 54.5219 31.8987 54.5219Z" fill="black"/>
<path d="M31.8986 50.1037C42.4584 50.1037 51.0188 41.5433 51.0188 30.9835C51.0188 20.4237 42.4584 11.8633 31.8986 11.8633C21.3387 11.8633 12.7783 20.4237 12.7783 30.9835C12.7783 41.5433 21.3387 50.1037 31.8986 50.1037Z" stroke="white" stroke-width="0.851302" stroke-miterlimit="10"/>
<path d="M56.3898 8.18463L39.948 13.8596C39.6202 13.9724 39.5383 14.3981 39.8001 14.6247L44.1353 18.3875L33.6824 30.4302C33.3206 30.8473 32.6885 30.892 32.2714 30.5302L25.826 24.9393C25.5163 24.6711 25.0481 24.7041 24.7799 25.0138L6.98773 45.5131C6.72276 45.8175 6.75575 46.2793 7.06009 46.5443L10.3738 49.4206C10.6781 49.6856 11.14 49.6526 11.4049 49.3483L25.3727 33.2565C25.6376 32.9522 26.0984 32.9192 26.4038 33.1842L29.1929 35.6051L32.9131 38.8347C33.2983 39.1688 33.8825 39.1284 34.2166 38.7421L48.5536 22.2237L52.9367 26.0279C53.1985 26.2546 53.6082 26.1141 53.6742 25.7736L56.9804 8.69647C57.0464 8.35595 56.7186 8.07183 56.392 8.18569L56.3898 8.18463Z" fill="#177BF5" stroke="#177BF5" stroke-width="1.06413" stroke-miterlimit="10"/>
</g>
</g>
<defs>
<clipPath id="clip0_4438_879">
<rect width="64" height="64" rx="5.10781" fill="white"/>
</clipPath>
<clipPath id="clip1_4438_879">
<rect width="51.243" height="56.3934" fill="white" transform="translate(6.27734 7.44922)"/>
</clipPath>
</defs>
</svg>
