<svg width="64" height="64" viewBox="0 0 64 64" fill="none" xmlns="http://www.w3.org/2000/svg">
<g clip-path="url(#clip0_4438_891)">
<path d="M54.4276 25.8594H8.35625C7.62016 25.8594 7.02344 26.4705 7.02344 27.2244V51.0976C7.02344 51.8514 7.62016 52.4626 8.35625 52.4626H54.4276C55.1637 52.4626 55.7605 51.8514 55.7605 51.0976V27.2244C55.7605 26.4705 55.1637 25.8594 54.4276 25.8594Z" fill="black"/>
<path d="M54.5531 25.8945H33.8197C33.1291 25.8945 32.5693 26.4543 32.5693 27.1449V51.2633C32.5693 51.9539 33.1291 52.5137 33.8197 52.5137H54.5531C55.2437 52.5137 55.8035 51.9539 55.8035 51.2633V27.1449C55.8035 26.4543 55.2437 25.8945 54.5531 25.8945Z" fill="#232323"/>
<path d="M36.0005 27.5095H3.53613L19.7683 11.2773L36.0005 27.5095Z" fill="#177BF5"/>
<path d="M3.74435 27.4531H7.02327V29.475H3.74435C3.49862 29.475 3.29883 29.2776 3.29883 29.0349V27.8942C3.29883 27.6515 3.49862 27.4542 3.74435 27.4542V27.4531Z" fill="#054EC4"/>
<path d="M60.0378 27.4492H32.7866C32.4951 27.4492 32.2588 27.6855 32.2588 27.977V28.9603C32.2588 29.2518 32.4951 29.4881 32.7866 29.4881H60.0378C60.3293 29.4881 60.5656 29.2518 60.5656 28.9603V27.977C60.5656 27.6855 60.3293 27.4492 60.0378 27.4492Z" fill="#054EC4"/>
<path d="M19.7892 14.704L7.00879 27.4844L19.7892 40.2648L32.5696 27.4844L19.7892 14.704Z" fill="black"/>
<path d="M43.0454 11.2773H19.7676L35.8859 27.4478H60.2565L44.9097 12.052C44.416 11.5561 43.7445 11.2773 43.0443 11.2773H43.0454Z" fill="#549DFF"/>
<path d="M16.3943 33.1328H23.1409C23.8602 33.1328 24.4444 33.717 24.4444 34.4364V52.5138H15.0918V34.4364C15.0918 33.717 15.676 33.1328 16.3954 33.1328H16.3943Z" fill="#177BF5"/>
<path d="M44.2045 33.2148H41.9507C41.6915 33.2148 41.4814 33.4249 41.4814 33.6841V35.9379C41.4814 36.1971 41.6915 36.4072 41.9507 36.4072H44.2045C44.4637 36.4072 44.6738 36.1971 44.6738 35.9379V33.6841C44.6738 33.4249 44.4637 33.2148 44.2045 33.2148Z" fill="#177BF5"/>
<path d="M48.0629 33.2148H45.8091C45.5499 33.2148 45.3398 33.4249 45.3398 33.6841V35.9379C45.3398 36.1971 45.5499 36.4072 45.8091 36.4072H48.0629C48.3221 36.4072 48.5322 36.1971 48.5322 35.9379V33.6841C48.5322 33.4249 48.3221 33.2148 48.0629 33.2148Z" fill="#177BF5"/>
<path d="M44.2045 37.0703H41.9507C41.6915 37.0703 41.4814 37.2804 41.4814 37.5396V39.7934C41.4814 40.0526 41.6915 40.2627 41.9507 40.2627H44.2045C44.4637 40.2627 44.6738 40.0526 44.6738 39.7934V37.5396C44.6738 37.2804 44.4637 37.0703 44.2045 37.0703Z" fill="#177BF5"/>
<path d="M48.0629 37.0703H45.8091C45.5499 37.0703 45.3398 37.2804 45.3398 37.5396V39.7934C45.3398 40.0526 45.5499 40.2627 45.8091 40.2627H48.0629C48.3221 40.2627 48.5322 40.0526 48.5322 39.7934V37.5396C48.5322 37.2804 48.3221 37.0703 48.0629 37.0703Z" fill="#177BF5"/>
<path d="M23.0553 42.3516H23.0543C22.677 42.3516 22.3711 42.6574 22.3711 43.0347V43.0358C22.3711 43.4131 22.677 43.719 23.0543 43.719H23.0553C23.4326 43.719 23.7385 43.4131 23.7385 43.0358V43.0347C23.7385 42.6574 23.4326 42.3516 23.0553 42.3516Z" fill="#FFEB6C"/>
</g>
<defs>
<clipPath id="clip0_4438_891">
<rect width="57.2671" height="41.2349" fill="white" transform="translate(3.29883 11.2773)"/>
</clipPath>
</defs>
</svg>
