<svg width="64" height="64" viewBox="0 0 64 64" fill="none" xmlns="http://www.w3.org/2000/svg">
<g clip-path="url(#clip0_4438_775)">
<path d="M31.0699 12.25L32.5523 18.8906H41.1142L39.6318 12.25H42.9556L52.2534 53.9097C52.3337 54.27 52.0597 54.6116 51.6903 54.6116H49.5721C49.2886 54.6116 49.043 54.4153 48.9806 54.1389L48.118 50.2729H39.5562L40.3602 53.8766C40.4443 54.254 40.1571 54.6125 39.7688 54.6125H37.6855C37.402 54.6125 37.1564 54.4163 37.094 54.1399L27.7461 12.25H31.0699ZM41.7528 21.7557H33.191L34.6734 28.3963H43.2352L41.7528 21.7557ZM43.8749 31.2614H35.313L36.7954 37.902H45.3573L43.8749 31.2614ZM47.4784 47.4068L45.996 40.7662H37.4341L38.9165 47.4068H47.4784Z" fill="black"/>
<path d="M21.9165 9.38672H41.8113C42.4727 9.38672 43.0093 9.92257 43.0093 10.583V12.2518H20.8281V10.4745C20.8281 9.87446 21.3166 9.38672 21.9175 9.38672H21.9165Z" fill="#177BF5"/>
<path d="M32.7102 12.25L31.2278 18.8906H22.666L24.1484 12.25H20.8245L11.5352 53.8757C11.4511 54.2531 11.7383 54.6116 12.1267 54.6116H14.21C14.4934 54.6116 14.739 54.4153 14.8014 54.1389L15.664 50.2729H24.2258L23.4218 53.8766C23.3377 54.254 23.625 54.6125 24.0133 54.6125H26.0966C26.38 54.6125 26.6257 54.4163 26.688 54.1399L36.034 12.25H32.7102ZM22.0263 21.7557H30.5882L29.1058 28.3963H20.5439L22.0263 21.7557ZM19.9052 31.2614H28.4671L26.9847 37.902H18.4228L19.9052 31.2614ZM16.3018 47.4068L17.7842 40.7662H26.346L24.8636 47.4068H16.3018Z" fill="#177BF5"/>
</g>
<defs>
<clipPath id="clip0_4438_775">
<rect width="40.7467" height="45.2267" fill="white" transform="translate(11.5205 9.38672)"/>
</clipPath>
</defs>
</svg>
