<svg width="64" height="64" viewBox="0 0 64 64" fill="none" xmlns="http://www.w3.org/2000/svg">
<g clip-path="url(#clip0_4438_780)">
<path d="M39.6398 36.7185L36.7871 39.0273L43.1165 46.8619L45.9691 44.553L39.6398 36.7185Z" fill="black"/>
<path d="M28.0924 43.4491C38.0835 43.4491 46.1829 35.3422 46.1829 25.3418C46.1829 15.3413 38.0835 7.23438 28.0924 7.23438C18.1013 7.23438 10.002 15.3413 10.002 25.3418C10.002 35.3422 18.1013 43.4491 28.0924 43.4491Z" fill="#177BF5"/>
<path d="M28.0919 41.8278C37.1874 41.8278 44.5607 34.4476 44.5607 25.3436C44.5607 16.2396 37.1874 8.85938 28.0919 8.85938C18.9964 8.85938 11.623 16.2396 11.623 25.3436C11.623 34.4476 18.9964 41.8278 28.0919 41.8278Z" fill="black"/>
<path d="M28.0926 39.0683C35.6638 39.0683 41.8015 32.9249 41.8015 25.3467C41.8015 17.7684 35.6638 11.625 28.0926 11.625C20.5215 11.625 14.3838 17.7684 14.3838 25.3467C14.3838 32.9249 20.5215 39.0683 28.0926 39.0683Z" fill="#BDDDFF"/>
<path d="M43.3838 42.1376L41.3044 43.8206C40.6169 44.377 40.5103 45.386 41.0662 46.0742L48.9227 55.7991C49.4787 56.4873 50.4867 56.594 51.1742 56.0376L53.2536 54.3546C53.9411 53.7981 54.0478 52.7892 53.4918 52.101L45.6353 42.376C45.0793 41.6879 44.0713 41.5811 43.3838 42.1376Z" fill="#177BF5"/>
<path d="M36.0939 30.8002C35.5951 30.4273 35.4471 29.7416 35.7524 29.1988C36.3713 28.0977 37.0626 26.3327 36.8432 24.1719C36.5907 21.689 35.2547 19.9178 34.2964 18.9441C33.8586 18.4997 33.8224 17.7995 34.2063 17.3085L34.2094 17.3044C34.67 16.717 35.5403 16.6642 36.065 17.1946C37.3399 18.48 38.9884 20.7205 39.3134 23.9213C39.5969 26.717 38.7132 28.9927 37.9174 30.4139C37.551 31.0685 36.6931 31.2498 36.0929 30.8013L36.0939 30.8002Z" fill="white"/>
<path d="M32.5759 17.1192C33.3298 17.1192 33.9409 16.5075 33.9409 15.753C33.9409 14.9984 33.3298 14.3867 32.5759 14.3867C31.8221 14.3867 31.2109 14.9984 31.2109 15.753C31.2109 16.5075 31.8221 17.1192 32.5759 17.1192Z" fill="white"/>
</g>
<defs>
<clipPath id="clip0_4438_780">
<rect width="43.842" height="49.1627" fill="white" transform="translate(10.002 7.23438)"/>
</clipPath>
</defs>
</svg>
