<svg width="64" height="64" viewBox="0 0 64 64" fill="none" xmlns="http://www.w3.org/2000/svg">
<g clip-path="url(#clip0_4438_868)">
<path d="M47.5067 14.1095C47.9078 12.3871 44.4202 9.85901 39.6251 8.42095C34.83 6.98289 30.5249 7.17261 29.9121 8.83339L29.9063 8.83307L28.8855 12.2371L46.4895 17.5176L47.5104 14.1117L47.5047 14.1114L47.5067 14.1095Z" fill="#177BF5"/>
<path d="M46.5624 17.2767C47.0792 15.5534 43.5572 12.9744 38.6957 11.5164C33.8342 10.0583 29.4742 10.2734 28.9573 11.9968C28.4405 13.7201 31.9625 16.2991 36.824 17.7571C41.6855 19.2152 46.0455 19.0001 46.5624 17.2767Z" fill="#054EC4"/>
<path d="M42.1453 35.8447L22.3147 29.8969C24.95 24.684 27.5834 19.471 30.2186 14.2581C30.2844 14.0427 30.4009 13.7436 30.6266 13.4506C32.3087 11.2535 37.3134 12.7224 38.1945 12.9807C38.8147 13.1631 44.2922 14.7696 44.4392 17.5928C44.4555 17.9223 44.3977 18.2015 44.3368 18.3999C43.605 24.2141 42.8733 30.0284 42.1433 35.8446L42.1453 35.8447Z" fill="url(#paint0_linear_4438_868)"/>
<path d="M44.844 36.8991C45.5889 34.4156 40.5147 30.7004 33.5101 28.5999C26.5055 26.4993 20.2243 26.8081 19.4794 29.2917L17.0275 37.4681L42.3922 45.0755L44.844 36.8991Z" fill="#177BF5"/>
<path d="M42.3911 45.0709C43.136 42.5874 38.0619 38.8713 31.0579 36.7707C24.0539 34.6701 17.7722 34.9806 17.0273 37.4641C16.2825 39.9476 21.3566 43.6638 28.3606 45.7644C35.3646 47.8649 41.6463 47.5545 42.3911 45.0709Z" fill="#054EC4"/>
<path d="M27.4363 41.185L24.9359 55.7805C24.8447 56.3173 25.4934 56.5723 25.7163 56.087L31.8274 42.7371C31.9148 42.546 31.8796 42.3154 31.7396 42.1712C31.3925 41.8118 30.8419 41.347 30.0764 41.0471C29.1324 40.6758 28.2921 40.7214 27.78 40.8083C27.6055 40.837 27.4682 40.9908 27.4362 41.187L27.4363 41.185Z" fill="url(#paint1_linear_4438_868)"/>
</g>
<defs>
<linearGradient id="paint0_linear_4438_868" x1="39.5225" y1="11.5575" x2="32.5876" y2="31.8271" gradientUnits="userSpaceOnUse">
<stop stop-color="#177BF5"/>
<stop offset="1" stop-color="#054EC4"/>
</linearGradient>
<linearGradient id="paint1_linear_4438_868" x1="29.5234" y1="49.7749" x2="25.7431" y2="48.1426" gradientUnits="userSpaceOnUse">
<stop offset="0.34" stop-color="#999999"/>
<stop offset="0.4" stop-color="#B0B0B0"/>
<stop offset="0.52" stop-color="#D4D4D4"/>
<stop offset="0.61" stop-color="#E9E9E9"/>
<stop offset="0.67" stop-color="#F2F2F2"/>
<stop offset="0.89" stop-color="#F0F0F0"/>
<stop offset="0.96" stop-color="#E9E9E9"/>
<stop offset="1" stop-color="#E2E2E2"/>
</linearGradient>
<clipPath id="clip0_4438_868">
<rect width="29.2042" height="49.3011" fill="white" transform="translate(18.6924 6.59375) rotate(3.17447)"/>
</clipPath>
</defs>
</svg>
